<?xml version="1.0" encoding="UTF-8" standalone="no"?>
<!-- Created with Inkscape (http://www.inkscape.org/) -->

<svg
   xmlns:dc="http://purl.org/dc/elements/1.1/"
   xmlns:cc="http://creativecommons.org/ns#"
   xmlns:rdf="http://www.w3.org/1999/02/22-rdf-syntax-ns#"
   xmlns:svg="http://www.w3.org/2000/svg"
   xmlns="http://www.w3.org/2000/svg"
   xmlns:sodipodi="http://sodipodi.sourceforge.net/DTD/sodipodi-0.dtd"
   xmlns:inkscape="http://www.inkscape.org/namespaces/inkscape"
   width="500"
   height="500"
   viewBox="0 0 132.29166 132.29167"
   version="1.1"
   id="svg8"
   inkscape:version="0.92.1 unknown"
   sodipodi:docname="finish tea.svg">
  <defs
     id="defs2">
    <clipPath
       id="clipPath8517"
       clipPathUnits="userSpaceOnUse">
      <path
         inkscape:transform-center-y="-2.0179227e-06"
         inkscape:transform-center-x="-3.1809523e-06"
         d="m 21.015492,160.27566 c -15.6746218,0 -78.668877,-36.36975 -86.506188,-49.94437 -7.837311,-13.574621 -7.837313,-86.31412 -3e-6,-99.888741 7.837311,-13.574621 70.8315638,-49.944372 86.506186,-49.944372 15.674622,-10e-7 78.668877,36.3697468 86.506193,49.944368 7.83731,13.57462 7.83731,86.314119 0,99.888745 -7.837313,13.57462 -70.831566,49.94437 -86.506188,49.94437 z"
         inkscape:randomized="0"
         inkscape:rounded="0.15692081"
         inkscape:flatsided="true"
         sodipodi:arg2="2.0943951"
         sodipodi:arg1="1.5707963"
         sodipodi:r2="70.632011"
         sodipodi:r1="99.888741"
         sodipodi:cy="60.386917"
         sodipodi:cx="21.01549"
         sodipodi:sides="6"
         id="path8519"
         style="opacity:1;fill:#ffffff;fill-opacity:1;fill-rule:nonzero;stroke:#00b4a1;stroke-width:0.66499996;stroke-linecap:round;stroke-linejoin:miter;stroke-miterlimit:4;stroke-dasharray:none;stroke-dashoffset:0;stroke-opacity:1;paint-order:fill markers stroke"
         sodipodi:type="star" />
    </clipPath>
    <clipPath
       id="clipPath8560"
       clipPathUnits="userSpaceOnUse">
      <path
         inkscape:transform-center-y="-2.0179227e-06"
         inkscape:transform-center-x="-3.1809523e-06"
         d="m -135.04989,297.11767 c -15.67463,0 -78.66888,-36.36975 -86.50619,-49.94437 -7.83731,-13.57462 -7.83732,-86.31412 0,-99.88874 7.83731,-13.57462 70.83156,-49.944373 86.50618,-49.944373 15.67462,0 78.668878,36.369743 86.506189,49.944373 7.837312,13.57462 7.837314,86.31411 3e-6,99.88874 -7.837311,13.57462 -70.831562,49.94437 -86.506182,49.94437 z"
         inkscape:randomized="0"
         inkscape:rounded="0.15692081"
         inkscape:flatsided="true"
         sodipodi:arg2="2.0943951"
         sodipodi:arg1="1.5707963"
         sodipodi:r2="70.632011"
         sodipodi:r1="99.888741"
         sodipodi:cy="197.22893"
         sodipodi:cx="-135.0499"
         sodipodi:sides="6"
         id="path8562"
         style="opacity:1;fill:#ffffff;fill-opacity:1;fill-rule:nonzero;stroke:#00b4a1;stroke-width:0.66499996;stroke-linecap:round;stroke-linejoin:miter;stroke-miterlimit:4;stroke-dasharray:none;stroke-dashoffset:0;stroke-opacity:1;paint-order:fill markers stroke"
         sodipodi:type="star" />
    </clipPath>
  </defs>
  <sodipodi:namedview
     id="base"
     pagecolor="#131313"
     bordercolor="#666666"
     borderopacity="1.0"
     inkscape:pageopacity="0"
     inkscape:pageshadow="2"
     inkscape:zoom="0.5"
     inkscape:cx="255.88588"
     inkscape:cy="194.99197"
     inkscape:document-units="mm"
     inkscape:current-layer="layer1"
     showgrid="false"
     inkscape:pagecheckerboard="false"
     units="px"
     inkscape:window-width="1366"
     inkscape:window-height="747"
     inkscape:window-x="0"
     inkscape:window-y="21"
     inkscape:window-maximized="1" />
  <metadata
     id="metadata5">
    <rdf:RDF>
      <cc:Work
         rdf:about="">
        <dc:format>image/svg+xml</dc:format>
        <dc:type
           rdf:resource="http://purl.org/dc/dcmitype/StillImage" />
        <dc:title></dc:title>
      </cc:Work>
    </rdf:RDF>
  </metadata>
  <g
     inkscape:label="Layer 1"
     inkscape:groupmode="layer"
     id="layer1"
     transform="translate(0,-164.70831)">
    <g
       id="g8529"
       transform="matrix(0.84774466,0,0,0.84774466,362.22074,53.861808)">
      <path
         inkscape:transform-center-y="-2.5504455e-06"
         inkscape:transform-center-x="-6.1428173e-06"
         d="m -349.25009,273.04098 c -8.67987,0 -51.3115,-24.61338 -55.65143,-32.13037 -4.33993,-7.51698 -4.33993,-56.74375 0,-64.26073 4.33993,-7.51699 46.97156,-32.13037 55.65143,-32.13037 8.67986,0 51.31149,24.61338 55.65143,32.13036 4.33993,7.51699 4.33993,56.74375 0,64.26074 -4.33994,7.51698 -46.97156,32.13037 -55.65143,32.13037 z"
         inkscape:randomized="0"
         inkscape:rounded="0.13507264"
         inkscape:flatsided="true"
         sodipodi:arg2="2.0943951"
         sodipodi:arg1="1.5707963"
         sodipodi:r2="55.651424"
         sodipodi:r1="64.260735"
         sodipodi:cy="208.78024"
         sodipodi:cx="-349.25009"
         sodipodi:sides="6"
         id="path8417"
         style="opacity:1;fill:none;fill-opacity:1;fill-rule:nonzero;stroke:#ffffff;stroke-width:7.30600023;stroke-linecap:round;stroke-linejoin:miter;stroke-miterlimit:4;stroke-dasharray:none;stroke-dashoffset:0;stroke-opacity:1;paint-order:fill markers stroke"
         sodipodi:type="star" />
      <g
         transform="matrix(1.2347848,0,0,1.2347848,287.07304,-27.869219)"
         id="g8501">
        <g
           transform="matrix(0.2362605,0,0,0.21239626,-2025.7548,-539.48511)"
           style="opacity:1;fill:#39c892;fill-opacity:1"
           id="g8948">
          <path
             sodipodi:nodetypes="ccc"
             id="path11277-5-4-5"
             d="m 6409.0048,3586.347 c 24.4255,-189.1527 -69.4644,-143.822 -149.9152,-240.1788 26.8153,216.3337 85.7952,142.919 149.9152,240.1788 z"
             style="fill:#fcfefd;fill-opacity:1;stroke:none"
             inkscape:connector-curvature="0" />
          <path
             id="path11279-1-9-9"
             d="m 6406.9795,3441.5873 c -16.8679,-116.8517 49.5983,-92.1184 84.458,-147.0838 18.2909,110.9158 -54.4694,106.9756 -84.458,147.0838 z"
             style="fill:#fcfefd;fill-opacity:1;stroke:none"
             sodipodi:nodetypes="ccc"
             inkscape:connector-curvature="0" />
          <rect
             y="3385.1685"
             x="6405.4321"
             height="237.55417"
             width="9.3144045"
             id="rect11281-2-1-5"
             style="fill:#fcfefd;fill-opacity:1;stroke:none" />
          <path
             style="fill:#fcfefd;fill-opacity:1;stroke:none"
             d="m 6394.7977,3359.9299 c 24.5546,-50.1569 -2.3954,-57.9041 -20.5976,-97.9974 -29.3959,71.863 7.0539,66.7997 20.5976,97.9974 z"
             id="path11283-5-2-1"
             sodipodi:nodetypes="ccc"
             inkscape:connector-curvature="0" />
        </g>
      </g>
    </g>
  </g>
</svg>
