<?xml version="1.0" encoding="UTF-8" standalone="no"?>
<!-- Created with Inkscape (http://www.inkscape.org/) -->

<svg
   xmlns:dc="http://purl.org/dc/elements/1.1/"
   xmlns:cc="http://creativecommons.org/ns#"
   xmlns:rdf="http://www.w3.org/1999/02/22-rdf-syntax-ns#"
   xmlns:svg="http://www.w3.org/2000/svg"
   xmlns="http://www.w3.org/2000/svg"
   xmlns:sodipodi="http://sodipodi.sourceforge.net/DTD/sodipodi-0.dtd"
   xmlns:inkscape="http://www.inkscape.org/namespaces/inkscape"
   width="58.623188mm"
   height="58.623184mm"
   viewBox="0 0 207.71996 207.71994"
   id="svg7616"
   version="1.1"
   inkscape:version="0.91 r13725"
   sodipodi:docname="foto profil.svg">
  <defs
     id="defs7618">
    <filter
       inkscape:collect="always"
       style="color-interpolation-filters:sRGB"
       id="filter4456"
       x="-0.073067829"
       width="1.1461357"
       y="-0.066446424"
       height="1.1328928">
      <feGaussianBlur
         inkscape:collect="always"
         stdDeviation="9.616617"
         id="feGaussianBlur4458" />
    </filter>
  </defs>
  <sodipodi:namedview
     id="base"
     pagecolor="#ffffff"
     bordercolor="#666666"
     borderopacity="1.0"
     inkscape:pageopacity="0.0"
     inkscape:pageshadow="2"
     inkscape:zoom="1.979899"
     inkscape:cx="58.015179"
     inkscape:cy="33.471275"
     inkscape:document-units="px"
     inkscape:current-layer="layer1"
     showgrid="false"
     fit-margin-top="0"
     fit-margin-left="0"
     fit-margin-right="0"
     fit-margin-bottom="0"
     inkscape:window-width="1366"
     inkscape:window-height="708"
     inkscape:window-x="0"
     inkscape:window-y="31"
     inkscape:window-maximized="1" />
  <metadata
     id="metadata7621">
    <rdf:RDF>
      <cc:Work
         rdf:about="">
        <dc:format>image/svg+xml</dc:format>
        <dc:type
           rdf:resource="http://purl.org/dc/dcmitype/StillImage" />
        <dc:title />
      </cc:Work>
    </rdf:RDF>
  </metadata>
  <g
     inkscape:label="Layer 1"
     inkscape:groupmode="layer"
     id="layer1"
     transform="translate(109.57427,-354.21674)">
    <path
       style="opacity:1;fill:#000000;fill-opacity:0;stroke:none;stroke-width:2.11889768;stroke-linecap:round;stroke-linejoin:round;stroke-miterlimit:4;stroke-dasharray:none;stroke-opacity:1"
       d="m -109.57427,354.21649 207.719969,0 0,207.71997 -207.719969,0 z"
       id="rect6503" />
    <g
       id="g6464"
       transform="matrix(2.1079703,0,0,2.1079703,-318.74761,492.95866)"
       inkscape:export-filename="/home/xavier/Desktop/poster RP9.PNG"
       inkscape:export-xdpi="100"
       inkscape:export-ydpi="100">
      <path
         inkscape:connector-curvature="0"
         id="path6466"
         transform="matrix(0.17344535,0,0,0.17344535,57.236284,-97.37054)"
         d="m 526.18164,255.87695 c -20.07828,0 -140.36711,69.44767 -150.40625,86.83594 -10.03914,17.38827 -10.03914,156.28361 0,173.67188 10.03914,17.38826 130.32797,86.83789 150.40625,86.83789 20.07828,0 140.36516,-69.44963 150.4043,-86.83789 10.03913,-17.38827 10.03914,-156.28361 0,-173.67188 -10.03914,-17.38826 -130.32602,-86.83594 -150.4043,-86.83594 z"
         style="fill:#4fc780;fill-opacity:1;stroke:none;stroke-width:12.92001152;stroke-miterlimit:4;stroke-dasharray:none;stroke-opacity:1;filter:url(#filter4456)" />
      <path
         transform="matrix(1,0,0,0.9999982,-0.1870856,-122.99999)"
         style="fill:#4fc780;fill-opacity:1;stroke:none;stroke-width:2.24091601;stroke-miterlimit:4;stroke-dasharray:none;stroke-opacity:1"
         d="m 148.68704,130.25575 c -3.48248,0 -24.34589,-12.04549 -26.08713,-15.06141 -1.74124,-3.01592 -1.74124,-27.106906 0,-30.122825 1.74124,-3.015919 22.60465,-15.061414 26.08713,-15.061414 3.48249,0 24.34589,12.045493 26.08713,15.061412 1.74125,3.01592 1.74125,27.106907 0,30.122827 -1.74124,3.01592 -22.60464,15.06141 -26.08713,15.06141 z"
         id="path6468" />
      <g
         id="g6470"
         transform="matrix(0.44613428,0,0,0.44613428,410.40817,222.19323)">
        <g
           style="opacity:1;fill:#39c892;fill-opacity:1"
           id="g6472"
           transform="matrix(0.30023264,0,0,0.26990666,-2507.9783,-1456.6551)"
           inkscape:export-filename="/media/goesonmyway/inkscape/sertifikat_satu.png"
           inkscape:export-xdpi="300"
           inkscape:export-ydpi="300">
          <g
             id="g6474"
             transform="translate(0,-77.325554)">
            <path
               sodipodi:nodetypes="ccc"
               id="path6476"
               d="m 6409.0048,3586.347 c 24.4255,-189.1527 -69.4644,-143.822 -149.9152,-240.1788 26.8153,216.3337 85.7952,142.919 149.9152,240.1788 z"
               style="fill:#fcfefd;fill-opacity:1;stroke:none"
               inkscape:connector-curvature="0" />
            <path
               id="path6478"
               d="m 6406.9795,3441.5873 c -16.8679,-116.8517 49.5983,-92.1184 84.458,-147.0838 18.2909,110.9158 -54.4694,106.9756 -84.458,147.0838 z"
               style="fill:#fcfefd;fill-opacity:1;stroke:none"
               sodipodi:nodetypes="ccc"
               inkscape:connector-curvature="0" />
            <path
               style="fill:#fcfefd;fill-opacity:1;stroke:none"
               d="m 6405.4321,3385.1685 9.3144,0 0,237.5541 -9.3144,0 z"
               id="rect6480" />
            <path
               style="fill:#fcfefd;fill-opacity:1;stroke:none"
               d="m 6394.7977,3359.9299 c 24.5546,-50.1569 -2.3954,-57.9041 -20.5976,-97.9974 -29.3959,71.863 7.0539,66.7997 20.5976,97.9974 z"
               id="path6482"
               sodipodi:nodetypes="ccc"
               inkscape:connector-curvature="0" />
          </g>
        </g>
        <path
           style="color:#000000;clip-rule:nonzero;display:inline;overflow:visible;visibility:visible;opacity:1;isolation:auto;mix-blend-mode:normal;color-interpolation:sRGB;color-interpolation-filters:linearRGB;solid-color:#000000;solid-opacity:1;fill:none;fill-opacity:0;fill-rule:nonzero;stroke:none;stroke-width:1.28691745;stroke-linecap:round;stroke-linejoin:round;stroke-miterlimit:4;stroke-dasharray:none;stroke-dashoffset:0;stroke-opacity:1;color-rendering:auto;image-rendering:auto;shape-rendering:auto;text-rendering:auto;enable-background:accumulate"
           d="m -529.47622,-549.29755 a 57.585182,57.585182 0 0 1 -57.58518,57.58519 57.585182,57.585182 0 0 1 -57.58518,-57.58519 57.585182,57.585182 0 0 1 57.58518,-57.58518 57.585182,57.585182 0 0 1 57.58518,57.58518 z"
           id="circle6484" />
      </g>
    </g>
    <g
       style="font-style:normal;font-weight:normal;font-size:29.98922157px;line-height:125%;font-family:sans-serif;letter-spacing:0px;word-spacing:0px;fill:#333333;fill-opacity:1;stroke:none;stroke-width:1px;stroke-linecap:butt;stroke-linejoin:miter;stroke-opacity:1"
       id="text6486">
      <path
         d="m -82.47591,542.94397 2.219202,0 0,-20.15276 5.068179,0 0,-2.00928 -12.35556,0 0,2.00928 5.068179,0 0,20.15276 z"
         style="font-style:normal;font-variant:normal;font-weight:normal;font-stretch:normal;font-family:'URW Gothic L';-inkscape-font-specification:'URW Gothic L';fill:#333333;fill-opacity:1"
         id="path4173" />
      <path
         d="m -56.66175,535.47665 c 0,-2.24919 -0.299892,-3.62869 -1.109601,-5.06817 -1.469472,-2.60907 -4.318448,-4.25847 -7.437327,-4.25847 -4.768287,0 -8.516939,3.74865 -8.516939,8.51693 0,4.85826 3.808631,8.66689 8.666885,8.66689 2.099245,0 4.078534,-0.77972 5.577995,-2.18921 1.16958,-1.1096 1.949299,-2.2492 2.399138,-3.59871 l -2.30917,0 c -0.929666,2.24919 -3.238836,3.74865 -5.727942,3.74865 -3.358793,0 -6.207769,-2.57907 -6.387704,-5.81791 l 14.844665,0 z m -14.784686,-2.00927 c 0.599784,-3.14887 3.088889,-5.27811 6.207768,-5.27811 3.178858,0 5.607985,2.00928 6.357715,5.27811 l -12.565483,0 z"
         style="font-style:normal;font-variant:normal;font-weight:normal;font-stretch:normal;font-family:'URW Gothic L';-inkscape-font-specification:'URW Gothic L';fill:#333333;fill-opacity:1"
         id="path4175" />
      <path
         d="m -36.887136,526.53987 -2.219203,0 0,2.90895 c -1.619417,-2.27918 -3.628695,-3.29881 -6.477671,-3.29881 -4.918233,0 -8.636896,3.71866 -8.636896,8.63689 0,4.88824 3.748653,8.54693 8.786842,8.54693 2.788997,0 4.588351,-0.92967 6.327725,-3.26883 l 0,2.87897 2.219203,0 0,-16.4041 z m -8.636896,1.6494 c 3.598707,0 6.417693,2.81899 6.417693,6.47767 0,3.71867 -2.759008,6.62762 -6.297736,6.62762 -3.718664,0 -6.56764,-2.90895 -6.56764,-6.6576 0,-3.56872 2.878966,-6.44769 6.447683,-6.44769 z"
         style="font-style:normal;font-variant:normal;font-weight:normal;font-stretch:normal;font-family:'URW Gothic L';-inkscape-font-specification:'URW Gothic L';fill:#333333;fill-opacity:1"
         id="path4177" />
      <path
         d="m -32.70083,542.94397 11.395904,0 0,-2.00928 -9.176702,0 0,-20.15276 -2.219202,0 0,22.16204 z"
         style="font-style:normal;font-variant:normal;font-weight:normal;font-stretch:normal;font-family:'URW Gothic L';-inkscape-font-specification:'URW Gothic L';fill:#333333;fill-opacity:1"
         id="path4179" />
      <path
         d="m -19.208961,542.94397 2.219202,0 0,-16.4041 -2.219202,0 0,16.4041 z m 0,-18.38339 2.219202,0 0,-3.77865 -2.219202,0 0,3.77865 z"
         style="font-style:normal;font-variant:normal;font-weight:normal;font-stretch:normal;font-family:'URW Gothic L';-inkscape-font-specification:'URW Gothic L';fill:#333333;fill-opacity:1"
         id="path4181" />
      <path
         d="m -13.234542,542.94397 2.219202,0 0,-9.02676 c 0,-1.82934 0.239914,-2.78899 0.869688,-3.71866 0.869687,-1.25955 2.3991373,-2.00928 4.1385121,-2.00928 1.619418,0 3.0888899,0.65977 3.9885665,1.76937 0.7797198,1.01963 1.07961198,2.2192 1.07961198,4.37842 l 0,8.60691 2.21920242,0 0,-8.60691 c 0,-2.75901 -0.3898599,-4.22848 -1.43948266,-5.63797 -1.28953654,-1.61942 -3.26882514,-2.54908 -5.57799524,-2.54908 -2.1592239,0 -3.8985988,0.83969 -5.2781031,2.51909 l 0,-2.12923 -2.219202,0 0,16.4041 z"
         style="font-style:normal;font-variant:normal;font-weight:normal;font-stretch:normal;font-family:'URW Gothic L';-inkscape-font-specification:'URW Gothic L';fill:#333333;fill-opacity:1"
         id="path4183" />
      <path
         d="m 19.494944,526.53987 -2.219203,0 0,8.42697 c 0,2.00927 -0.299892,3.26882 -0.989644,4.28846 -0.929666,1.28953 -2.399138,2.03926 -4.108523,2.03926 -1.829343,0 -3.3887825,-0.74973 -4.138513,-2.06925 -0.5098168,-0.8397 -0.7797198,-2.15923 -0.7797198,-3.83862 l 0,-8.84682 -2.2192024,0 0,8.84682 c 0,2.42912 0.4198491,4.13851 1.2895366,5.33808 1.229558,1.70938 3.2088467,2.60906 5.6679626,2.60906 2.549084,0 4.168502,-0.89968 5.278103,-2.93894 l 0,2.54908 2.219203,0 0,-16.4041 z"
         style="font-style:normal;font-variant:normal;font-weight:normal;font-stretch:normal;font-family:'URW Gothic L';-inkscape-font-specification:'URW Gothic L';fill:#333333;fill-opacity:1"
         id="path4185" />
      <path
         d="m 21.606834,542.94397 2.519095,0 4.438405,-6.56764 4.408415,6.56764 2.549084,0 -5.727941,-8.36699 5.727941,-8.03711 -2.549084,0 -4.408415,6.32772 -4.438405,-6.32772 -2.519095,0 5.697952,8.03711 -5.697952,8.36699 z"
         style="font-style:normal;font-variant:normal;font-weight:normal;font-stretch:normal;font-family:'URW Gothic L';-inkscape-font-specification:'URW Gothic L';fill:#333333;fill-opacity:1"
         id="path4187" />
      <path
         d="m 48.821122,520.39208 c -6.357715,0 -11.725786,5.18813 -11.725786,11.33592 0,6.44768 5.218125,11.60583 11.725786,11.60583 6.417693,0 11.695796,-5.18814 11.695796,-11.45588 0,-6.32773 -5.278103,-11.48587 -11.695796,-11.48587 z m 0,2.03926 c 5.158146,0 9.446604,4.28846 9.446604,9.4766 0,5.12815 -4.288458,9.38662 -9.446604,9.38662 -5.218125,0 -9.476594,-4.25847 -9.476594,-9.50658 0,-5.06818 4.348437,-9.35664 9.476594,-9.35664 z"
         style="font-style:normal;font-variant:normal;font-weight:normal;font-stretch:normal;font-family:'URW Gothic L';-inkscape-font-specification:'URW Gothic L';fill:#333333;fill-opacity:1"
         id="path4189" />
      <path
         d="m 62.500415,536.7362 c 0.209925,3.98857 2.938944,6.59763 6.927511,6.59763 3.83862,0 6.687596,-2.789 6.687596,-6.56764 0,-1.9493 -0.809709,-3.68867 -2.219202,-4.7383 -0.899677,-0.65976 -1.829343,-1.07961 -4.108524,-1.76936 -2.009278,-0.59979 -2.669041,-0.86969 -3.268825,-1.37951 -0.629774,-0.56979 -1.049623,-1.55943 -1.049623,-2.57907 0,-2.2192 1.619418,-3.86861 3.838621,-3.86861 2.249191,0 3.808631,1.55944 3.958577,3.95858 l 2.30917,0 c -0.08997,-3.59871 -2.579073,-5.99784 -6.207769,-5.99784 -3.568717,0 -6.14779,2.51909 -6.14779,5.96785 0,1.52945 0.569795,2.99892 1.559439,3.92859 0.869688,0.8397 1.55944,1.16958 4.138513,1.9493 1.739375,0.5398 2.69903,0.95965 3.418771,1.46947 0.989644,0.68975 1.52945,1.82934 1.52945,3.17886 0,2.54908 -1.859331,4.40841 -4.378426,4.40841 -1.409493,0 -2.759008,-0.62977 -3.568717,-1.6494 -0.629774,-0.77972 -0.899677,-1.52945 -1.049623,-2.90896 l -2.369149,0 z"
         style="font-style:normal;font-variant:normal;font-weight:normal;font-stretch:normal;font-family:'URW Gothic L';-inkscape-font-specification:'URW Gothic L';fill:#333333;fill-opacity:1"
         id="path4191" />
    </g>
    <path
       style="fill:none;fill-opacity:1;stroke:#00d4aa;stroke-width:3.72275257;stroke-linecap:round;stroke-linejoin:round;stroke-miterlimit:4;stroke-dasharray:none;stroke-opacity:1"
       d="M 58.790872,531.8421 A 10.042481,10.042481 0 0 1 48.74839,541.88458 10.042481,10.042481 0 0 1 38.705909,531.8421 10.042481,10.042481 0 0 1 48.74839,521.79962 10.042481,10.042481 0 0 1 58.790872,531.8421 Z"
       id="path5147" />
    <path
       style="fill:none;fill-opacity:1;stroke:#148080;stroke-width:3.72275257;stroke-linecap:butt;stroke-linejoin:miter;stroke-miterlimit:4;stroke-dasharray:none;stroke-opacity:0.4542587"
       d="m 56.072292,538.71319 a 10.042481,10.042481 0 0 1 -7.416187,3.17097 10.042481,10.042481 0 0 1 -7.356658,-3.30673"
       id="circle5149" />
  </g>
</svg>
