<?xml version="1.0" encoding="UTF-8" standalone="no"?>
<!-- Created with Inkscape (http://www.inkscape.org/) -->

<svg
   xmlns:dc="http://purl.org/dc/elements/1.1/"
   xmlns:cc="http://creativecommons.org/ns#"
   xmlns:rdf="http://www.w3.org/1999/02/22-rdf-syntax-ns#"
   xmlns:svg="http://www.w3.org/2000/svg"
   xmlns="http://www.w3.org/2000/svg"
   xmlns:sodipodi="http://sodipodi.sourceforge.net/DTD/sodipodi-0.dtd"
   xmlns:inkscape="http://www.inkscape.org/namespaces/inkscape"
   width="304.38107mm"
   height="191.84123mm"
   viewBox="0 0 1078.5156 679.75239"
   id="svg2"
   version="1.1"
   inkscape:version="0.92.1 unknown"
   sodipodi:docname="plakat.svg">
  <defs
     id="defs4" />
  <sodipodi:namedview
     id="base"
     pagecolor="#ffffff"
     bordercolor="#666666"
     borderopacity="1.0"
     inkscape:pageopacity="0.0"
     inkscape:pageshadow="2"
     inkscape:zoom="0.35"
     inkscape:cx="573.55021"
     inkscape:cy="116.82867"
     inkscape:document-units="px"
     inkscape:current-layer="layer1"
     showgrid="false"
     inkscape:window-width="1366"
     inkscape:window-height="717"
     inkscape:window-x="0"
     inkscape:window-y="25"
     inkscape:window-maximized="1"
     inkscape:snap-global="false"
     fit-margin-top="0"
     fit-margin-left="0"
     fit-margin-right="0"
     fit-margin-bottom="0" />
  <metadata
     id="metadata7">
    <rdf:RDF>
      <cc:Work
         rdf:about="">
        <dc:format>image/svg+xml</dc:format>
        <dc:type
           rdf:resource="http://purl.org/dc/dcmitype/StillImage" />
        <dc:title></dc:title>
      </cc:Work>
    </rdf:RDF>
  </metadata>
  <g
     inkscape:label="Layer 1"
     inkscape:groupmode="layer"
     id="layer1"
     transform="translate(-20.123945,-168.03366)">
    <text
       xml:space="preserve"
       style="font-style:normal;font-weight:normal;font-size:37.5px;line-height:9.375px;font-family:sans-serif;letter-spacing:0px;word-spacing:0px;fill:#000000;fill-opacity:1;stroke:none;stroke-width:0.9375"
       x="-176.14534"
       y="633.78027"
       id="text4492"><tspan
         sodipodi:role="line"
         x="-176.14534"
         y="648.20898"
         style="stroke-width:0.9375"
         id="tspan4498" /></text>
    <g
       id="g4757"
       transform="matrix(0.65132903,0,0,0.65132903,55.130271,-43.406572)"
       style="fill:#62aa41;fill-opacity:1" />
    <text
       xml:space="preserve"
       style="font-style:normal;font-weight:normal;font-size:37.5px;line-height:9.375px;font-family:sans-serif;letter-spacing:0px;word-spacing:0px;fill:#000000;fill-opacity:1;stroke:none;stroke-width:0.9375"
       x="231.07239"
       y="499.30365"
       id="text4804"><tspan
         sodipodi:role="line"
         id="tspan4802"
         x="231.07239"
         y="513.73236"
         style="stroke-width:0.9375" /></text>
    <g
       id="g586"
       transform="translate(-104.46429)">
      <path
         style="opacity:1;fill:#f9f9f9;fill-opacity:1;stroke:#1a1a1a;stroke-width:2.16875052;stroke-miterlimit:4;stroke-dasharray:none;stroke-opacity:1"
         d="M 372.04651,169.11804 A 196.9176,196.9176 0 0 0 175.1294,366.03698 196.9176,196.9176 0 0 0 239.44702,511.29822 v 212.55981 h -33.3783 v 47.44629 h -80.39611 v 75.39734 H 619.35242 V 771.30432 H 538.9563 V 723.85803 H 507.87414 V 508.49854 A 196.9176,196.9176 0 0 0 568.96545,366.03698 196.9176,196.9176 0 0 0 372.04651,169.11804 Z"
         id="rect4520"
         inkscape:connector-curvature="0" />
      <circle
         r="157.14285"
         cy="366.03656"
         cx="372.04724"
         id="path4139"
         style="fill:#62aa41;fill-opacity:1" />
      <g
         style="fill:#ffffff;fill-opacity:1"
         transform="matrix(18.690865,0,0,18.690865,126341.62,-51587.834)"
         id="g3208">
        <path
           inkscape:connector-curvature="0"
           id="path4131-5"
           d="m -6740.5653,2773.4142 c -1.0399,2.5626 0.3131,2.3818 0.7922,3.4942 0.8686,-1.7885 -0.1483,-2.0645 -0.7922,-3.4942 z m 4.5133,1.1866 c -0.9626,1.5279 -2.8214,1.2709 -3.2478,2.9881 -0.1102,0.4438 -0.1218,1.0186 0,1.7915 v 1.7521 c -0.8201,-2.5691 -3.4792,-2.2915 -5.7032,-4.7172 0.9318,7.5776 3.3797,4.7469 5.7032,8.2245 v 1.407 h 0.2597 v -6.571 c 1.1718,-1.1776 3.5972,-1.1514 2.9881,-4.875 z"
           style="fill:#ffffff;fill-opacity:1;stroke:none" />
      </g>
      <text
         id="text4148"
         y="766.4317"
         x="218.31932"
         style="font-style:normal;font-weight:normal;font-size:44.99132156px;line-height:125%;font-family:sans-serif;letter-spacing:0px;word-spacing:0px;fill:#62aa41;fill-opacity:1;stroke:none;stroke-width:1.3121078px;stroke-linecap:butt;stroke-linejoin:miter;stroke-opacity:1"
         xml:space="preserve"><tspan
           style="font-style:normal;font-variant:normal;font-weight:normal;font-stretch:normal;font-family:Montserrat;-inkscape-font-specification:Montserrat;fill:#62aa41;fill-opacity:1;stroke-width:1.3121078px"
           y="766.4317"
           x="218.31932"
           id="tspan4150"
           sodipodi:role="line">Release Party</tspan></text>
      <text
         id="text4152"
         y="829.91412"
         x="141.9258"
         style="font-style:normal;font-weight:normal;font-size:60.58726883px;line-height:125%;font-family:sans-serif;letter-spacing:0px;word-spacing:0px;fill:#62aa41;fill-opacity:1;stroke:none;stroke-width:1.19321501px;stroke-linecap:butt;stroke-linejoin:miter;stroke-opacity:1"
         xml:space="preserve"><tspan
           style="font-style:normal;font-variant:normal;font-weight:bold;font-stretch:normal;font-family:Montserrat;-inkscape-font-specification:'Montserrat Bold';fill:#62aa41;fill-opacity:1;stroke-width:1.19321501px"
           y="829.91412"
           x="141.9258"
           id="tspan4154"
           sodipodi:role="line">TeaLinuxOS 9</tspan></text>
      <g
         style="fill:#4d4d4d"
         transform="matrix(0.62307011,0,0,0.62307011,309.93163,65.116052)"
         id="g4735">
        <path
           inkscape:connector-curvature="0"
           id="path4522"
           style="font-style:normal;font-weight:normal;font-size:medium;line-height:9.375px;font-family:sans-serif;letter-spacing:0px;word-spacing:0px;fill:#4d4d4d;fill-opacity:1;stroke:none;stroke-width:0.9375"
           d="m 7.9555988,816.18842 h -9.7412109 v 24.04174 h -3.6254883 v -24.04174 h -9.7412106 v -3.22266 H 7.9555988 Z" />
        <path
           inkscape:connector-curvature="0"
           id="path4524"
           style="font-style:normal;font-weight:normal;font-size:medium;line-height:9.375px;font-family:sans-serif;letter-spacing:0px;word-spacing:0px;fill:#4d4d4d;fill-opacity:1;stroke:none;stroke-width:0.9375"
           d="M 24.471712,830.36078 H 9.402132 q 0,1.88599 0.567627,3.2959 0.567627,1.3916 1.556396,2.28882 0.952149,0.8789 2.252198,1.31835 1.318359,0.43946 2.893066,0.43946 2.087402,0 4.193115,-0.82398 2.124024,-0.84228 3.021241,-1.64795 h 0.183105 v 3.75367 q -1.739502,0.73242 -3.552246,1.2268 -1.812744,0.49439 -3.808594,0.49439 -5.090332,0 -7.9467771,-2.74658 -2.8564453,-2.7649 -2.8564453,-7.83692 0,-5.01709 2.7282715,-7.96509 2.7465819,-2.94799 7.2143559,-2.94799 4.138183,0 6.37207,2.41699 2.252197,2.41699 2.252197,6.86645 z m -3.35083,-2.63672 q -0.01831,-2.70996 -1.373291,-4.19312 -1.33667,-1.48315 -4.083252,-1.48315 -2.764893,0 -4.412842,1.62964 -1.6296384,1.62964 -1.849365,4.04663 z" />
        <path
           inkscape:connector-curvature="0"
           id="path4526"
           style="font-style:normal;font-weight:normal;font-size:medium;line-height:9.375px;font-family:sans-serif;letter-spacing:0px;word-spacing:0px;fill:#4d4d4d;fill-opacity:1;stroke:none;stroke-width:0.9375"
           d="m 42.452669,823.53094 h -0.183105 q -0.769043,-0.1831 -1.501465,-0.25634 -0.714111,-0.0916 -1.702881,-0.0916 -1.593018,0 -3.076172,0.71412 -1.483154,0.6958 -2.856445,1.81274 v 14.52026 h -3.442383 v -20.45288 h 3.442383 v 3.02124 q 2.050781,-1.64795 3.607178,-2.32544 1.574707,-0.6958 3.204345,-0.6958 0.897217,0 1.300049,0.0549 0.402832,0.0366 1.208496,0.1648 z" />
        <path
           inkscape:connector-curvature="0"
           id="path4528"
           style="font-style:normal;font-weight:normal;font-size:medium;line-height:9.375px;font-family:sans-serif;letter-spacing:0px;word-spacing:0px;fill:#4d4d4d;fill-opacity:1;stroke:none;stroke-width:0.9375"
           d="m 49.428988,816.35321 h -3.881836 v -3.57056 h 3.881836 z m -0.219727,23.87695 h -3.442383 v -20.45288 h 3.442383 z" />
        <path
           inkscape:connector-curvature="0"
           id="path4530"
           style="font-style:normal;font-weight:normal;font-size:medium;line-height:9.375px;font-family:sans-serif;letter-spacing:0px;word-spacing:0px;fill:#4d4d4d;fill-opacity:1;stroke:none;stroke-width:0.9375"
           d="M 85.757113,840.23016 H 82.31473 v -11.6455 q 0,-1.31836 -0.128174,-2.54517 -0.109863,-1.22681 -0.494385,-1.95923 -0.421142,-0.78735 -1.208496,-1.19018 -0.787354,-0.40284 -2.270508,-0.40284 -1.446533,0 -2.893066,0.73243 -1.446533,0.71411 -2.893067,1.83105 0.05493,0.42114 0.09155,0.98877 0.03662,0.54932 0.03662,1.09863 v 13.09204 h -3.442383 v -11.6455 q 0,-1.35498 -0.128173,-2.56348 -0.109864,-1.22681 -0.494385,-1.95923 -0.421143,-0.78735 -1.208496,-1.17187 -0.787354,-0.40284 -2.270508,-0.40284 -1.409912,0 -2.838135,0.6958 -1.409912,0.69581 -2.819824,1.77613 v 15.27099 H 55.910917 V 819.77728 H 59.3533 v 2.27051 q 1.611328,-1.33667 3.204346,-2.0874 1.611328,-0.75073 3.424072,-0.75073 2.087402,0 3.533935,0.8789 1.464844,0.87891 2.178956,2.4353 2.087402,-1.75781 3.808593,-2.52685 1.721192,-0.78735 3.68042,-0.78735 3.369141,0 4.962158,2.05078 1.611329,2.03247 1.611329,5.69458 z" />
        <path
           inkscape:connector-curvature="0"
           id="path4532"
           style="font-style:normal;font-weight:normal;font-size:medium;line-height:9.375px;font-family:sans-serif;letter-spacing:0px;word-spacing:0px;fill:#4d4d4d;fill-opacity:1;stroke:none;stroke-width:0.9375"
           d="m 108.27909,840.23016 h -3.42408 v -2.17895 q -0.45776,0.31128 -1.24511,0.8789 -0.76905,0.54932 -1.50147,0.87891 -0.86059,0.42114 -1.97754,0.6958 -1.116942,0.29297 -2.618406,0.29297 -2.764893,0 -4.6875,-1.83105 -1.922608,-1.83106 -1.922608,-4.66919 0,-2.32544 0.98877,-3.75367 1.00708,-1.44653 2.856445,-2.2705 1.867676,-0.82398 4.486084,-1.11695 2.618405,-0.29297 5.621335,-0.43945 v -0.53101 q 0,-1.17187 -0.42114,-1.94091 -0.40283,-0.76905 -1.17187,-1.2085 -0.73243,-0.42114 -1.75782,-0.56763 -1.02539,-0.14648 -2.142331,-0.14648 -1.354981,0 -3.02124,0.36621 -1.66626,0.3479 -3.442383,1.02539 H 92.71512 v -3.49731 q 1.00708,-0.27466 2.911377,-0.60425 1.904297,-0.32959 3.753662,-0.32959 2.160641,0 3.753661,0.36621 1.61133,0.3479 2.7832,1.20849 1.15357,0.84229 1.75782,2.17896 0.60425,1.33667 0.60425,3.31421 z m -3.42408,-5.0354 v -5.69458 q -1.5747,0.0916 -3.71704,0.27466 -2.124022,0.18311 -3.369139,0.53101 -1.483154,0.42114 -2.398681,1.31836 -0.915528,0.8789 -0.915528,2.4353 0,1.75781 1.062012,2.65503 1.062012,0.8789 3.240967,0.8789 1.812739,0 3.314209,-0.6958 1.50146,-0.71411 2.7832,-1.70288 z" />
        <path
           inkscape:connector-curvature="0"
           id="path4534"
           style="font-style:normal;font-weight:normal;font-size:medium;line-height:9.375px;font-family:sans-serif;letter-spacing:0px;word-spacing:0px;fill:#4d4d4d;fill-opacity:1;stroke:none;stroke-width:0.9375"
           d="m 146.69461,840.23016 h -4.54101 l -8.20313,-8.95385 -2.23388,2.12402 v 6.82983 h -3.44239 v -28.49121 h 3.44239 v 18.27393 l 9.94262,-10.2356 h 4.3396 l -9.50317,9.44824 z" />
        <path
           inkscape:connector-curvature="0"
           id="path4536"
           style="font-style:normal;font-weight:normal;font-size:medium;line-height:9.375px;font-family:sans-serif;letter-spacing:0px;word-spacing:0px;fill:#4d4d4d;fill-opacity:1;stroke:none;stroke-width:0.9375"
           d="m 166.21366,840.23016 h -3.42408 v -2.17895 q -0.45776,0.31128 -1.24511,0.8789 -0.76905,0.54932 -1.50147,0.87891 -0.86059,0.42114 -1.97754,0.6958 -1.11694,0.29297 -2.61841,0.29297 -2.76489,0 -4.6875,-1.83105 -1.9226,-1.83106 -1.9226,-4.66919 0,-2.32544 0.98877,-3.75367 1.00708,-1.44653 2.85644,-2.2705 1.86768,-0.82398 4.48609,-1.11695 2.6184,-0.29297 5.62133,-0.43945 v -0.53101 q 0,-1.17187 -0.42114,-1.94091 -0.40283,-0.76905 -1.17187,-1.2085 -0.73243,-0.42114 -1.75782,-0.56763 -1.02539,-0.14648 -2.14233,-0.14648 -1.35498,0 -3.02124,0.36621 -1.66626,0.3479 -3.44238,1.02539 h -0.18311 v -3.49731 q 1.00708,-0.27466 2.91138,-0.60425 1.90429,-0.32959 3.75366,-0.32959 2.16064,0 3.75366,0.36621 1.61133,0.3479 2.7832,1.20849 1.15357,0.84229 1.75782,2.17896 0.60425,1.33667 0.60425,3.31421 z m -3.42408,-5.0354 v -5.69458 q -1.5747,0.0916 -3.71704,0.27466 -2.12402,0.18311 -3.36914,0.53101 -1.48315,0.42114 -2.39868,1.31836 -0.91553,0.8789 -0.91553,2.4353 0,1.75781 1.06201,2.65503 1.06202,0.8789 3.24097,0.8789 1.81275,0 3.31421,-0.6958 1.50146,-0.71411 2.7832,-1.70288 z" />
        <path
           inkscape:connector-curvature="0"
           id="path4538"
           style="font-style:normal;font-weight:normal;font-size:medium;line-height:9.375px;font-family:sans-serif;letter-spacing:0px;word-spacing:0px;fill:#4d4d4d;fill-opacity:1;stroke:none;stroke-width:0.9375"
           d="m 187.49051,834.33417 q 0,2.80151 -2.32544,4.59594 -2.30713,1.79444 -6.31714,1.79444 -2.2705,0 -4.1748,-0.53101 -1.88599,-0.54931 -3.16773,-1.19018 v -3.86353 h 0.18311 q 1.62964,1.22681 3.62549,1.95923 1.99585,0.71411 3.8269,0.71411 2.27051,0 3.55225,-0.73242 1.28174,-0.73242 1.28174,-2.30713 0,-1.2085 -0.6958,-1.83105 -0.69581,-0.62256 -2.67334,-1.06202 -0.73243,-0.16479 -1.92261,-0.38452 -1.17188,-0.21972 -2.14234,-0.47607 -2.69165,-0.71411 -3.8269,-2.0874 -1.11694,-1.39161 -1.11694,-3.40577 0,-1.26342 0.51269,-2.38037 0.53101,-1.11694 1.59302,-1.99585 1.02539,-0.86059 2.6001,-1.35498 1.59301,-0.51269 3.55224,-0.51269 1.83106,0 3.69873,0.45776 1.88599,0.43945 3.13111,1.08032 v 3.68042 h -0.18311 q -1.31836,-0.97046 -3.20434,-1.62963 -1.88599,-0.6775 -3.69873,-0.6775 -1.88599,0 -3.18604,0.73243 -1.30005,0.71411 -1.30005,2.14233 0,1.26343 0.78735,1.9043 0.76905,0.64087 2.49024,1.0437 0.95215,0.21973 2.12402,0.43945 1.19019,0.21973 1.97754,0.40283 2.39868,0.54932 3.69873,1.88599 1.30005,1.35498 1.30005,3.58887 z" />
        <path
           inkscape:connector-curvature="0"
           id="path4540"
           style="font-style:normal;font-weight:normal;font-size:medium;line-height:9.375px;font-family:sans-serif;letter-spacing:0px;word-spacing:0px;fill:#4d4d4d;fill-opacity:1;stroke:none;stroke-width:0.9375"
           d="m 196.13309,816.35321 h -3.88184 v -3.57056 h 3.88184 z m -0.21973,23.87695 h -3.44238 v -20.45288 h 3.44238 z" />
        <path
           inkscape:connector-curvature="0"
           id="path4542"
           style="font-style:normal;font-weight:normal;font-size:medium;line-height:9.375px;font-family:sans-serif;letter-spacing:0px;word-spacing:0px;fill:#4d4d4d;fill-opacity:1;stroke:none;stroke-width:0.9375"
           d="m 219.71707,840.23016 h -3.44238 v -11.6455 q 0,-1.40992 -0.16479,-2.63672 -0.1648,-1.24512 -0.60425,-1.94092 -0.45777,-0.76904 -1.31836,-1.13525 -0.8606,-0.38453 -2.23389,-0.38453 -1.40991,0 -2.948,0.6958 -1.53808,0.69581 -2.94799,1.77613 v 15.27099 h -3.44239 v -28.49121 h 3.44239 v 10.30884 q 1.61132,-1.33667 3.33252,-2.0874 1.72119,-0.75073 3.53393,-0.75073 3.31421,0 5.05371,1.99585 1.7395,1.99584 1.7395,5.74951 z" />
      </g>
      <g
         transform="translate(0,119.32429)"
         id="g4828">
        <g
           id="g4766"
           transform="matrix(0.58095611,0,0,0.58095611,-164.85355,55.870645)"
           style="fill:#4d4d4d;fill-opacity:1">
          <path
             d="m 778.6099,832.44818 q 0,1.59302 -0.75074,3.14942 -0.73242,1.55639 -2.06909,2.63671 -1.46484,1.17188 -3.42407,1.83106 -1.94092,0.65918 -4.6875,0.65918 -2.948,0 -5.31006,-0.54932 -2.34375,-0.54931 -4.77905,-1.62964 v -4.54101 h 0.25635 q 2.06909,1.72119 4.77905,2.65503 2.70996,0.93383 5.09033,0.93383 3.36914,0 5.23682,-1.26342 1.88598,-1.26343 1.88598,-3.36914 0,-1.81275 -0.89721,-2.67334 -0.87891,-0.8606 -2.69165,-1.33667 -1.3733,-0.36621 -2.98462,-0.60425 -1.59302,-0.23804 -3.38745,-0.60425 -3.62549,-0.76904 -5.38331,-2.61841 -1.7395,-1.86767 -1.7395,-4.85229 0,-3.42407 2.89307,-5.60303 2.89307,-2.19727 7.34253,-2.19727 2.87475,0 5.27344,0.54932 2.39868,0.54932 4.24804,1.35498 v 4.28467 h -0.25634 q -1.5564,-1.31836 -4.10157,-2.17896 -2.52685,-0.8789 -5.18188,-0.8789 -2.91138,0 -4.6875,1.20849 -1.75781,1.2085 -1.75781,3.1128 0,1.70288 0.8789,2.67334 0.87891,0.97046 3.09448,1.48315 1.17188,0.25635 3.33252,0.62256 2.16065,0.36621 3.66211,0.75073 3.03955,0.80567 4.57764,2.4353 1.53809,1.62964 1.53809,4.55933 z"
             style="font-style:normal;font-weight:normal;font-size:medium;line-height:9.375px;font-family:sans-serif;letter-spacing:0px;word-spacing:0px;fill:#4d4d4d;fill-opacity:1;stroke:none;stroke-width:0.9375"
             id="path4584"
             inkscape:connector-curvature="0" />
          <path
             d="m 801.27835,830.36078 h -15.06958 q 0,1.88599 0.56763,3.2959 0.56763,1.3916 1.5564,2.28882 0.95214,0.8789 2.25219,1.31835 1.31836,0.43946 2.89307,0.43946 2.0874,0 4.19312,-0.82398 2.12402,-0.84228 3.02124,-1.64795 h 0.1831 v 3.75367 q -1.7395,0.73242 -3.55225,1.2268 -1.81274,0.49439 -3.80859,0.49439 -5.09033,0 -7.94678,-2.74658 -2.85644,-2.7649 -2.85644,-7.83692 0,-5.01709 2.72827,-7.96509 2.74658,-2.94799 7.21436,-2.94799 4.13818,0 6.37207,2.41699 2.25219,2.41699 2.25219,6.86645 z m -3.35083,-2.63672 q -0.0183,-2.70996 -1.37329,-4.19312 -1.33667,-1.48315 -4.08325,-1.48315 -2.76489,0 -4.41284,1.62964 -1.62964,1.62964 -1.84937,4.04663 z"
             style="font-style:normal;font-weight:normal;font-size:medium;line-height:9.375px;font-family:sans-serif;letter-spacing:0px;word-spacing:0px;fill:#4d4d4d;fill-opacity:1;stroke:none;stroke-width:0.9375"
             id="path4586"
             inkscape:connector-curvature="0" />
          <path
             d="m 824.49613,829.84808 q 0,2.56348 -0.73243,4.61426 -0.71411,2.05078 -1.94091,3.44238 -1.30005,1.44654 -2.85645,2.17896 -1.5564,0.71411 -3.42407,0.71411 -1.7395,0 -3.03955,-0.42114 -1.30005,-0.40283 -2.56348,-1.09863 l -0.21973,0.95214 h -3.22265 v -28.49121 h 3.44238 v 10.18067 q 1.44653,-1.19019 3.07617,-1.94092 1.62964,-0.76904 3.66211,-0.76904 3.62549,0 5.71289,2.7832 2.10572,2.7832 2.10572,7.85522 z m -3.55225,0.0916 q 0,-3.66211 -1.2085,-5.5481 -1.20849,-1.9043 -3.90014,-1.9043 -1.50147,0 -3.03955,0.65918 -1.53809,0.64087 -2.85645,1.66626 v 11.71875 q 1.46485,0.65918 2.50855,0.91553 1.06201,0.25635 2.39868,0.25635 2.85644,0 4.46777,-1.86768 1.62964,-1.88598 1.62964,-5.89599 z"
             style="font-style:normal;font-weight:normal;font-size:medium;line-height:9.375px;font-family:sans-serif;letter-spacing:0px;word-spacing:0px;fill:#4d4d4d;fill-opacity:1;stroke:none;stroke-width:0.9375"
             id="path4588"
             inkscape:connector-curvature="0" />
          <path
             d="m 845.75467,840.23016 h -3.42407 v -2.17895 q -0.45776,0.31128 -1.24512,0.8789 -0.76904,0.54932 -1.50146,0.87891 -0.8606,0.42114 -1.97754,0.6958 -1.11695,0.29297 -2.61841,0.29297 -2.76489,0 -4.6875,-1.83105 -1.92261,-1.83106 -1.92261,-4.66919 0,-2.32544 0.98877,-3.75367 1.00708,-1.44653 2.85645,-2.2705 1.86767,-0.82398 4.48608,-1.11695 2.61841,-0.29297 5.62134,-0.43945 v -0.53101 q 0,-1.17187 -0.42114,-1.94091 -0.40284,-0.76905 -1.17188,-1.2085 -0.73242,-0.42114 -1.75781,-0.56763 -1.02539,-0.14648 -2.14234,-0.14648 -1.35498,0 -3.02124,0.36621 -1.66626,0.3479 -3.44238,1.02539 h -0.1831 v -3.49731 q 1.00708,-0.27466 2.91137,-0.60425 1.9043,-0.32959 3.75367,-0.32959 2.16064,0 3.75366,0.36621 1.61133,0.3479 2.7832,1.20849 1.15357,0.84229 1.75781,2.17896 0.60425,1.33667 0.60425,3.31421 z m -3.42407,-5.0354 v -5.69458 q -1.57471,0.0916 -3.71704,0.27466 -2.12403,0.18311 -3.36914,0.53101 -1.48316,0.42114 -2.39868,1.31836 -0.91553,0.8789 -0.91553,2.4353 0,1.75781 1.06201,2.65503 1.06201,0.8789 3.24097,0.8789 1.81274,0 3.31421,-0.6958 1.50146,-0.71411 2.7832,-1.70288 z"
             style="font-style:normal;font-weight:normal;font-size:medium;line-height:9.375px;font-family:sans-serif;letter-spacing:0px;word-spacing:0px;fill:#4d4d4d;fill-opacity:1;stroke:none;stroke-width:0.9375"
             id="path4590"
             inkscape:connector-curvature="0" />
          <path
             d="m 869.00907,837.90472 q 0,5.2002 -2.36206,7.6355 -2.36207,2.4353 -7.26929,2.4353 -1.62964,0 -3.18604,-0.23803 -1.53808,-0.21973 -3.03955,-0.64087 v -3.51563 h 0.18311 q 0.84228,0.32959 2.67334,0.80567 1.83105,0.49438 3.66211,0.49438 1.75781,0 2.91137,-0.42114 1.15357,-0.42114 1.79444,-1.17188 0.64087,-0.71411 0.91552,-1.72119 0.27466,-1.00708 0.27466,-2.25219 v -1.86768 q -1.55639,1.24512 -2.98462,1.86768 -1.40991,0.60424 -3.60717,0.60424 -3.66211,0 -5.82276,-2.63671 -2.14233,-2.65503 -2.14233,-7.47071 0,-2.63672 0.73242,-4.54101 0.75073,-1.92261 2.03247,-3.31421 1.19019,-1.30005 2.89307,-2.01416 1.70288,-0.73242 3.38745,-0.73242 1.77612,0 2.96631,0.36621 1.20849,0.3479 2.54516,1.08032 l 0.21973,-0.87891 h 3.22266 z m -3.44239,-3.29589 V 823.4577 q -1.37329,-0.62256 -2.56347,-0.8789 -1.17188,-0.27466 -2.34375,-0.27466 -2.83814,0 -4.46778,1.9043 -1.62964,1.90429 -1.62964,5.52978 0,3.44238 1.2085,5.21851 1.2085,1.77612 4.01001,1.77612 1.50146,0 3.00293,-0.56763 1.51978,-0.58594 2.7832,-1.55639 z"
             style="font-style:normal;font-weight:normal;font-size:medium;line-height:9.375px;font-family:sans-serif;letter-spacing:0px;word-spacing:0px;fill:#4d4d4d;fill-opacity:1;stroke:none;stroke-width:0.9375"
             id="path4592"
             inkscape:connector-curvature="0" />
          <path
             d="m 891.67752,840.23016 h -3.42407 v -2.17895 q -0.45776,0.31128 -1.24512,0.8789 -0.76904,0.54932 -1.50146,0.87891 -0.8606,0.42114 -1.97754,0.6958 -1.11694,0.29297 -2.61841,0.29297 -2.76489,0 -4.6875,-1.83105 -1.92261,-1.83106 -1.92261,-4.66919 0,-2.32544 0.98877,-3.75367 1.00708,-1.44653 2.85645,-2.2705 1.86767,-0.82398 4.48608,-1.11695 2.61841,-0.29297 5.62134,-0.43945 v -0.53101 q 0,-1.17187 -0.42114,-1.94091 -0.40283,-0.76905 -1.17188,-1.2085 -0.73242,-0.42114 -1.75781,-0.56763 -1.02539,-0.14648 -2.14233,-0.14648 -1.35498,0 -3.02124,0.36621 -1.66626,0.3479 -3.44239,1.02539 h -0.1831 v -3.49731 q 1.00708,-0.27466 2.91137,-0.60425 1.9043,-0.32959 3.75367,-0.32959 2.16064,0 3.75366,0.36621 1.61133,0.3479 2.7832,1.20849 1.15357,0.84229 1.75781,2.17896 0.60425,1.33667 0.60425,3.31421 z m -3.42407,-5.0354 v -5.69458 q -1.57471,0.0916 -3.71704,0.27466 -2.12402,0.18311 -3.36914,0.53101 -1.48316,0.42114 -2.39868,1.31836 -0.91553,0.8789 -0.91553,2.4353 0,1.75781 1.06201,2.65503 1.06201,0.8789 3.24097,0.8789 1.81274,0 3.31421,-0.6958 1.50146,-0.71411 2.7832,-1.70288 z"
             style="font-style:normal;font-weight:normal;font-size:medium;line-height:9.375px;font-family:sans-serif;letter-spacing:0px;word-spacing:0px;fill:#4d4d4d;fill-opacity:1;stroke:none;stroke-width:0.9375"
             id="path4594"
             inkscape:connector-curvature="0" />
          <path
             d="m 902.04129,816.35321 h -3.88183 v -3.57056 h 3.88183 z m -0.21972,23.87695 h -3.44239 v -20.45288 h 3.44239 z"
             style="font-style:normal;font-weight:normal;font-size:medium;line-height:9.375px;font-family:sans-serif;letter-spacing:0px;word-spacing:0px;fill:#4d4d4d;fill-opacity:1;stroke:none;stroke-width:0.9375"
             id="path4596"
             inkscape:connector-curvature="0" />
        </g>
        <g
           id="g4777"
           transform="matrix(0.58095611,0,0,0.58095611,-164.85355,55.870645)"
           style="fill:#4d4d4d;fill-opacity:1">
          <path
             d="m 939.81595,821.20551 q 0,1.81274 -0.64087,3.36914 -0.62256,1.53808 -1.75781,2.67334 -1.40991,1.40991 -3.33252,2.12402 -1.92261,0.6958 -4.8523,0.6958 h -3.62548 v 10.16235 h -3.62549 v -27.2644 h 7.39746 q 2.45361,0 4.15649,0.42114 1.70288,0.40283 3.02124,1.28174 1.5564,1.0437 2.39868,2.6001 0.8606,1.55639 0.8606,3.93677 z m -3.77197,0.0915 q 0,-1.40991 -0.49439,-2.45362 -0.49438,-1.0437 -1.50146,-1.70288 -0.87891,-0.56762 -2.01416,-0.80566 -1.11695,-0.25635 -2.83814,-0.25635 h -3.58886 v 10.89478 h 3.05786 q 2.19726,0 3.57055,-0.38452 1.3733,-0.40284 2.23389,-1.26343 0.8606,-0.87891 1.2085,-1.84937 0.36621,-0.97046 0.36621,-2.17895 z"
             style="font-style:normal;font-weight:normal;font-size:medium;line-height:9.375px;font-family:sans-serif;letter-spacing:0px;word-spacing:0px;fill:#4d4d4d;fill-opacity:1;stroke:none;stroke-width:0.9375"
             id="path4598"
             inkscape:connector-curvature="0" />
          <path
             d="m 960.58011,830.36078 h -15.06958 q 0,1.88599 0.56763,3.2959 0.56762,1.3916 1.55639,2.28882 0.95215,0.8789 2.2522,1.31835 1.31836,0.43946 2.89307,0.43946 2.0874,0 4.19311,-0.82398 2.12403,-0.84228 3.02124,-1.64795 h 0.18311 v 3.75367 q -1.7395,0.73242 -3.55225,1.2268 -1.81274,0.49439 -3.80859,0.49439 -5.09033,0 -7.94678,-2.74658 -2.85644,-2.7649 -2.85644,-7.83692 0,-5.01709 2.72827,-7.96509 2.74658,-2.94799 7.21435,-2.94799 4.13819,0 6.37207,2.41699 2.2522,2.41699 2.2522,6.86645 z m -3.35083,-2.63672 q -0.0183,-2.70996 -1.37329,-4.19312 -1.33667,-1.48315 -4.08325,-1.48315 -2.7649,0 -4.41284,1.62964 -1.62964,1.62964 -1.84937,4.04663 z"
             style="font-style:normal;font-weight:normal;font-size:medium;line-height:9.375px;font-family:sans-serif;letter-spacing:0px;word-spacing:0px;fill:#4d4d4d;fill-opacity:1;stroke:none;stroke-width:0.9375"
             id="path4600"
             inkscape:connector-curvature="0" />
          <path
             d="m 995.64481,840.23016 h -3.44238 v -11.6455 q 0,-1.31836 -0.12818,-2.54517 -0.10986,-1.22681 -0.49438,-1.95923 -0.42115,-0.78735 -1.2085,-1.19018 -0.78735,-0.40284 -2.27051,-0.40284 -1.44653,0 -2.89306,0.73243 -1.44654,0.71411 -2.89307,1.83105 0.0549,0.42114 0.0915,0.98877 0.0366,0.54932 0.0366,1.09863 v 13.09204 h -3.44238 v -11.6455 q 0,-1.35498 -0.12817,-2.56348 -0.10987,-1.22681 -0.49439,-1.95923 -0.42114,-0.78735 -1.20849,-1.17187 -0.78736,-0.40284 -2.27051,-0.40284 -1.40991,0 -2.83814,0.6958 -1.40991,0.69581 -2.81982,1.77613 v 15.27099 h -3.44238 v -20.45288 h 3.44238 v 2.27051 q 1.61133,-1.33667 3.20434,-2.0874 1.61133,-0.75073 3.42408,-0.75073 2.0874,0 3.53393,0.8789 1.46485,0.87891 2.17896,2.4353 2.0874,-1.75781 3.80859,-2.52685 1.72119,-0.78735 3.68042,-0.78735 3.36914,0 4.96216,2.05078 1.61133,2.03247 1.61133,5.69458 z"
             style="font-style:normal;font-weight:normal;font-size:medium;line-height:9.375px;font-family:sans-serif;letter-spacing:0px;word-spacing:0px;fill:#4d4d4d;fill-opacity:1;stroke:none;stroke-width:0.9375"
             id="path4602"
             inkscape:connector-curvature="0" />
          <path
             d="m 1020.2725,829.84808 q 0,2.56348 -0.7324,4.61426 -0.7141,2.05078 -1.9409,3.44238 -1.3001,1.44654 -2.8565,2.17896 -1.5564,0.71411 -3.4241,0.71411 -1.7395,0 -3.0395,-0.42114 -1.3001,-0.40283 -2.5635,-1.09863 l -0.2197,0.95214 h -3.2227 v -28.49121 h 3.4424 v 10.18067 q 1.4465,-1.19019 3.0762,-1.94092 1.6296,-0.76904 3.6621,-0.76904 3.6255,0 5.7129,2.7832 2.1057,2.7832 2.1057,7.85522 z m -3.5523,0.0916 q 0,-3.66211 -1.2084,-5.5481 -1.2085,-1.9043 -3.9002,-1.9043 -1.5015,0 -3.0395,0.65918 -1.5381,0.64087 -2.8565,1.66626 v 11.71875 q 1.4649,0.65918 2.5086,0.91553 1.062,0.25635 2.3986,0.25635 2.8565,0 4.4678,-1.86768 1.6296,-1.88598 1.6296,-5.89599 z"
             style="font-style:normal;font-weight:normal;font-size:medium;line-height:9.375px;font-family:sans-serif;letter-spacing:0px;word-spacing:0px;fill:#4d4d4d;fill-opacity:1;stroke:none;stroke-width:0.9375"
             id="path4604"
             inkscape:connector-curvature="0" />
          <path
             d="m 1029.3362,816.35321 h -3.8818 v -3.57056 h 3.8818 z m -0.2197,23.87695 h -3.4424 v -20.45288 h 3.4424 z"
             style="font-style:normal;font-weight:normal;font-size:medium;line-height:9.375px;font-family:sans-serif;letter-spacing:0px;word-spacing:0px;fill:#4d4d4d;fill-opacity:1;stroke:none;stroke-width:0.9375"
             id="path4606"
             inkscape:connector-curvature="0" />
          <path
             d="m 1050.9427,838.94843 q -1.7212,0.82397 -3.2776,1.28173 -1.5381,0.45777 -3.2776,0.45777 -2.2156,0 -4.065,-0.64087 -1.8493,-0.65918 -3.1677,-1.97754 -1.3367,-1.31836 -2.0691,-3.33252 -0.7324,-2.01416 -0.7324,-4.70581 0,-5.01709 2.7466,-7.87354 2.7649,-2.85644 7.2876,-2.85644 1.7578,0 3.4424,0.49438 1.7028,0.49439 3.1128,1.2085 v 3.8269 h -0.1831 q -1.5748,-1.2268 -3.2593,-1.88598 -1.6663,-0.65918 -3.2593,-0.65918 -2.9297,0 -4.6326,1.97754 -1.6845,1.95923 -1.6845,5.76782 0,3.69873 1.6479,5.69458 1.6663,1.97754 4.6692,1.97754 1.0437,0 2.124,-0.27466 1.0803,-0.27466 1.9409,-0.71411 0.7508,-0.38452 1.41,-0.80567 0.6591,-0.43945 1.0437,-0.75073 h 0.1831 z"
             style="font-style:normal;font-weight:normal;font-size:medium;line-height:9.375px;font-family:sans-serif;letter-spacing:0px;word-spacing:0px;fill:#4d4d4d;fill-opacity:1;stroke:none;stroke-width:0.9375"
             id="path4608"
             inkscape:connector-curvature="0" />
          <path
             d="m 1071.2674,840.23016 h -3.4241 v -2.17895 q -0.4578,0.31128 -1.2451,0.8789 -0.7691,0.54932 -1.5015,0.87891 -0.8606,0.42114 -1.9775,0.6958 -1.117,0.29297 -2.6184,0.29297 -2.7649,0 -4.6875,-1.83105 -1.9226,-1.83106 -1.9226,-4.66919 0,-2.32544 0.9887,-3.75367 1.0071,-1.44653 2.8565,-2.2705 1.8676,-0.82398 4.4861,-1.11695 2.6184,-0.29297 5.6213,-0.43945 v -0.53101 q 0,-1.17187 -0.4211,-1.94091 -0.4029,-0.76905 -1.1719,-1.2085 -0.7324,-0.42114 -1.7578,-0.56763 -1.0254,-0.14648 -2.1424,-0.14648 -1.355,0 -3.0212,0.36621 -1.6663,0.3479 -3.4424,1.02539 h -0.1831 v -3.49731 q 1.0071,-0.27466 2.9114,-0.60425 1.9043,-0.32959 3.7536,-0.32959 2.1607,0 3.7537,0.36621 1.6113,0.3479 2.7832,1.20849 1.1536,0.84229 1.7578,2.17896 0.6043,1.33667 0.6043,3.31421 z m -3.4241,-5.0354 v -5.69458 q -1.5747,0.0916 -3.717,0.27466 -2.1241,0.18311 -3.3692,0.53101 -1.4831,0.42114 -2.3987,1.31836 -0.9155,0.8789 -0.9155,2.4353 0,1.75781 1.062,2.65503 1.062,0.8789 3.241,0.8789 1.8127,0 3.3142,-0.6958 1.5015,-0.71411 2.7832,-1.70288 z"
             style="font-style:normal;font-weight:normal;font-size:medium;line-height:9.375px;font-family:sans-serif;letter-spacing:0px;word-spacing:0px;fill:#4d4d4d;fill-opacity:1;stroke:none;stroke-width:0.9375"
             id="path4610"
             inkscape:connector-curvature="0" />
          <path
             d="m 1090.6949,823.53094 h -0.1831 q -0.7691,-0.1831 -1.5015,-0.25634 -0.7141,-0.0916 -1.7029,-0.0916 -1.593,0 -3.0762,0.71412 -1.4831,0.6958 -2.8564,1.81274 v 14.52026 h -3.4424 v -20.45288 h 3.4424 v 3.02124 q 2.0508,-1.64795 3.6072,-2.32544 1.5747,-0.6958 3.2043,-0.6958 0.8972,0 1.3001,0.0549 0.4028,0.0366 1.2085,0.1648 z"
             style="font-style:normal;font-weight:normal;font-size:medium;line-height:9.375px;font-family:sans-serif;letter-spacing:0px;word-spacing:0px;fill:#4d4d4d;fill-opacity:1;stroke:none;stroke-width:0.9375"
             id="path4612"
             inkscape:connector-curvature="0" />
          <path
             d="m 1109.2068,840.23016 h -3.4241 v -2.17895 q -0.4577,0.31128 -1.2451,0.8789 -0.769,0.54932 -1.5014,0.87891 -0.8606,0.42114 -1.9776,0.6958 -1.1169,0.29297 -2.6184,0.29297 -2.7649,0 -4.6875,-1.83105 -1.9226,-1.83106 -1.9226,-4.66919 0,-2.32544 0.9888,-3.75367 1.0071,-1.44653 2.8564,-2.2705 1.8677,-0.82398 4.4861,-1.11695 2.6184,-0.29297 5.6213,-0.43945 v -0.53101 q 0,-1.17187 -0.4211,-1.94091 -0.4028,-0.76905 -1.1719,-1.2085 -0.7324,-0.42114 -1.7578,-0.56763 -1.0254,-0.14648 -2.1423,-0.14648 -1.355,0 -3.0213,0.36621 -1.6662,0.3479 -3.4423,1.02539 h -0.1831 v -3.49731 q 1.007,-0.27466 2.9113,-0.60425 1.9043,-0.32959 3.7537,-0.32959 2.1606,0 3.7537,0.36621 1.6113,0.3479 2.7832,1.20849 1.1535,0.84229 1.7578,2.17896 0.6042,1.33667 0.6042,3.31421 z m -3.4241,-5.0354 v -5.69458 q -1.5747,0.0916 -3.717,0.27466 -2.124,0.18311 -3.3691,0.53101 -1.4832,0.42114 -2.3987,1.31836 -0.9155,0.8789 -0.9155,2.4353 0,1.75781 1.062,2.65503 1.062,0.8789 3.2409,0.8789 1.8128,0 3.3142,-0.6958 1.5015,-0.71411 2.7832,-1.70288 z"
             style="font-style:normal;font-weight:normal;font-size:medium;line-height:9.375px;font-family:sans-serif;letter-spacing:0px;word-spacing:0px;fill:#4d4d4d;fill-opacity:1;stroke:none;stroke-width:0.9375"
             id="path4614"
             inkscape:connector-curvature="0" />
        </g>
      </g>
      <text
         id="text4808"
         y="631.2041"
         x="259.00098"
         style="font-style:normal;font-weight:normal;font-size:35.7716713px;line-height:8.94291782px;font-family:sans-serif;letter-spacing:0px;word-spacing:0px;fill:#62aa41;fill-opacity:1;stroke:none;stroke-width:0.89429182"
         xml:space="preserve"><tspan
           style="fill:#62aa41;fill-opacity:1;stroke-width:0.89429182"
           y="631.2041"
           x="259.00098"
           id="tspan4806"
           sodipodi:role="line">Ahmad Haris</tspan></text>
      <text
         id="text138"
         y="695.40607"
         x="371.79575"
         style="font-style:normal;font-variant:normal;font-weight:normal;font-stretch:normal;font-size:12.49343204px;line-height:0%;font-family:'Century Gothic';-inkscape-font-specification:'Century Gothic, Normal';font-variant-ligatures:normal;font-variant-caps:normal;font-variant-numeric:normal;font-feature-settings:normal;text-align:center;letter-spacing:0px;word-spacing:0px;writing-mode:lr-tb;text-anchor:middle;fill:#4d4d4d;fill-opacity:1;stroke:none;stroke-width:0.31233576px;stroke-linecap:butt;stroke-linejoin:miter;stroke-opacity:1"
         xml:space="preserve"><tspan
           style="font-weight:bold;text-align:center;text-anchor:middle;fill:#4d4d4d;fill-opacity:1;stroke-width:0.31233576px"
           y="695.40607"
           x="371.79575"
           id="tspan136"
           sodipodi:role="line">Semarang, 13 Mei 2017</tspan></text>
      <text
         id="text343"
         y="715.20398"
         x="372.85345"
         style="font-style:normal;font-variant:normal;font-weight:normal;font-stretch:normal;font-size:15.69212055px;line-height:0%;font-family:'Century Gothic';-inkscape-font-specification:'Century Gothic, Normal';font-variant-ligatures:normal;font-variant-caps:normal;font-variant-numeric:normal;font-feature-settings:normal;text-align:center;letter-spacing:0px;word-spacing:0px;writing-mode:lr-tb;text-anchor:middle;fill:#4d4d4d;fill-opacity:1;stroke:none;stroke-width:0.39230302px;stroke-linecap:butt;stroke-linejoin:miter;stroke-opacity:1"
         xml:space="preserve"><tspan
           style="text-align:center;text-anchor:middle;fill:#4d4d4d;fill-opacity:1;stroke-width:0.39230302px"
           y="715.20398"
           x="372.85345"
           id="tspan341"
           sodipodi:role="line">Astoria Ballroom Hotel Dafam</tspan></text>
    </g>
    <g
       id="g633"
       transform="translate(-249.10714)">
      <path
         inkscape:connector-curvature="0"
         id="path398"
         d="m 1099.3563,169.11804 a 196.9176,196.9176 0 0 0 -196.91707,196.91894 196.9176,196.9176 0 0 0 64.31762,145.26124 v 212.55981 h -33.3783 v 47.44629 h -80.39611 v 75.39734 h 493.67986 v -75.39734 h -80.3962 V 723.85803 H 1235.184 V 508.49854 a 196.9176,196.9176 0 0 0 61.0913,-142.46156 196.9176,196.9176 0 0 0 -196.919,-196.91894 z"
         style="opacity:1;fill:#f9f9f9;fill-opacity:1;stroke:#1a1a1a;stroke-width:2.16875052;stroke-miterlimit:4;stroke-dasharray:none;stroke-opacity:1" />
      <circle
         style="fill:#62aa41;fill-opacity:1"
         id="circle400"
         cx="1099.3571"
         cy="366.03656"
         r="157.14285" />
      <g
         id="g404"
         transform="matrix(18.690865,0,0,18.690865,127068.93,-51587.834)"
         style="fill:#ffffff;fill-opacity:1">
        <path
           style="fill:#ffffff;fill-opacity:1;stroke:none"
           d="m -6740.5653,2773.4142 c -1.0399,2.5626 0.3131,2.3818 0.7922,3.4942 0.8686,-1.7885 -0.1483,-2.0645 -0.7922,-3.4942 z m 4.5133,1.1866 c -0.9626,1.5279 -2.8214,1.2709 -3.2478,2.9881 -0.1102,0.4438 -0.1218,1.0186 0,1.7915 v 1.7521 c -0.8201,-2.5691 -3.4792,-2.2915 -5.7032,-4.7172 0.9318,7.5776 3.3797,4.7469 5.7032,8.2245 v 1.407 h 0.2597 v -6.571 c 1.1718,-1.1776 3.5972,-1.1514 2.9881,-4.875 z"
           id="path402"
           inkscape:connector-curvature="0" />
      </g>
      <text
         xml:space="preserve"
         style="font-style:normal;font-weight:normal;font-size:44.99132156px;line-height:125%;font-family:sans-serif;letter-spacing:0px;word-spacing:0px;fill:#62aa41;fill-opacity:1;stroke:none;stroke-width:1.3121078px;stroke-linecap:butt;stroke-linejoin:miter;stroke-opacity:1"
         x="945.62915"
         y="766.4317"
         id="text408"><tspan
           sodipodi:role="line"
           id="tspan406"
           x="945.62915"
           y="766.4317"
           style="font-style:normal;font-variant:normal;font-weight:normal;font-stretch:normal;font-family:Montserrat;-inkscape-font-specification:Montserrat;fill:#62aa41;fill-opacity:1;stroke-width:1.3121078px">Release Party</tspan></text>
      <text
         xml:space="preserve"
         style="font-style:normal;font-weight:normal;font-size:60.58726883px;line-height:125%;font-family:sans-serif;letter-spacing:0px;word-spacing:0px;fill:#62aa41;fill-opacity:1;stroke:none;stroke-width:1.19321501px;stroke-linecap:butt;stroke-linejoin:miter;stroke-opacity:1"
         x="869.23566"
         y="829.91412"
         id="text412"><tspan
           sodipodi:role="line"
           id="tspan410"
           x="869.23566"
           y="829.91412"
           style="font-style:normal;font-variant:normal;font-weight:bold;font-stretch:normal;font-family:Montserrat;-inkscape-font-specification:'Montserrat Bold';fill:#62aa41;fill-opacity:1;stroke-width:1.19321501px">TeaLinuxOS 9</tspan></text>
      <g
         id="g436"
         transform="matrix(0.62307011,0,0,0.62307011,1037.2415,65.116052)"
         style="fill:#4d4d4d">
        <path
           d="m 7.9555988,816.18842 h -9.7412109 v 24.04174 h -3.6254883 v -24.04174 h -9.7412106 v -3.22266 H 7.9555988 Z"
           style="font-style:normal;font-weight:normal;font-size:medium;line-height:9.375px;font-family:sans-serif;letter-spacing:0px;word-spacing:0px;fill:#4d4d4d;fill-opacity:1;stroke:none;stroke-width:0.9375"
           id="path414"
           inkscape:connector-curvature="0" />
        <path
           d="M 24.471712,830.36078 H 9.402132 q 0,1.88599 0.567627,3.2959 0.567627,1.3916 1.556396,2.28882 0.952149,0.8789 2.252198,1.31835 1.318359,0.43946 2.893066,0.43946 2.087402,0 4.193115,-0.82398 2.124024,-0.84228 3.021241,-1.64795 h 0.183105 v 3.75367 q -1.739502,0.73242 -3.552246,1.2268 -1.812744,0.49439 -3.808594,0.49439 -5.090332,0 -7.9467771,-2.74658 -2.8564453,-2.7649 -2.8564453,-7.83692 0,-5.01709 2.7282715,-7.96509 2.7465819,-2.94799 7.2143559,-2.94799 4.138183,0 6.37207,2.41699 2.252197,2.41699 2.252197,6.86645 z m -3.35083,-2.63672 q -0.01831,-2.70996 -1.373291,-4.19312 -1.33667,-1.48315 -4.083252,-1.48315 -2.764893,0 -4.412842,1.62964 -1.6296384,1.62964 -1.849365,4.04663 z"
           style="font-style:normal;font-weight:normal;font-size:medium;line-height:9.375px;font-family:sans-serif;letter-spacing:0px;word-spacing:0px;fill:#4d4d4d;fill-opacity:1;stroke:none;stroke-width:0.9375"
           id="path416"
           inkscape:connector-curvature="0" />
        <path
           d="m 42.452669,823.53094 h -0.183105 q -0.769043,-0.1831 -1.501465,-0.25634 -0.714111,-0.0916 -1.702881,-0.0916 -1.593018,0 -3.076172,0.71412 -1.483154,0.6958 -2.856445,1.81274 v 14.52026 h -3.442383 v -20.45288 h 3.442383 v 3.02124 q 2.050781,-1.64795 3.607178,-2.32544 1.574707,-0.6958 3.204345,-0.6958 0.897217,0 1.300049,0.0549 0.402832,0.0366 1.208496,0.1648 z"
           style="font-style:normal;font-weight:normal;font-size:medium;line-height:9.375px;font-family:sans-serif;letter-spacing:0px;word-spacing:0px;fill:#4d4d4d;fill-opacity:1;stroke:none;stroke-width:0.9375"
           id="path418"
           inkscape:connector-curvature="0" />
        <path
           d="m 49.428988,816.35321 h -3.881836 v -3.57056 h 3.881836 z m -0.219727,23.87695 h -3.442383 v -20.45288 h 3.442383 z"
           style="font-style:normal;font-weight:normal;font-size:medium;line-height:9.375px;font-family:sans-serif;letter-spacing:0px;word-spacing:0px;fill:#4d4d4d;fill-opacity:1;stroke:none;stroke-width:0.9375"
           id="path420"
           inkscape:connector-curvature="0" />
        <path
           d="M 85.757113,840.23016 H 82.31473 v -11.6455 q 0,-1.31836 -0.128174,-2.54517 -0.109863,-1.22681 -0.494385,-1.95923 -0.421142,-0.78735 -1.208496,-1.19018 -0.787354,-0.40284 -2.270508,-0.40284 -1.446533,0 -2.893066,0.73243 -1.446533,0.71411 -2.893067,1.83105 0.05493,0.42114 0.09155,0.98877 0.03662,0.54932 0.03662,1.09863 v 13.09204 h -3.442383 v -11.6455 q 0,-1.35498 -0.128173,-2.56348 -0.109864,-1.22681 -0.494385,-1.95923 -0.421143,-0.78735 -1.208496,-1.17187 -0.787354,-0.40284 -2.270508,-0.40284 -1.409912,0 -2.838135,0.6958 -1.409912,0.69581 -2.819824,1.77613 v 15.27099 H 55.910917 V 819.77728 H 59.3533 v 2.27051 q 1.611328,-1.33667 3.204346,-2.0874 1.611328,-0.75073 3.424072,-0.75073 2.087402,0 3.533935,0.8789 1.464844,0.87891 2.178956,2.4353 2.087402,-1.75781 3.808593,-2.52685 1.721192,-0.78735 3.68042,-0.78735 3.369141,0 4.962158,2.05078 1.611329,2.03247 1.611329,5.69458 z"
           style="font-style:normal;font-weight:normal;font-size:medium;line-height:9.375px;font-family:sans-serif;letter-spacing:0px;word-spacing:0px;fill:#4d4d4d;fill-opacity:1;stroke:none;stroke-width:0.9375"
           id="path422"
           inkscape:connector-curvature="0" />
        <path
           d="m 108.27909,840.23016 h -3.42408 v -2.17895 q -0.45776,0.31128 -1.24511,0.8789 -0.76905,0.54932 -1.50147,0.87891 -0.86059,0.42114 -1.97754,0.6958 -1.116942,0.29297 -2.618406,0.29297 -2.764893,0 -4.6875,-1.83105 -1.922608,-1.83106 -1.922608,-4.66919 0,-2.32544 0.98877,-3.75367 1.00708,-1.44653 2.856445,-2.2705 1.867676,-0.82398 4.486084,-1.11695 2.618405,-0.29297 5.621335,-0.43945 v -0.53101 q 0,-1.17187 -0.42114,-1.94091 -0.40283,-0.76905 -1.17187,-1.2085 -0.73243,-0.42114 -1.75782,-0.56763 -1.02539,-0.14648 -2.142331,-0.14648 -1.354981,0 -3.02124,0.36621 -1.66626,0.3479 -3.442383,1.02539 H 92.71512 v -3.49731 q 1.00708,-0.27466 2.911377,-0.60425 1.904297,-0.32959 3.753662,-0.32959 2.160641,0 3.753661,0.36621 1.61133,0.3479 2.7832,1.20849 1.15357,0.84229 1.75782,2.17896 0.60425,1.33667 0.60425,3.31421 z m -3.42408,-5.0354 v -5.69458 q -1.5747,0.0916 -3.71704,0.27466 -2.124022,0.18311 -3.369139,0.53101 -1.483154,0.42114 -2.398681,1.31836 -0.915528,0.8789 -0.915528,2.4353 0,1.75781 1.062012,2.65503 1.062012,0.8789 3.240967,0.8789 1.812739,0 3.314209,-0.6958 1.50146,-0.71411 2.7832,-1.70288 z"
           style="font-style:normal;font-weight:normal;font-size:medium;line-height:9.375px;font-family:sans-serif;letter-spacing:0px;word-spacing:0px;fill:#4d4d4d;fill-opacity:1;stroke:none;stroke-width:0.9375"
           id="path424"
           inkscape:connector-curvature="0" />
        <path
           d="m 146.69461,840.23016 h -4.54101 l -8.20313,-8.95385 -2.23388,2.12402 v 6.82983 h -3.44239 v -28.49121 h 3.44239 v 18.27393 l 9.94262,-10.2356 h 4.3396 l -9.50317,9.44824 z"
           style="font-style:normal;font-weight:normal;font-size:medium;line-height:9.375px;font-family:sans-serif;letter-spacing:0px;word-spacing:0px;fill:#4d4d4d;fill-opacity:1;stroke:none;stroke-width:0.9375"
           id="path426"
           inkscape:connector-curvature="0" />
        <path
           d="m 166.21366,840.23016 h -3.42408 v -2.17895 q -0.45776,0.31128 -1.24511,0.8789 -0.76905,0.54932 -1.50147,0.87891 -0.86059,0.42114 -1.97754,0.6958 -1.11694,0.29297 -2.61841,0.29297 -2.76489,0 -4.6875,-1.83105 -1.9226,-1.83106 -1.9226,-4.66919 0,-2.32544 0.98877,-3.75367 1.00708,-1.44653 2.85644,-2.2705 1.86768,-0.82398 4.48609,-1.11695 2.6184,-0.29297 5.62133,-0.43945 v -0.53101 q 0,-1.17187 -0.42114,-1.94091 -0.40283,-0.76905 -1.17187,-1.2085 -0.73243,-0.42114 -1.75782,-0.56763 -1.02539,-0.14648 -2.14233,-0.14648 -1.35498,0 -3.02124,0.36621 -1.66626,0.3479 -3.44238,1.02539 h -0.18311 v -3.49731 q 1.00708,-0.27466 2.91138,-0.60425 1.90429,-0.32959 3.75366,-0.32959 2.16064,0 3.75366,0.36621 1.61133,0.3479 2.7832,1.20849 1.15357,0.84229 1.75782,2.17896 0.60425,1.33667 0.60425,3.31421 z m -3.42408,-5.0354 v -5.69458 q -1.5747,0.0916 -3.71704,0.27466 -2.12402,0.18311 -3.36914,0.53101 -1.48315,0.42114 -2.39868,1.31836 -0.91553,0.8789 -0.91553,2.4353 0,1.75781 1.06201,2.65503 1.06202,0.8789 3.24097,0.8789 1.81275,0 3.31421,-0.6958 1.50146,-0.71411 2.7832,-1.70288 z"
           style="font-style:normal;font-weight:normal;font-size:medium;line-height:9.375px;font-family:sans-serif;letter-spacing:0px;word-spacing:0px;fill:#4d4d4d;fill-opacity:1;stroke:none;stroke-width:0.9375"
           id="path428"
           inkscape:connector-curvature="0" />
        <path
           d="m 187.49051,834.33417 q 0,2.80151 -2.32544,4.59594 -2.30713,1.79444 -6.31714,1.79444 -2.2705,0 -4.1748,-0.53101 -1.88599,-0.54931 -3.16773,-1.19018 v -3.86353 h 0.18311 q 1.62964,1.22681 3.62549,1.95923 1.99585,0.71411 3.8269,0.71411 2.27051,0 3.55225,-0.73242 1.28174,-0.73242 1.28174,-2.30713 0,-1.2085 -0.6958,-1.83105 -0.69581,-0.62256 -2.67334,-1.06202 -0.73243,-0.16479 -1.92261,-0.38452 -1.17188,-0.21972 -2.14234,-0.47607 -2.69165,-0.71411 -3.8269,-2.0874 -1.11694,-1.39161 -1.11694,-3.40577 0,-1.26342 0.51269,-2.38037 0.53101,-1.11694 1.59302,-1.99585 1.02539,-0.86059 2.6001,-1.35498 1.59301,-0.51269 3.55224,-0.51269 1.83106,0 3.69873,0.45776 1.88599,0.43945 3.13111,1.08032 v 3.68042 h -0.18311 q -1.31836,-0.97046 -3.20434,-1.62963 -1.88599,-0.6775 -3.69873,-0.6775 -1.88599,0 -3.18604,0.73243 -1.30005,0.71411 -1.30005,2.14233 0,1.26343 0.78735,1.9043 0.76905,0.64087 2.49024,1.0437 0.95215,0.21973 2.12402,0.43945 1.19019,0.21973 1.97754,0.40283 2.39868,0.54932 3.69873,1.88599 1.30005,1.35498 1.30005,3.58887 z"
           style="font-style:normal;font-weight:normal;font-size:medium;line-height:9.375px;font-family:sans-serif;letter-spacing:0px;word-spacing:0px;fill:#4d4d4d;fill-opacity:1;stroke:none;stroke-width:0.9375"
           id="path430"
           inkscape:connector-curvature="0" />
        <path
           d="m 196.13309,816.35321 h -3.88184 v -3.57056 h 3.88184 z m -0.21973,23.87695 h -3.44238 v -20.45288 h 3.44238 z"
           style="font-style:normal;font-weight:normal;font-size:medium;line-height:9.375px;font-family:sans-serif;letter-spacing:0px;word-spacing:0px;fill:#4d4d4d;fill-opacity:1;stroke:none;stroke-width:0.9375"
           id="path432"
           inkscape:connector-curvature="0" />
        <path
           d="m 219.71707,840.23016 h -3.44238 v -11.6455 q 0,-1.40992 -0.16479,-2.63672 -0.1648,-1.24512 -0.60425,-1.94092 -0.45777,-0.76904 -1.31836,-1.13525 -0.8606,-0.38453 -2.23389,-0.38453 -1.40991,0 -2.948,0.6958 -1.53808,0.69581 -2.94799,1.77613 v 15.27099 h -3.44239 v -28.49121 h 3.44239 v 10.30884 q 1.61132,-1.33667 3.33252,-2.0874 1.72119,-0.75073 3.53393,-0.75073 3.31421,0 5.05371,1.99585 1.7395,1.99584 1.7395,5.74951 z"
           style="font-style:normal;font-weight:normal;font-size:medium;line-height:9.375px;font-family:sans-serif;letter-spacing:0px;word-spacing:0px;fill:#4d4d4d;fill-opacity:1;stroke:none;stroke-width:0.9375"
           id="path434"
           inkscape:connector-curvature="0" />
      </g>
      <g
         id="g474"
         transform="translate(727.30983,119.32429)">
        <g
           style="fill:#4d4d4d;fill-opacity:1"
           transform="matrix(0.58095611,0,0,0.58095611,-164.85355,55.870645)"
           id="g452">
          <path
             inkscape:connector-curvature="0"
             id="path438"
             style="font-style:normal;font-weight:normal;font-size:medium;line-height:9.375px;font-family:sans-serif;letter-spacing:0px;word-spacing:0px;fill:#4d4d4d;fill-opacity:1;stroke:none;stroke-width:0.9375"
             d="m 778.6099,832.44818 q 0,1.59302 -0.75074,3.14942 -0.73242,1.55639 -2.06909,2.63671 -1.46484,1.17188 -3.42407,1.83106 -1.94092,0.65918 -4.6875,0.65918 -2.948,0 -5.31006,-0.54932 -2.34375,-0.54931 -4.77905,-1.62964 v -4.54101 h 0.25635 q 2.06909,1.72119 4.77905,2.65503 2.70996,0.93383 5.09033,0.93383 3.36914,0 5.23682,-1.26342 1.88598,-1.26343 1.88598,-3.36914 0,-1.81275 -0.89721,-2.67334 -0.87891,-0.8606 -2.69165,-1.33667 -1.3733,-0.36621 -2.98462,-0.60425 -1.59302,-0.23804 -3.38745,-0.60425 -3.62549,-0.76904 -5.38331,-2.61841 -1.7395,-1.86767 -1.7395,-4.85229 0,-3.42407 2.89307,-5.60303 2.89307,-2.19727 7.34253,-2.19727 2.87475,0 5.27344,0.54932 2.39868,0.54932 4.24804,1.35498 v 4.28467 h -0.25634 q -1.5564,-1.31836 -4.10157,-2.17896 -2.52685,-0.8789 -5.18188,-0.8789 -2.91138,0 -4.6875,1.20849 -1.75781,1.2085 -1.75781,3.1128 0,1.70288 0.8789,2.67334 0.87891,0.97046 3.09448,1.48315 1.17188,0.25635 3.33252,0.62256 2.16065,0.36621 3.66211,0.75073 3.03955,0.80567 4.57764,2.4353 1.53809,1.62964 1.53809,4.55933 z" />
          <path
             inkscape:connector-curvature="0"
             id="path440"
             style="font-style:normal;font-weight:normal;font-size:medium;line-height:9.375px;font-family:sans-serif;letter-spacing:0px;word-spacing:0px;fill:#4d4d4d;fill-opacity:1;stroke:none;stroke-width:0.9375"
             d="m 801.27835,830.36078 h -15.06958 q 0,1.88599 0.56763,3.2959 0.56763,1.3916 1.5564,2.28882 0.95214,0.8789 2.25219,1.31835 1.31836,0.43946 2.89307,0.43946 2.0874,0 4.19312,-0.82398 2.12402,-0.84228 3.02124,-1.64795 h 0.1831 v 3.75367 q -1.7395,0.73242 -3.55225,1.2268 -1.81274,0.49439 -3.80859,0.49439 -5.09033,0 -7.94678,-2.74658 -2.85644,-2.7649 -2.85644,-7.83692 0,-5.01709 2.72827,-7.96509 2.74658,-2.94799 7.21436,-2.94799 4.13818,0 6.37207,2.41699 2.25219,2.41699 2.25219,6.86645 z m -3.35083,-2.63672 q -0.0183,-2.70996 -1.37329,-4.19312 -1.33667,-1.48315 -4.08325,-1.48315 -2.76489,0 -4.41284,1.62964 -1.62964,1.62964 -1.84937,4.04663 z" />
          <path
             inkscape:connector-curvature="0"
             id="path442"
             style="font-style:normal;font-weight:normal;font-size:medium;line-height:9.375px;font-family:sans-serif;letter-spacing:0px;word-spacing:0px;fill:#4d4d4d;fill-opacity:1;stroke:none;stroke-width:0.9375"
             d="m 824.49613,829.84808 q 0,2.56348 -0.73243,4.61426 -0.71411,2.05078 -1.94091,3.44238 -1.30005,1.44654 -2.85645,2.17896 -1.5564,0.71411 -3.42407,0.71411 -1.7395,0 -3.03955,-0.42114 -1.30005,-0.40283 -2.56348,-1.09863 l -0.21973,0.95214 h -3.22265 v -28.49121 h 3.44238 v 10.18067 q 1.44653,-1.19019 3.07617,-1.94092 1.62964,-0.76904 3.66211,-0.76904 3.62549,0 5.71289,2.7832 2.10572,2.7832 2.10572,7.85522 z m -3.55225,0.0916 q 0,-3.66211 -1.2085,-5.5481 -1.20849,-1.9043 -3.90014,-1.9043 -1.50147,0 -3.03955,0.65918 -1.53809,0.64087 -2.85645,1.66626 v 11.71875 q 1.46485,0.65918 2.50855,0.91553 1.06201,0.25635 2.39868,0.25635 2.85644,0 4.46777,-1.86768 1.62964,-1.88598 1.62964,-5.89599 z" />
          <path
             inkscape:connector-curvature="0"
             id="path444"
             style="font-style:normal;font-weight:normal;font-size:medium;line-height:9.375px;font-family:sans-serif;letter-spacing:0px;word-spacing:0px;fill:#4d4d4d;fill-opacity:1;stroke:none;stroke-width:0.9375"
             d="m 845.75467,840.23016 h -3.42407 v -2.17895 q -0.45776,0.31128 -1.24512,0.8789 -0.76904,0.54932 -1.50146,0.87891 -0.8606,0.42114 -1.97754,0.6958 -1.11695,0.29297 -2.61841,0.29297 -2.76489,0 -4.6875,-1.83105 -1.92261,-1.83106 -1.92261,-4.66919 0,-2.32544 0.98877,-3.75367 1.00708,-1.44653 2.85645,-2.2705 1.86767,-0.82398 4.48608,-1.11695 2.61841,-0.29297 5.62134,-0.43945 v -0.53101 q 0,-1.17187 -0.42114,-1.94091 -0.40284,-0.76905 -1.17188,-1.2085 -0.73242,-0.42114 -1.75781,-0.56763 -1.02539,-0.14648 -2.14234,-0.14648 -1.35498,0 -3.02124,0.36621 -1.66626,0.3479 -3.44238,1.02539 h -0.1831 v -3.49731 q 1.00708,-0.27466 2.91137,-0.60425 1.9043,-0.32959 3.75367,-0.32959 2.16064,0 3.75366,0.36621 1.61133,0.3479 2.7832,1.20849 1.15357,0.84229 1.75781,2.17896 0.60425,1.33667 0.60425,3.31421 z m -3.42407,-5.0354 v -5.69458 q -1.57471,0.0916 -3.71704,0.27466 -2.12403,0.18311 -3.36914,0.53101 -1.48316,0.42114 -2.39868,1.31836 -0.91553,0.8789 -0.91553,2.4353 0,1.75781 1.06201,2.65503 1.06201,0.8789 3.24097,0.8789 1.81274,0 3.31421,-0.6958 1.50146,-0.71411 2.7832,-1.70288 z" />
          <path
             inkscape:connector-curvature="0"
             id="path446"
             style="font-style:normal;font-weight:normal;font-size:medium;line-height:9.375px;font-family:sans-serif;letter-spacing:0px;word-spacing:0px;fill:#4d4d4d;fill-opacity:1;stroke:none;stroke-width:0.9375"
             d="m 869.00907,837.90472 q 0,5.2002 -2.36206,7.6355 -2.36207,2.4353 -7.26929,2.4353 -1.62964,0 -3.18604,-0.23803 -1.53808,-0.21973 -3.03955,-0.64087 v -3.51563 h 0.18311 q 0.84228,0.32959 2.67334,0.80567 1.83105,0.49438 3.66211,0.49438 1.75781,0 2.91137,-0.42114 1.15357,-0.42114 1.79444,-1.17188 0.64087,-0.71411 0.91552,-1.72119 0.27466,-1.00708 0.27466,-2.25219 v -1.86768 q -1.55639,1.24512 -2.98462,1.86768 -1.40991,0.60424 -3.60717,0.60424 -3.66211,0 -5.82276,-2.63671 -2.14233,-2.65503 -2.14233,-7.47071 0,-2.63672 0.73242,-4.54101 0.75073,-1.92261 2.03247,-3.31421 1.19019,-1.30005 2.89307,-2.01416 1.70288,-0.73242 3.38745,-0.73242 1.77612,0 2.96631,0.36621 1.20849,0.3479 2.54516,1.08032 l 0.21973,-0.87891 h 3.22266 z m -3.44239,-3.29589 V 823.4577 q -1.37329,-0.62256 -2.56347,-0.8789 -1.17188,-0.27466 -2.34375,-0.27466 -2.83814,0 -4.46778,1.9043 -1.62964,1.90429 -1.62964,5.52978 0,3.44238 1.2085,5.21851 1.2085,1.77612 4.01001,1.77612 1.50146,0 3.00293,-0.56763 1.51978,-0.58594 2.7832,-1.55639 z" />
          <path
             inkscape:connector-curvature="0"
             id="path448"
             style="font-style:normal;font-weight:normal;font-size:medium;line-height:9.375px;font-family:sans-serif;letter-spacing:0px;word-spacing:0px;fill:#4d4d4d;fill-opacity:1;stroke:none;stroke-width:0.9375"
             d="m 891.67752,840.23016 h -3.42407 v -2.17895 q -0.45776,0.31128 -1.24512,0.8789 -0.76904,0.54932 -1.50146,0.87891 -0.8606,0.42114 -1.97754,0.6958 -1.11694,0.29297 -2.61841,0.29297 -2.76489,0 -4.6875,-1.83105 -1.92261,-1.83106 -1.92261,-4.66919 0,-2.32544 0.98877,-3.75367 1.00708,-1.44653 2.85645,-2.2705 1.86767,-0.82398 4.48608,-1.11695 2.61841,-0.29297 5.62134,-0.43945 v -0.53101 q 0,-1.17187 -0.42114,-1.94091 -0.40283,-0.76905 -1.17188,-1.2085 -0.73242,-0.42114 -1.75781,-0.56763 -1.02539,-0.14648 -2.14233,-0.14648 -1.35498,0 -3.02124,0.36621 -1.66626,0.3479 -3.44239,1.02539 h -0.1831 v -3.49731 q 1.00708,-0.27466 2.91137,-0.60425 1.9043,-0.32959 3.75367,-0.32959 2.16064,0 3.75366,0.36621 1.61133,0.3479 2.7832,1.20849 1.15357,0.84229 1.75781,2.17896 0.60425,1.33667 0.60425,3.31421 z m -3.42407,-5.0354 v -5.69458 q -1.57471,0.0916 -3.71704,0.27466 -2.12402,0.18311 -3.36914,0.53101 -1.48316,0.42114 -2.39868,1.31836 -0.91553,0.8789 -0.91553,2.4353 0,1.75781 1.06201,2.65503 1.06201,0.8789 3.24097,0.8789 1.81274,0 3.31421,-0.6958 1.50146,-0.71411 2.7832,-1.70288 z" />
          <path
             inkscape:connector-curvature="0"
             id="path450"
             style="font-style:normal;font-weight:normal;font-size:medium;line-height:9.375px;font-family:sans-serif;letter-spacing:0px;word-spacing:0px;fill:#4d4d4d;fill-opacity:1;stroke:none;stroke-width:0.9375"
             d="m 902.04129,816.35321 h -3.88183 v -3.57056 h 3.88183 z m -0.21972,23.87695 h -3.44239 v -20.45288 h 3.44239 z" />
        </g>
        <g
           style="fill:#4d4d4d;fill-opacity:1"
           transform="matrix(0.58095611,0,0,0.58095611,-164.85355,55.870645)"
           id="g472">
          <path
             inkscape:connector-curvature="0"
             id="path454"
             style="font-style:normal;font-weight:normal;font-size:medium;line-height:9.375px;font-family:sans-serif;letter-spacing:0px;word-spacing:0px;fill:#4d4d4d;fill-opacity:1;stroke:none;stroke-width:0.9375"
             d="m 939.81595,821.20551 q 0,1.81274 -0.64087,3.36914 -0.62256,1.53808 -1.75781,2.67334 -1.40991,1.40991 -3.33252,2.12402 -1.92261,0.6958 -4.8523,0.6958 h -3.62548 v 10.16235 h -3.62549 v -27.2644 h 7.39746 q 2.45361,0 4.15649,0.42114 1.70288,0.40283 3.02124,1.28174 1.5564,1.0437 2.39868,2.6001 0.8606,1.55639 0.8606,3.93677 z m -3.77197,0.0915 q 0,-1.40991 -0.49439,-2.45362 -0.49438,-1.0437 -1.50146,-1.70288 -0.87891,-0.56762 -2.01416,-0.80566 -1.11695,-0.25635 -2.83814,-0.25635 h -3.58886 v 10.89478 h 3.05786 q 2.19726,0 3.57055,-0.38452 1.3733,-0.40284 2.23389,-1.26343 0.8606,-0.87891 1.2085,-1.84937 0.36621,-0.97046 0.36621,-2.17895 z" />
          <path
             inkscape:connector-curvature="0"
             id="path456"
             style="font-style:normal;font-weight:normal;font-size:medium;line-height:9.375px;font-family:sans-serif;letter-spacing:0px;word-spacing:0px;fill:#4d4d4d;fill-opacity:1;stroke:none;stroke-width:0.9375"
             d="m 960.58011,830.36078 h -15.06958 q 0,1.88599 0.56763,3.2959 0.56762,1.3916 1.55639,2.28882 0.95215,0.8789 2.2522,1.31835 1.31836,0.43946 2.89307,0.43946 2.0874,0 4.19311,-0.82398 2.12403,-0.84228 3.02124,-1.64795 h 0.18311 v 3.75367 q -1.7395,0.73242 -3.55225,1.2268 -1.81274,0.49439 -3.80859,0.49439 -5.09033,0 -7.94678,-2.74658 -2.85644,-2.7649 -2.85644,-7.83692 0,-5.01709 2.72827,-7.96509 2.74658,-2.94799 7.21435,-2.94799 4.13819,0 6.37207,2.41699 2.2522,2.41699 2.2522,6.86645 z m -3.35083,-2.63672 q -0.0183,-2.70996 -1.37329,-4.19312 -1.33667,-1.48315 -4.08325,-1.48315 -2.7649,0 -4.41284,1.62964 -1.62964,1.62964 -1.84937,4.04663 z" />
          <path
             inkscape:connector-curvature="0"
             id="path458"
             style="font-style:normal;font-weight:normal;font-size:medium;line-height:9.375px;font-family:sans-serif;letter-spacing:0px;word-spacing:0px;fill:#4d4d4d;fill-opacity:1;stroke:none;stroke-width:0.9375"
             d="m 995.64481,840.23016 h -3.44238 v -11.6455 q 0,-1.31836 -0.12818,-2.54517 -0.10986,-1.22681 -0.49438,-1.95923 -0.42115,-0.78735 -1.2085,-1.19018 -0.78735,-0.40284 -2.27051,-0.40284 -1.44653,0 -2.89306,0.73243 -1.44654,0.71411 -2.89307,1.83105 0.0549,0.42114 0.0915,0.98877 0.0366,0.54932 0.0366,1.09863 v 13.09204 h -3.44238 v -11.6455 q 0,-1.35498 -0.12817,-2.56348 -0.10987,-1.22681 -0.49439,-1.95923 -0.42114,-0.78735 -1.20849,-1.17187 -0.78736,-0.40284 -2.27051,-0.40284 -1.40991,0 -2.83814,0.6958 -1.40991,0.69581 -2.81982,1.77613 v 15.27099 h -3.44238 v -20.45288 h 3.44238 v 2.27051 q 1.61133,-1.33667 3.20434,-2.0874 1.61133,-0.75073 3.42408,-0.75073 2.0874,0 3.53393,0.8789 1.46485,0.87891 2.17896,2.4353 2.0874,-1.75781 3.80859,-2.52685 1.72119,-0.78735 3.68042,-0.78735 3.36914,0 4.96216,2.05078 1.61133,2.03247 1.61133,5.69458 z" />
          <path
             inkscape:connector-curvature="0"
             id="path460"
             style="font-style:normal;font-weight:normal;font-size:medium;line-height:9.375px;font-family:sans-serif;letter-spacing:0px;word-spacing:0px;fill:#4d4d4d;fill-opacity:1;stroke:none;stroke-width:0.9375"
             d="m 1020.2725,829.84808 q 0,2.56348 -0.7324,4.61426 -0.7141,2.05078 -1.9409,3.44238 -1.3001,1.44654 -2.8565,2.17896 -1.5564,0.71411 -3.4241,0.71411 -1.7395,0 -3.0395,-0.42114 -1.3001,-0.40283 -2.5635,-1.09863 l -0.2197,0.95214 h -3.2227 v -28.49121 h 3.4424 v 10.18067 q 1.4465,-1.19019 3.0762,-1.94092 1.6296,-0.76904 3.6621,-0.76904 3.6255,0 5.7129,2.7832 2.1057,2.7832 2.1057,7.85522 z m -3.5523,0.0916 q 0,-3.66211 -1.2084,-5.5481 -1.2085,-1.9043 -3.9002,-1.9043 -1.5015,0 -3.0395,0.65918 -1.5381,0.64087 -2.8565,1.66626 v 11.71875 q 1.4649,0.65918 2.5086,0.91553 1.062,0.25635 2.3986,0.25635 2.8565,0 4.4678,-1.86768 1.6296,-1.88598 1.6296,-5.89599 z" />
          <path
             inkscape:connector-curvature="0"
             id="path462"
             style="font-style:normal;font-weight:normal;font-size:medium;line-height:9.375px;font-family:sans-serif;letter-spacing:0px;word-spacing:0px;fill:#4d4d4d;fill-opacity:1;stroke:none;stroke-width:0.9375"
             d="m 1029.3362,816.35321 h -3.8818 v -3.57056 h 3.8818 z m -0.2197,23.87695 h -3.4424 v -20.45288 h 3.4424 z" />
          <path
             inkscape:connector-curvature="0"
             id="path464"
             style="font-style:normal;font-weight:normal;font-size:medium;line-height:9.375px;font-family:sans-serif;letter-spacing:0px;word-spacing:0px;fill:#4d4d4d;fill-opacity:1;stroke:none;stroke-width:0.9375"
             d="m 1050.9427,838.94843 q -1.7212,0.82397 -3.2776,1.28173 -1.5381,0.45777 -3.2776,0.45777 -2.2156,0 -4.065,-0.64087 -1.8493,-0.65918 -3.1677,-1.97754 -1.3367,-1.31836 -2.0691,-3.33252 -0.7324,-2.01416 -0.7324,-4.70581 0,-5.01709 2.7466,-7.87354 2.7649,-2.85644 7.2876,-2.85644 1.7578,0 3.4424,0.49438 1.7028,0.49439 3.1128,1.2085 v 3.8269 h -0.1831 q -1.5748,-1.2268 -3.2593,-1.88598 -1.6663,-0.65918 -3.2593,-0.65918 -2.9297,0 -4.6326,1.97754 -1.6845,1.95923 -1.6845,5.76782 0,3.69873 1.6479,5.69458 1.6663,1.97754 4.6692,1.97754 1.0437,0 2.124,-0.27466 1.0803,-0.27466 1.9409,-0.71411 0.7508,-0.38452 1.41,-0.80567 0.6591,-0.43945 1.0437,-0.75073 h 0.1831 z" />
          <path
             inkscape:connector-curvature="0"
             id="path466"
             style="font-style:normal;font-weight:normal;font-size:medium;line-height:9.375px;font-family:sans-serif;letter-spacing:0px;word-spacing:0px;fill:#4d4d4d;fill-opacity:1;stroke:none;stroke-width:0.9375"
             d="m 1071.2674,840.23016 h -3.4241 v -2.17895 q -0.4578,0.31128 -1.2451,0.8789 -0.7691,0.54932 -1.5015,0.87891 -0.8606,0.42114 -1.9775,0.6958 -1.117,0.29297 -2.6184,0.29297 -2.7649,0 -4.6875,-1.83105 -1.9226,-1.83106 -1.9226,-4.66919 0,-2.32544 0.9887,-3.75367 1.0071,-1.44653 2.8565,-2.2705 1.8676,-0.82398 4.4861,-1.11695 2.6184,-0.29297 5.6213,-0.43945 v -0.53101 q 0,-1.17187 -0.4211,-1.94091 -0.4029,-0.76905 -1.1719,-1.2085 -0.7324,-0.42114 -1.7578,-0.56763 -1.0254,-0.14648 -2.1424,-0.14648 -1.355,0 -3.0212,0.36621 -1.6663,0.3479 -3.4424,1.02539 h -0.1831 v -3.49731 q 1.0071,-0.27466 2.9114,-0.60425 1.9043,-0.32959 3.7536,-0.32959 2.1607,0 3.7537,0.36621 1.6113,0.3479 2.7832,1.20849 1.1536,0.84229 1.7578,2.17896 0.6043,1.33667 0.6043,3.31421 z m -3.4241,-5.0354 v -5.69458 q -1.5747,0.0916 -3.717,0.27466 -2.1241,0.18311 -3.3692,0.53101 -1.4831,0.42114 -2.3987,1.31836 -0.9155,0.8789 -0.9155,2.4353 0,1.75781 1.062,2.65503 1.062,0.8789 3.241,0.8789 1.8127,0 3.3142,-0.6958 1.5015,-0.71411 2.7832,-1.70288 z" />
          <path
             inkscape:connector-curvature="0"
             id="path468"
             style="font-style:normal;font-weight:normal;font-size:medium;line-height:9.375px;font-family:sans-serif;letter-spacing:0px;word-spacing:0px;fill:#4d4d4d;fill-opacity:1;stroke:none;stroke-width:0.9375"
             d="m 1090.6949,823.53094 h -0.1831 q -0.7691,-0.1831 -1.5015,-0.25634 -0.7141,-0.0916 -1.7029,-0.0916 -1.593,0 -3.0762,0.71412 -1.4831,0.6958 -2.8564,1.81274 v 14.52026 h -3.4424 v -20.45288 h 3.4424 v 3.02124 q 2.0508,-1.64795 3.6072,-2.32544 1.5747,-0.6958 3.2043,-0.6958 0.8972,0 1.3001,0.0549 0.4028,0.0366 1.2085,0.1648 z" />
          <path
             inkscape:connector-curvature="0"
             id="path470"
             style="font-style:normal;font-weight:normal;font-size:medium;line-height:9.375px;font-family:sans-serif;letter-spacing:0px;word-spacing:0px;fill:#4d4d4d;fill-opacity:1;stroke:none;stroke-width:0.9375"
             d="m 1109.2068,840.23016 h -3.4241 v -2.17895 q -0.4577,0.31128 -1.2451,0.8789 -0.769,0.54932 -1.5014,0.87891 -0.8606,0.42114 -1.9776,0.6958 -1.1169,0.29297 -2.6184,0.29297 -2.7649,0 -4.6875,-1.83105 -1.9226,-1.83106 -1.9226,-4.66919 0,-2.32544 0.9888,-3.75367 1.0071,-1.44653 2.8564,-2.2705 1.8677,-0.82398 4.4861,-1.11695 2.6184,-0.29297 5.6213,-0.43945 v -0.53101 q 0,-1.17187 -0.4211,-1.94091 -0.4028,-0.76905 -1.1719,-1.2085 -0.7324,-0.42114 -1.7578,-0.56763 -1.0254,-0.14648 -2.1423,-0.14648 -1.355,0 -3.0213,0.36621 -1.6662,0.3479 -3.4423,1.02539 h -0.1831 v -3.49731 q 1.007,-0.27466 2.9113,-0.60425 1.9043,-0.32959 3.7537,-0.32959 2.1606,0 3.7537,0.36621 1.6113,0.3479 2.7832,1.20849 1.1535,0.84229 1.7578,2.17896 0.6042,1.33667 0.6042,3.31421 z m -3.4241,-5.0354 v -5.69458 q -1.5747,0.0916 -3.717,0.27466 -2.124,0.18311 -3.3691,0.53101 -1.4832,0.42114 -2.3987,1.31836 -0.9155,0.8789 -0.9155,2.4353 0,1.75781 1.062,2.65503 1.062,0.8789 3.2409,0.8789 1.8128,0 3.3142,-0.6958 1.5015,-0.71411 2.7832,-1.70288 z" />
        </g>
      </g>
      <text
         xml:space="preserve"
         style="font-style:normal;font-weight:normal;font-size:35.7716713px;line-height:8.94291782px;font-family:sans-serif;text-align:center;letter-spacing:0px;word-spacing:0px;text-anchor:middle;fill:#62aa41;fill-opacity:1;stroke:none;stroke-width:0.89429182"
         x="1099.735"
         y="631.2041"
         id="text478"><tspan
           sodipodi:role="line"
           id="tspan476"
           x="1099.735"
           y="631.2041"
           style="text-align:center;text-anchor:middle;fill:#62aa41;fill-opacity:1;stroke-width:0.89429182">Iwan S. Tahari</tspan></text>
      <text
         xml:space="preserve"
         style="font-style:normal;font-variant:normal;font-weight:normal;font-stretch:normal;font-size:12.49343204px;line-height:0%;font-family:'Century Gothic';-inkscape-font-specification:'Century Gothic, Normal';font-variant-ligatures:normal;font-variant-caps:normal;font-variant-numeric:normal;font-feature-settings:normal;text-align:center;letter-spacing:0px;word-spacing:0px;writing-mode:lr-tb;text-anchor:middle;fill:#4d4d4d;fill-opacity:1;stroke:none;stroke-width:0.31233576px;stroke-linecap:butt;stroke-linejoin:miter;stroke-opacity:1"
         x="1099.1056"
         y="695.40607"
         id="text482"><tspan
           sodipodi:role="line"
           id="tspan480"
           x="1099.1056"
           y="695.40607"
           style="font-weight:bold;text-align:center;text-anchor:middle;fill:#4d4d4d;fill-opacity:1;stroke-width:0.31233576px">Semarang, 13 Mei 2017</tspan></text>
      <text
         xml:space="preserve"
         style="font-style:normal;font-variant:normal;font-weight:normal;font-stretch:normal;font-size:15.69212055px;line-height:0%;font-family:'Century Gothic';-inkscape-font-specification:'Century Gothic, Normal';font-variant-ligatures:normal;font-variant-caps:normal;font-variant-numeric:normal;font-feature-settings:normal;text-align:center;letter-spacing:0px;word-spacing:0px;writing-mode:lr-tb;text-anchor:middle;fill:#4d4d4d;fill-opacity:1;stroke:none;stroke-width:0.39230302px;stroke-linecap:butt;stroke-linejoin:miter;stroke-opacity:1"
         x="1100.1633"
         y="715.20398"
         id="text486"><tspan
           sodipodi:role="line"
           id="tspan484"
           x="1100.1633"
           y="715.20398"
           style="text-align:center;text-anchor:middle;fill:#4d4d4d;fill-opacity:1;stroke-width:0.39230302px">Astoria Ballroom Hotel Dafam</tspan></text>
    </g>
  </g>
</svg>
