<?xml version="1.0" encoding="UTF-8" standalone="no"?>
<!-- Created with Inkscape (http://www.inkscape.org/) -->

<svg
   xmlns:dc="http://purl.org/dc/elements/1.1/"
   xmlns:cc="http://creativecommons.org/ns#"
   xmlns:rdf="http://www.w3.org/1999/02/22-rdf-syntax-ns#"
   xmlns:svg="http://www.w3.org/2000/svg"
   xmlns="http://www.w3.org/2000/svg"
   xmlns:xlink="http://www.w3.org/1999/xlink"
   xmlns:sodipodi="http://sodipodi.sourceforge.net/DTD/sodipodi-0.dtd"
   xmlns:inkscape="http://www.inkscape.org/namespaces/inkscape"
   width="1122.5197"
   height="793.70081"
   viewBox="0 0 296.99998 210.00001"
   version="1.1"
   id="svg26966"
   inkscape:version="0.92.1 unknown"
   sodipodi:docname="Glow light C #1.svg">
  <defs
     id="defs26960">
    <linearGradient
       inkscape:collect="always"
       id="linearGradient31786">
      <stop
         style="stop-color:#0080aa;stop-opacity:1"
         offset="0"
         id="stop31782" />
      <stop
         style="stop-color:#00b580;stop-opacity:1"
         offset="1"
         id="stop31784" />
    </linearGradient>
    <linearGradient
       inkscape:collect="always"
       id="linearGradient31762">
      <stop
         style="stop-color:#0080aa;stop-opacity:1;"
         offset="0"
         id="stop31758" />
      <stop
         style="stop-color:#0080aa;stop-opacity:0;"
         offset="1"
         id="stop31760" />
    </linearGradient>
    <linearGradient
       inkscape:collect="always"
       xlink:href="#linearGradient31762"
       id="linearGradient31764"
       x1="-199.23123"
       y1="191.43117"
       x2="-199.23123"
       y2="149.9483"
       gradientUnits="userSpaceOnUse" />
    <linearGradient
       inkscape:collect="always"
       xlink:href="#linearGradient31786"
       id="linearGradient31788"
       x1="-199.23123"
       y1="191.43117"
       x2="-199.23123"
       y2="151.07083"
       gradientUnits="userSpaceOnUse" />
    <linearGradient
       inkscape:collect="always"
       xlink:href="#linearGradient31786"
       id="linearGradient31796"
       x1="-188.91249"
       y1="191.43117"
       x2="-209.02107"
       y2="194.69235"
       gradientUnits="userSpaceOnUse" />
    <filter
       inkscape:collect="always"
       style="color-interpolation-filters:sRGB"
       id="filter31964"
       x="-0.071399994"
       width="1.1428"
       y="-0.063466668"
       height="1.1269333">
      <feGaussianBlur
         inkscape:collect="always"
         stdDeviation="2.0150667"
         id="feGaussianBlur31966" />
    </filter>
    <linearGradient
       inkscape:collect="always"
       xlink:href="#linearGradient31786"
       id="linearGradient31993"
       gradientUnits="userSpaceOnUse"
       x1="-199.23123"
       y1="191.43117"
       x2="-199.23123"
       y2="151.07083" />
    <linearGradient
       inkscape:collect="always"
       xlink:href="#linearGradient31786"
       id="linearGradient31995"
       gradientUnits="userSpaceOnUse"
       x1="-188.91249"
       y1="191.43117"
       x2="-209.02107"
       y2="194.69235" />
    <linearGradient
       inkscape:collect="always"
       xlink:href="#linearGradient31786"
       id="linearGradient31997"
       gradientUnits="userSpaceOnUse"
       x1="-199.23123"
       y1="191.43117"
       x2="-199.23123"
       y2="151.07083" />
    <linearGradient
       inkscape:collect="always"
       xlink:href="#linearGradient31786"
       id="linearGradient31999"
       gradientUnits="userSpaceOnUse"
       x1="-188.91249"
       y1="191.43117"
       x2="-209.02107"
       y2="194.69235" />
    <filter
       inkscape:collect="always"
       style="color-interpolation-filters:sRGB"
       id="filter32235"
       x="-0.030075355"
       width="1.0601507"
       y="-0.027628409"
       height="1.0552568">
      <feGaussianBlur
         inkscape:collect="always"
         stdDeviation="3.5234569"
         id="feGaussianBlur32237" />
    </filter>
    <linearGradient
       inkscape:collect="always"
       xlink:href="#linearGradient31786"
       id="linearGradient32251"
       gradientUnits="userSpaceOnUse"
       x1="-199.23123"
       y1="191.43117"
       x2="-199.23123"
       y2="151.07083" />
    <linearGradient
       inkscape:collect="always"
       xlink:href="#linearGradient31786"
       id="linearGradient32253"
       gradientUnits="userSpaceOnUse"
       x1="-188.91249"
       y1="191.43117"
       x2="-209.02107"
       y2="194.69235" />
    <filter
       inkscape:collect="always"
       style="color-interpolation-filters:sRGB"
       id="filter32316"
       x="-0.030075355"
       width="1.0601507"
       y="-0.027628409"
       height="1.0552568">
      <feGaussianBlur
         inkscape:collect="always"
         stdDeviation="3.5234569"
         id="feGaussianBlur32318" />
    </filter>
    <clipPath
       clipPathUnits="userSpaceOnUse"
       id="clipPath33463">
      <rect
         y="-141.68605"
         x="-1009.7298"
         height="633.30646"
         width="801.54999"
         id="rect33465"
         style="opacity:1;fill:#ffffff;fill-opacity:0.61837457;fill-rule:nonzero;stroke:none;stroke-width:1.32990646;stroke-linecap:round;stroke-linejoin:round;stroke-miterlimit:4;stroke-dasharray:none;stroke-dashoffset:0;stroke-opacity:1" />
    </clipPath>
    <filter
       inkscape:collect="always"
       style="color-interpolation-filters:sRGB"
       id="filter33789"
       x="-0.026315935"
       width="1.0526319"
       y="-0.024174858"
       height="1.0483497">
      <feGaussianBlur
         inkscape:collect="always"
         stdDeviation="3.0830248"
         id="feGaussianBlur33791" />
    </filter>
  </defs>
  <sodipodi:namedview
     id="base"
     pagecolor="#ffffff"
     bordercolor="#666666"
     borderopacity="1.0"
     inkscape:pageopacity="0.0"
     inkscape:pageshadow="2"
     inkscape:zoom="0.069329123"
     inkscape:cx="-2095.9621"
     inkscape:cy="438.32692"
     inkscape:document-units="mm"
     inkscape:current-layer="layer1"
     showgrid="false"
     inkscape:window-width="1366"
     inkscape:window-height="747"
     inkscape:window-x="0"
     inkscape:window-y="21"
     inkscape:window-maximized="1"
     showguides="true"
     inkscape:guide-bbox="true"
     inkscape:snap-global="false"
     inkscape:snap-intersection-paths="true"
     inkscape:snap-smooth-nodes="true"
     inkscape:object-paths="true"
     inkscape:snap-object-midpoints="true"
     units="px" />
  <metadata
     id="metadata26963">
    <rdf:RDF>
      <cc:Work
         rdf:about="">
        <dc:format>image/svg+xml</dc:format>
        <dc:type
           rdf:resource="http://purl.org/dc/dcmitype/StillImage" />
        <dc:title></dc:title>
      </cc:Work>
    </rdf:RDF>
  </metadata>
  <g
     inkscape:label="Layer 1"
     inkscape:groupmode="layer"
     id="layer1"
     transform="translate(0,-86.999992)">
    <rect
       style="opacity:1;fill:#ffffff;fill-opacity:1;fill-rule:nonzero;stroke:none;stroke-width:1;stroke-linecap:round;stroke-linejoin:round;stroke-miterlimit:4;stroke-dasharray:none;stroke-dashoffset:0;stroke-opacity:1"
       id="rect32445"
       width="292.2814"
       height="205.73999"
       x="2.1771429"
       y="89.082855" />
    <g
       id="g32989">
      <path
         transform="matrix(0.39943507,0,0,0.39943507,396.86248,104.11374)"
         sodipodi:type="star"
         style="opacity:1;fill:#1a1a1a;fill-opacity:1;fill-rule:nonzero;stroke:none;stroke-width:1;stroke-linecap:round;stroke-linejoin:round;stroke-miterlimit:4;stroke-dasharray:none;stroke-dashoffset:0;stroke-opacity:1;filter:url(#filter32316)"
         id="path32262"
         sodipodi:sides="6"
         sodipodi:cx="-454.14438"
         sodipodi:cy="220.02638"
         sodipodi:r1="153.03625"
         sodipodi:r2="132.53329"
         sodipodi:arg1="1.5707963"
         sodipodi:arg2="2.0943951"
         inkscape:flatsided="true"
         inkscape:rounded="0.14030432"
         inkscape:randomized="0"
         d="m -454.14437,373.06264 c -21.47165,0 -121.79747,-57.92313 -132.53329,-76.51813 -10.73583,-18.59499 -10.73583,-134.44126 -1e-5,-153.03625 10.73583,-18.59499 111.06164,-76.518132 132.53329,-76.518132 21.47164,-10e-7 121.79746,57.923132 132.53328,76.518122 10.73583,18.59499 10.73583,134.44126 1e-5,153.03626 -10.73583,18.59499 -111.06164,76.51813 -132.53328,76.51813 z"
         inkscape:transform-center-x="-5.721504e-06"
         inkscape:transform-center-y="-2.7719858e-06" />
      <path
         inkscape:transform-center-y="-2.7719858e-06"
         inkscape:transform-center-x="-5.721504e-06"
         d="m 215.46129,253.12803 c -8.57653,0 -48.65018,-23.13653 -52.93844,-30.56402 -4.28827,-7.42749 -4.28827,-53.70056 0,-61.12805 4.28826,-7.42749 44.36191,-30.56402 52.93844,-30.56402 8.57653,0 48.65018,23.13653 52.93844,30.56402 4.28826,7.42749 4.28827,53.70056 0,61.12805 -4.28826,7.42749 -44.36191,30.56402 -52.93844,30.56402 z"
         inkscape:randomized="0"
         inkscape:rounded="0.14030432"
         inkscape:flatsided="true"
         sodipodi:arg2="2.0943951"
         sodipodi:arg1="1.5707963"
         sodipodi:r2="52.938446"
         sodipodi:r1="61.128048"
         sodipodi:cy="191.99998"
         sodipodi:cx="215.46129"
         sodipodi:sides="6"
         id="path31800"
         style="opacity:1;fill:#1a1a1a;fill-opacity:1;fill-rule:nonzero;stroke:none;stroke-width:0.39943507;stroke-linecap:round;stroke-linejoin:round;stroke-miterlimit:4;stroke-dasharray:none;stroke-dashoffset:0;stroke-opacity:1"
         sodipodi:type="star" />
      <g
         style="filter:url(#filter31964)"
         id="g31810"
         transform="matrix(0.99288147,0,0,0.99288147,436.65459,22.684791)">
        <path
           id="path31806"
           d="m -218.54583,132.42912 a 38.099997,38.099997 0 0 0 -38.1,38.1 38.099997,38.099997 0 0 0 38.1,38.1 38.099997,38.099997 0 0 0 22.41879,-7.36957 10.31874,10.31874 0 0 0 7.21454,-9.82834 10.31874,10.31874 0 0 0 -10.31875,-10.31875 10.31874,10.31874 0 0 0 -9.32088,5.92108 19.31458,19.31458 0 0 1 -9.9937,2.81017 19.31458,19.31458 0 0 1 -19.31458,-19.31459 19.31458,19.31458 0 0 1 19.31458,-19.31458 19.31458,19.31458 0 0 1 10.62984,3.20962 10.31874,10.31874 0 0 0 8.68474,4.747 10.31874,10.31874 0 0 0 10.31875,-10.31875 10.31874,10.31874 0 0 0 -8.93279,-10.21333 38.099997,38.099997 0 0 0 -20.70054,-6.20996 z"
           style="opacity:1;fill:url(#linearGradient32251);fill-opacity:1;fill-rule:nonzero;stroke:none;stroke-width:1;stroke-linecap:round;stroke-linejoin:round;stroke-miterlimit:4;stroke-dasharray:none;stroke-dashoffset:0;stroke-opacity:1"
           inkscape:connector-curvature="0" />
        <circle
           r="10.31874"
           cy="191.43117"
           cx="-199.23123"
           id="circle31808"
           style="opacity:1;fill:url(#linearGradient32253);fill-opacity:1;fill-rule:nonzero;stroke:none;stroke-width:1.11428583;stroke-linecap:round;stroke-linejoin:round;stroke-miterlimit:4;stroke-dasharray:none;stroke-dashoffset:0;stroke-opacity:1" />
      </g>
      <g
         transform="matrix(0.99288147,0,0,0.99288147,436.65459,22.684791)"
         id="g31804">
        <path
           inkscape:connector-curvature="0"
           style="opacity:1;fill:url(#linearGradient31788);fill-opacity:1;fill-rule:nonzero;stroke:none;stroke-width:1;stroke-linecap:round;stroke-linejoin:round;stroke-miterlimit:4;stroke-dasharray:none;stroke-dashoffset:0;stroke-opacity:1"
           d="m -218.54583,132.42912 a 38.099997,38.099997 0 0 0 -38.1,38.1 38.099997,38.099997 0 0 0 38.1,38.1 38.099997,38.099997 0 0 0 22.41879,-7.36957 10.31874,10.31874 0 0 0 7.21454,-9.82834 10.31874,10.31874 0 0 0 -10.31875,-10.31875 10.31874,10.31874 0 0 0 -9.32088,5.92108 19.31458,19.31458 0 0 1 -9.9937,2.81017 19.31458,19.31458 0 0 1 -19.31458,-19.31459 19.31458,19.31458 0 0 1 19.31458,-19.31458 19.31458,19.31458 0 0 1 10.62984,3.20962 10.31874,10.31874 0 0 0 8.68474,4.747 10.31874,10.31874 0 0 0 10.31875,-10.31875 10.31874,10.31874 0 0 0 -8.93279,-10.21333 38.099997,38.099997 0 0 0 -20.70054,-6.20996 z"
           id="path31677" />
        <circle
           style="opacity:1;fill:url(#linearGradient31796);fill-opacity:1;fill-rule:nonzero;stroke:none;stroke-width:1.11428583;stroke-linecap:round;stroke-linejoin:round;stroke-miterlimit:4;stroke-dasharray:none;stroke-dashoffset:0;stroke-opacity:1"
           id="path31704"
           cx="-199.23123"
           cy="191.43117"
           r="10.31874" />
      </g>
    </g>
    <g
       id="g32979">
      <path
         transform="matrix(0.39943507,0,0,0.39943507,396.86248,104.11374)"
         inkscape:transform-center-y="-2.7719858e-06"
         inkscape:transform-center-x="-5.721504e-06"
         d="m -789.42437,373.06264 c -21.47165,0 -121.79747,-57.92313 -132.53329,-76.51813 -10.73582,-18.59499 -10.73583,-134.44126 0,-153.03625 10.73582,-18.59499 111.06163,-76.518132 132.53328,-76.518132 21.47165,-10e-7 121.79746,57.923132 132.53328,76.518122 10.73583,18.59499 10.73583,134.44126 1e-5,153.03626 -10.73582,18.59499 -111.06164,76.51813 -132.53328,76.51813 z"
         inkscape:randomized="0"
         inkscape:rounded="0.14030432"
         inkscape:flatsided="true"
         sodipodi:arg2="2.0943951"
         sodipodi:arg1="1.5707963"
         sodipodi:r2="132.53329"
         sodipodi:r1="153.03625"
         sodipodi:cy="220.02638"
         sodipodi:cx="-789.42438"
         sodipodi:sides="6"
         id="path32001"
         style="opacity:1;fill:#4d4d4d;fill-opacity:1;fill-rule:nonzero;stroke:none;stroke-width:1;stroke-linecap:round;stroke-linejoin:round;stroke-miterlimit:4;stroke-dasharray:none;stroke-dashoffset:0;stroke-opacity:1;filter:url(#filter32235)"
         sodipodi:type="star" />
      <path
         sodipodi:type="star"
         style="opacity:1;fill:#ffffff;fill-opacity:1;fill-rule:nonzero;stroke:none;stroke-width:0.39943507;stroke-linecap:round;stroke-linejoin:round;stroke-miterlimit:4;stroke-dasharray:none;stroke-dashoffset:0;stroke-opacity:1"
         id="path31977"
         sodipodi:sides="6"
         sodipodi:cx="81.538696"
         sodipodi:cy="191.99998"
         sodipodi:r1="61.128048"
         sodipodi:r2="52.938446"
         sodipodi:arg1="1.5707963"
         sodipodi:arg2="2.0943951"
         inkscape:flatsided="true"
         inkscape:rounded="0.14030432"
         inkscape:randomized="0"
         d="m 81.538698,253.12803 c -8.576529,0 -48.650178,-23.13653 -52.938443,-30.56402 -4.288265,-7.42749 -4.288266,-53.70056 -2e-6,-61.12805 4.288264,-7.42749 44.361912,-30.56402 52.938442,-30.56402 8.576529,0 48.650175,23.13653 52.938445,30.56402 4.28826,7.42749 4.28826,53.70056 0,61.12805 -4.28826,7.42749 -44.361913,30.56402 -52.938442,30.56402 z"
         inkscape:transform-center-x="-5.721504e-06"
         inkscape:transform-center-y="-2.7719858e-06" />
      <g
         transform="matrix(0.99288147,0,0,0.99288147,302.73199,22.684791)"
         id="g31983"
         style="filter:url(#filter31964)">
        <path
           inkscape:connector-curvature="0"
           style="opacity:1;fill:url(#linearGradient31993);fill-opacity:1;fill-rule:nonzero;stroke:none;stroke-width:1;stroke-linecap:round;stroke-linejoin:round;stroke-miterlimit:4;stroke-dasharray:none;stroke-dashoffset:0;stroke-opacity:1"
           d="m -218.54583,132.42912 a 38.099997,38.099997 0 0 0 -38.1,38.1 38.099997,38.099997 0 0 0 38.1,38.1 38.099997,38.099997 0 0 0 22.41879,-7.36957 10.31874,10.31874 0 0 0 7.21454,-9.82834 10.31874,10.31874 0 0 0 -10.31875,-10.31875 10.31874,10.31874 0 0 0 -9.32088,5.92108 19.31458,19.31458 0 0 1 -9.9937,2.81017 19.31458,19.31458 0 0 1 -19.31458,-19.31459 19.31458,19.31458 0 0 1 19.31458,-19.31458 19.31458,19.31458 0 0 1 10.62984,3.20962 10.31874,10.31874 0 0 0 8.68474,4.747 10.31874,10.31874 0 0 0 10.31875,-10.31875 10.31874,10.31874 0 0 0 -8.93279,-10.21333 38.099997,38.099997 0 0 0 -20.70054,-6.20996 z"
           id="path31979" />
        <circle
           style="opacity:1;fill:url(#linearGradient31995);fill-opacity:1;fill-rule:nonzero;stroke:none;stroke-width:1.11428583;stroke-linecap:round;stroke-linejoin:round;stroke-miterlimit:4;stroke-dasharray:none;stroke-dashoffset:0;stroke-opacity:1"
           id="circle31981"
           cx="-199.23123"
           cy="191.43117"
           r="10.31874" />
      </g>
      <g
         id="g31989"
         transform="matrix(0.99288147,0,0,0.99288147,302.73199,22.684791)">
        <path
           id="path31985"
           d="m -218.54583,132.42912 a 38.099997,38.099997 0 0 0 -38.1,38.1 38.099997,38.099997 0 0 0 38.1,38.1 38.099997,38.099997 0 0 0 22.41879,-7.36957 10.31874,10.31874 0 0 0 7.21454,-9.82834 10.31874,10.31874 0 0 0 -10.31875,-10.31875 10.31874,10.31874 0 0 0 -9.32088,5.92108 19.31458,19.31458 0 0 1 -9.9937,2.81017 19.31458,19.31458 0 0 1 -19.31458,-19.31459 19.31458,19.31458 0 0 1 19.31458,-19.31458 19.31458,19.31458 0 0 1 10.62984,3.20962 10.31874,10.31874 0 0 0 8.68474,4.747 10.31874,10.31874 0 0 0 10.31875,-10.31875 10.31874,10.31874 0 0 0 -8.93279,-10.21333 38.099997,38.099997 0 0 0 -20.70054,-6.20996 z"
           style="opacity:1;fill:url(#linearGradient31997);fill-opacity:1;fill-rule:nonzero;stroke:none;stroke-width:1;stroke-linecap:round;stroke-linejoin:round;stroke-miterlimit:4;stroke-dasharray:none;stroke-dashoffset:0;stroke-opacity:1"
           inkscape:connector-curvature="0" />
        <circle
           r="10.31874"
           cy="191.43117"
           cx="-199.23123"
           id="circle31987"
           style="opacity:1;fill:url(#linearGradient31999);fill-opacity:1;fill-rule:nonzero;stroke:none;stroke-width:1.11428583;stroke-linecap:round;stroke-linejoin:round;stroke-miterlimit:4;stroke-dasharray:none;stroke-dashoffset:0;stroke-opacity:1" />
      </g>
    </g>
  </g>
</svg>
