/* XPM */
static char *close_pressed[] = {
/* columns rows colors chars-per-pixel */
"20 20 2 1 ",
"  c #555",
". c #db5266",
/* pixels */
"                    ",
"                    ",
"       ......       ",
"      ........      ",
"    ............    ",
"    ............    ",
"   ...  ....  ...   ",
"   ...   ..   ...   ",
"  .....      .....  ",
"  ......    ......  ",
"  ......    ......  ",
"  .....      .....  ",
"   ...   ..   ...   ",
"   ...  ....  ...   ",
"    ............    ",
"    ............    ",
"      ........      ",
"       ......       ",
"                    ",
"                    "
};
