<?xml version="1.0" encoding="UTF-8" standalone="no"?>
<!-- Created with Inkscape (http://www.inkscape.org/) -->

<svg
   xmlns:dc="http://purl.org/dc/elements/1.1/"
   xmlns:cc="http://creativecommons.org/ns#"
   xmlns:rdf="http://www.w3.org/1999/02/22-rdf-syntax-ns#"
   xmlns:svg="http://www.w3.org/2000/svg"
   xmlns="http://www.w3.org/2000/svg"
   xmlns:sodipodi="http://sodipodi.sourceforge.net/DTD/sodipodi-0.dtd"
   xmlns:inkscape="http://www.inkscape.org/namespaces/inkscape"
   width="562.68201mm"
   height="246.13481mm"
   viewBox="0 0 562.68201 246.13481"
   version="1.1"
   id="svg5508"
   inkscape:version="0.92.1 unknown"
   sodipodi:docname="drawing2.svg">
  <defs
     id="defs5502" />
  <sodipodi:namedview
     id="base"
     pagecolor="#ffffff"
     bordercolor="#666666"
     borderopacity="1.0"
     inkscape:pageopacity="0.0"
     inkscape:pageshadow="2"
     inkscape:zoom="0.24748737"
     inkscape:cx="1008.9555"
     inkscape:cy="352.5223"
     inkscape:document-units="mm"
     inkscape:current-layer="layer1"
     showgrid="false"
     fit-margin-top="0"
     fit-margin-left="0"
     fit-margin-right="0"
     fit-margin-bottom="0"
     inkscape:window-width="1366"
     inkscape:window-height="747"
     inkscape:window-x="0"
     inkscape:window-y="21"
     inkscape:window-maximized="1" />
  <metadata
     id="metadata5505">
    <rdf:RDF>
      <cc:Work
         rdf:about="">
        <dc:format>image/svg+xml</dc:format>
        <dc:type
           rdf:resource="http://purl.org/dc/dcmitype/StillImage" />
        <dc:title />
      </cc:Work>
    </rdf:RDF>
  </metadata>
  <g
     inkscape:label="Layer 1"
     inkscape:groupmode="layer"
     id="layer1"
     transform="translate(151.2803,76.287625)">
    <g
       id="g5500"
       transform="matrix(9.8903658,0,0,9.8903658,9349.0879,-1819.3139)">
      <path
         sodipodi:type="star"
         style="opacity:1;fill:none;fill-opacity:1;fill-rule:nonzero;stroke:#7ad4eb;stroke-width:0.79374999;stroke-linecap:round;stroke-linejoin:miter;stroke-miterlimit:4;stroke-dasharray:none;stroke-dashoffset:0;stroke-opacity:1;paint-order:fill markers stroke"
         id="path4809"
         sodipodi:sides="6"
         sodipodi:cx="-930.76068"
         sodipodi:cy="219.92911"
         sodipodi:r1="15.603304"
         sodipodi:r2="13.512858"
         sodipodi:arg1="1.5707963"
         sodipodi:arg2="2.0943951"
         inkscape:flatsided="true"
         inkscape:rounded="0"
         inkscape:randomized="0"
         d="m -930.76068,235.53241 -13.51286,-7.80165 0,-15.6033 13.51286,-7.80166 13.51286,7.80166 0,15.6033 z"
         inkscape:transform-center-x="-7.1230226e-06"
         transform="matrix(0.63014538,0,0,0.63014056,-363.27721,49.984659)" />
      <path
         transform="matrix(0.58892621,0,0,0.58892169,-401.6424,59.049886)"
         d="m -930.76068,235.53241 -13.51286,-7.80165 0,-15.6033 13.51286,-7.80166 13.51286,7.80166 0,15.6033 z"
         inkscape:randomized="0"
         inkscape:rounded="0"
         inkscape:flatsided="true"
         sodipodi:arg2="2.0943951"
         sodipodi:arg1="1.5707963"
         sodipodi:r2="13.512858"
         sodipodi:r1="15.603304"
         sodipodi:cy="219.92911"
         sodipodi:cx="-930.76068"
         sodipodi:sides="6"
         id="path5233"
         style="opacity:1;fill:#ffffff;fill-opacity:1;fill-rule:nonzero;stroke:none;stroke-width:0.79374999;stroke-linecap:round;stroke-linejoin:miter;stroke-miterlimit:4;stroke-dasharray:none;stroke-dashoffset:0;stroke-opacity:1;paint-order:fill markers stroke"
         sodipodi:type="star" />
      <path
         inkscape:connector-curvature="0"
         id="path4786"
         d="m -949.7916,176.12775 10.77602,6.22142 v 2.0753 h -2.90377 v -0.39888 l -7.87225,-4.54467 -7.87258,4.54467 v 9.09064 l 7.87258,4.54467 7.87225,-4.54467 v -0.39888 h 2.90377 v 2.0753 l -10.77602,6.22142 -10.77633,-6.22142 v -12.44348 z"
         style="opacity:1;fill:#7ad4eb;fill-opacity:1;fill-rule:nonzero;stroke:none;stroke-width:0.036062;stroke-linecap:round;stroke-linejoin:miter;stroke-miterlimit:4;stroke-dasharray:none;stroke-dashoffset:0;stroke-opacity:1;paint-order:fill markers stroke" />
      <g
         style="fill:#00b657;fill-opacity:1"
         transform="matrix(0.5543299,0,0,0.5543299,-500.51866,60.601563)"
         id="g4794">
        <g
           id="g4792"
           transform="matrix(0.57767916,0,0,0.57767916,-503.24829,237.32623)"
           style="fill:#00b657;fill-opacity:1">
          <path
             style="fill:#00b657;fill-opacity:1;stroke-width:0.17502792"
             d="M -527.99506,7.2485693 V 4.9598959 l -0.78253,-1.0169369 c -1.83698,-2.3873097 -3.80939,-3.94015213 -7.20597,-5.6732027 -3.60816,-1.841007 -5.04367,-2.9941745 -6.471,-5.1982704 -1.67547,-2.5872744 -2.90933,-6.4803649 -3.74025,-11.8012869 -0.19542,-1.251442 -0.39998,-2.542964 -0.45456,-2.870084 -0.0989,-0.592649 -0.0941,-0.589967 1.35752,0.7564 1.87363,1.737789 4.57165,3.530824 8.19534,5.446472 1.58838,0.839675 3.53162,1.950393 4.31831,2.468274 1.77336,1.167413 3.36954,2.884672 4.17177,4.4882565 l 0.61137,1.2220415 4.8e-4,-2.3426174 c 2.4e-4,-1.2884586 -0.0872,-3.1820976 -0.19435,-4.2080706 -0.37906,-3.629186 0.32875,-6.133342 2.20396,-7.797342 0.51997,-0.461392 2.0293,-1.429623 3.35408,-2.151611 1.99581,-1.08771 2.66244,-1.560351 3.88907,-2.757398 0.81421,-0.794602 1.5226,-1.402495 1.57418,-1.350891 0.0516,0.0516 0.12533,1.253047 0.16385,2.669875 0.0809,2.972714 -0.15947,4.358115 -1.04369,6.017073 -0.95412,1.790098 -2.14034,2.827829 -5.57188,4.87445 -1.01079,0.602821 -2.17254,1.366329 -2.58166,1.696621 l -0.74387,0.60058 V -1.2152794 9.5372232 h -0.52509 -0.52508 z"
             id="path4788"
             inkscape:connector-curvature="0" />
          <path
             style="fill:#00b657;fill-opacity:1;stroke-width:0.17502792"
             d="m -529.82677,-20.788082 c -0.18145,-0.311916 -0.8729,-1.151973 -1.53656,-1.866765 -1.74665,-1.881255 -1.97308,-2.379066 -1.95644,-4.301263 0.0111,-1.279618 0.11938,-1.89549 0.57707,-3.281752 0.30987,-0.938596 0.59749,-1.706549 0.63915,-1.706549 0.0417,0 0.24471,0.334737 0.45122,0.743879 0.20652,0.409122 0.9145,1.573666 1.57331,2.587832 1.40855,2.168362 1.73391,2.994821 1.73391,4.404433 0,0.951597 -0.6778,3.502041 -1.02522,3.857748 -0.0696,0.07127 -0.275,-0.125647 -0.45644,-0.437563 z"
             id="path4790"
             inkscape:connector-curvature="0" />
        </g>
      </g>
      <g
         transform="matrix(1.3720841,0,0,1.3720841,348.57454,-68.709759)"
         id="g5224">
        <path
           sodipodi:nodetypes="cccccc"
           inkscape:connector-curvature="0"
           id="rect4825"
           d="m -939.66101,184.66193 h 26.9979 l -1.17019,2.00603 1.17019,1.75529 h -26.9979 z"
           style="opacity:1;fill:#7ad4eb;fill-opacity:1;fill-rule:nonzero;stroke:none;stroke-width:0.78846616;stroke-linecap:round;stroke-linejoin:miter;stroke-miterlimit:4;stroke-dasharray:none;stroke-dashoffset:0;stroke-opacity:1;paint-order:fill markers stroke" />
        <text
           id="text4842"
           y="187.08354"
           x="-938.72052"
           style="font-style:normal;font-weight:normal;font-size:2.13668084px;line-height:125%;font-family:Sans;letter-spacing:0px;word-spacing:0px;fill:#ffffff;fill-opacity:1;stroke:none;stroke-width:0.05341702px;stroke-linecap:butt;stroke-linejoin:miter;stroke-opacity:1"
           xml:space="preserve"><tspan
             style="fill:#ffffff;stroke-width:0.05341702px"
             y="187.08354"
             x="-938.72052"
             id="tspan4840"
             sodipodi:role="line">%VAR_nama%</tspan></text>
      </g>
      <g
         transform="matrix(0.72907364,0,0,0.72907364,-255.63728,52.257152)"
         id="g5229">
        <path
           style="opacity:1;fill:#1fa2c3;fill-opacity:1;fill-rule:nonzero;stroke:none;stroke-width:0.78846616;stroke-linecap:round;stroke-linejoin:miter;stroke-miterlimit:4;stroke-dasharray:none;stroke-dashoffset:0;stroke-opacity:1;paint-order:fill markers stroke"
           d="m -939.66101,188.59042 44.28792,0 -2.92547,3.76132 -41.36245,0 z"
           id="path4828"
           inkscape:connector-curvature="0"
           sodipodi:nodetypes="ccccc" />
        <text
           xml:space="preserve"
           style="font-style:normal;font-weight:normal;font-size:2.13668084px;line-height:125%;font-family:Sans;letter-spacing:0px;word-spacing:0px;fill:#ffffff;fill-opacity:1;stroke:none;stroke-width:0.05341702px;stroke-linecap:butt;stroke-linejoin:miter;stroke-opacity:1"
           x="-938.72052"
           y="191.01204"
           id="text4846"><tspan
             sodipodi:role="line"
             id="tspan4844"
             x="-938.72052"
             y="191.01204"
             style="fill:#ffffff;fill-opacity:1;stroke-width:0.05341702px">%VAR_jabatan%</tspan></text>
      </g>
    </g>
  </g>
</svg>
