<?xml version="1.0" encoding="UTF-8" standalone="no"?>
<!-- Created with Inkscape (http://www.inkscape.org/) -->

<svg
   xmlns:dc="http://purl.org/dc/elements/1.1/"
   xmlns:cc="http://creativecommons.org/ns#"
   xmlns:rdf="http://www.w3.org/1999/02/22-rdf-syntax-ns#"
   xmlns:svg="http://www.w3.org/2000/svg"
   xmlns="http://www.w3.org/2000/svg"
   xmlns:sodipodi="http://sodipodi.sourceforge.net/DTD/sodipodi-0.dtd"
   xmlns:inkscape="http://www.inkscape.org/namespaces/inkscape"
   width="210mm"
   height="297mm"
   viewBox="0 0 210 297"
   version="1.1"
   id="svg16107"
   inkscape:version="0.92.1 unknown"
   sodipodi:docname="logo.svg">
  <defs
     id="defs16101">
    <filter
       inkscape:collect="always"
       style="color-interpolation-filters:sRGB"
       id="filter8768"
       x="-0.09986117"
       width="1.1997223"
       y="-0.090227104"
       height="1.1804542">
      <feGaussianBlur
         inkscape:collect="always"
         stdDeviation="6.1953061"
         id="feGaussianBlur8770" />
    </filter>
    <filter
       inkscape:collect="always"
       style="color-interpolation-filters:sRGB"
       id="filter9168"
       x="-0.074311847"
       width="1.1486237"
       y="-0.0769336"
       height="1.1538672">
      <feGaussianBlur
         inkscape:collect="always"
         stdDeviation="1.8678135"
         id="feGaussianBlur9170" />
    </filter>
    <filter
       inkscape:collect="always"
       style="color-interpolation-filters:sRGB"
       id="filter9508"
       x="-0.0312"
       width="1.0624"
       y="-0.0312"
       height="1.0624">
      <feGaussianBlur
         inkscape:collect="always"
         stdDeviation="1.6711573"
         id="feGaussianBlur9510" />
    </filter>
    <filter
       inkscape:collect="always"
       style="color-interpolation-filters:sRGB"
       id="filter9595"
       x="-0.064677043"
       width="1.1293541"
       y="-0.046301897"
       height="1.0926038">
      <feGaussianBlur
         inkscape:collect="always"
         stdDeviation="0.8174328"
         id="feGaussianBlur9597" />
    </filter>
  </defs>
  <sodipodi:namedview
     id="base"
     pagecolor="#ffffff"
     bordercolor="#666666"
     borderopacity="1.0"
     inkscape:pageopacity="0.0"
     inkscape:pageshadow="2"
     inkscape:zoom="0.35"
     inkscape:cx="325.81437"
     inkscape:cy="482.74437"
     inkscape:document-units="mm"
     inkscape:current-layer="layer1"
     showgrid="false"
     inkscape:window-width="1366"
     inkscape:window-height="747"
     inkscape:window-x="0"
     inkscape:window-y="21"
     inkscape:window-maximized="1" />
  <metadata
     id="metadata16104">
    <rdf:RDF>
      <cc:Work
         rdf:about="">
        <dc:format>image/svg+xml</dc:format>
        <dc:type
           rdf:resource="http://purl.org/dc/dcmitype/StillImage" />
        <dc:title />
      </cc:Work>
    </rdf:RDF>
  </metadata>
  <g
     inkscape:label="Layer 1"
     inkscape:groupmode="layer"
     id="layer1">
    <g
       id="g9667"
       inkscape:export-filename="/home/xavier/Desktop/logo final revisi.PNG"
       inkscape:export-xdpi="200"
       inkscape:export-ydpi="200"
       transform="matrix(0.9790195,0,0,0.9790195,2.2442267,3.1358049)">
      <rect
         y="49.803574"
         x="8.3154764"
         height="197.30357"
         width="197.30357"
         id="rect9172"
         style="opacity:1;fill:#ffffff;fill-opacity:0.98939933;fill-rule:nonzero;stroke:none;stroke-width:17.68400002;stroke-linecap:round;stroke-linejoin:miter;stroke-miterlimit:4;stroke-dasharray:none;stroke-dashoffset:0;stroke-opacity:0.72789115;paint-order:fill markers stroke" />
      <path
         d="m 177.94645,110.65906 c 4.11981,7.13572 4.11981,75.26045 0,82.39617 -4.11981,7.13572 -63.11755,41.19808 -71.35717,41.19808 -8.239617,0 -67.237364,-34.06236 -71.357172,-41.19808 -4.119808,-7.13572 -4.119808,-75.26045 0,-82.39616 4.119808,-7.13572 63.117554,-41.198087 71.357172,-41.198087 8.23962,0 67.23736,34.062367 71.35717,41.198077 z"
         inkscape:randomized="0"
         inkscape:rounded="0.1"
         inkscape:flatsided="true"
         sodipodi:arg2="0"
         sodipodi:arg1="-0.52359878"
         sodipodi:r2="71.357178"
         sodipodi:r1="82.396164"
         sodipodi:cy="151.85715"
         sodipodi:cx="106.58928"
         sodipodi:sides="6"
         id="path8618"
         style="opacity:1;fill:#333333;fill-opacity:1;stroke:none;stroke-width:6.56534243;stroke-linejoin:round;stroke-miterlimit:4;stroke-dasharray:none;stroke-dashoffset:0;stroke-opacity:1;paint-order:stroke fill markers;filter:url(#filter8768)"
         sodipodi:type="star" />
      <path
         sodipodi:type="star"
         style="opacity:1;fill:#ffdd55;fill-opacity:1;stroke:none;stroke-width:6.56534243;stroke-linejoin:round;stroke-miterlimit:4;stroke-dasharray:none;stroke-dashoffset:0;stroke-opacity:1;paint-order:stroke fill markers"
         id="path10078"
         sodipodi:sides="6"
         sodipodi:cx="106.58928"
         sodipodi:cy="151.85715"
         sodipodi:r1="82.396164"
         sodipodi:r2="71.357178"
         sodipodi:arg1="-0.52359878"
         sodipodi:arg2="0"
         inkscape:flatsided="true"
         inkscape:rounded="0.1"
         inkscape:randomized="0"
         d="m 177.94645,110.65906 c 4.11981,7.13572 4.11981,75.26045 0,82.39617 -4.11981,7.13572 -63.11755,41.19808 -71.35717,41.19808 -8.239617,0 -67.237364,-34.06236 -71.357172,-41.19808 -4.119808,-7.13572 -4.119808,-75.26045 0,-82.39616 4.119808,-7.13572 63.117554,-41.198087 71.357172,-41.198087 8.23962,0 67.23736,34.062367 71.35717,41.198077 z" />
      <g
         id="g9294"
         style="fill:#666666;fill-opacity:1;filter:url(#filter9508)">
        <path
           style="opacity:1;fill:#666666;fill-opacity:1;stroke:none;stroke-width:3.45664358;stroke-linejoin:round;stroke-miterlimit:4;stroke-dasharray:none;stroke-dashoffset:0;stroke-opacity:1;paint-order:stroke fill markers"
           d="m 111.91582,108.91024 c 0,11.76707 -2.38477,21.30617 -5.32654,21.30617 -2.94177,0 -5.32655,-9.5391 -5.32655,-21.30617 0,-11.767084 -2.66142,-21.866867 5.32655,-21.306185 7.98797,0.560681 5.32654,9.539101 5.32654,21.306185 z"
           id="path9246"
           inkscape:connector-curvature="0"
           sodipodi:nodetypes="ssszs"
           inkscape:transform-center-y="-243.58197" />
        <path
           inkscape:transform-center-y="-236.23387"
           sodipodi:nodetypes="ssszs"
           inkscape:connector-curvature="0"
           id="path9248"
           d="m 122.84977,111.75224 c -3.04554,11.36611 -7.81795,19.96294 -10.65948,19.20156 -2.84153,-0.76139 -2.67615,-10.59269 0.36939,-21.9588 3.04555,-11.366132 3.08883,-21.810592 10.6595,-19.201585 7.57067,2.609025 2.67614,10.592695 -0.36941,21.958825 z"
           style="opacity:1;fill:#666666;fill-opacity:1;stroke:none;stroke-width:3.45664358;stroke-linejoin:round;stroke-miterlimit:4;stroke-dasharray:none;stroke-dashoffset:0;stroke-opacity:1;paint-order:stroke fill markers"
           inkscape:transform-center-x="-68.673388" />
        <path
           inkscape:transform-center-x="-126.79747"
           style="opacity:1;fill:#666666;fill-opacity:1;stroke:none;stroke-width:3.45664358;stroke-linejoin:round;stroke-miterlimit:4;stroke-dasharray:none;stroke-dashoffset:0;stroke-opacity:1;paint-order:stroke fill markers"
           d="m 132.6756,117.32731 c -5.88353,10.19057 -12.71836,17.25928 -15.266,15.78839 -2.54765,-1.47089 0.15663,-10.92438 6.04016,-21.11496 5.88354,-10.19059 8.62857,-20.267972 15.26602,-15.788426 6.63744,4.479566 -0.15663,10.924386 -6.04018,21.114996 z"
           id="path9250"
           inkscape:connector-curvature="0"
           sodipodi:nodetypes="ssszs"
           inkscape:transform-center-y="-213.44507" />
        <path
           inkscape:transform-center-y="-176.45868"
           sodipodi:nodetypes="ssszs"
           inkscape:connector-curvature="0"
           id="path9252"
           d="m 140.72369,125.25553 c -8.32057,8.32056 -16.75203,13.37943 -18.83217,11.29927 -2.08014,-2.08014 2.97874,-10.5116 11.29931,-18.83216 8.32058,-8.32059 13.58029,-17.34414 18.83218,-11.29933 5.25188,6.04482 -2.97873,10.51162 -11.29932,18.83222 z"
           style="opacity:1;fill:#666666;fill-opacity:1;stroke:none;stroke-width:3.45664358;stroke-linejoin:round;stroke-miterlimit:4;stroke-dasharray:none;stroke-dashoffset:0;stroke-opacity:1;paint-order:stroke fill markers"
           inkscape:transform-center-x="-175.55035" />
        <path
           inkscape:transform-center-x="-212.51689"
           style="opacity:1;fill:#666666;fill-opacity:1;stroke:none;stroke-width:3.45664358;stroke-linejoin:round;stroke-miterlimit:4;stroke-dasharray:none;stroke-dashoffset:0;stroke-opacity:1;paint-order:stroke fill markers"
           d="m 146.44557,134.99659 c -10.19058,5.88353 -19.64407,8.58779 -21.11494,6.04014 -1.47089,-2.54766 5.59783,-9.38248 15.78841,-15.26601 10.19059,-5.88354 17.60655,-13.2383 21.11497,-6.04018 3.50841,7.19814 -5.59784,9.38249 -15.78844,15.26605 z"
           id="path9254"
           inkscape:connector-curvature="0"
           sodipodi:nodetypes="ssszs"
           inkscape:transform-center-y="-127.49636" />
        <path
           inkscape:transform-center-y="-69.031437"
           sodipodi:nodetypes="ssszs"
           inkscape:connector-curvature="0"
           id="path9256"
           d="m 149.4513,145.88666 c -11.3661,3.04553 -21.19739,3.21091 -21.95876,0.36937 -0.76139,-2.84152 7.83545,-7.61395 19.20156,-10.65948 11.36613,-3.04555 20.43295,-8.2303 21.95882,-0.3694 1.52584,7.8609 -7.83547,7.61396 -19.20162,10.65951 z"
           style="opacity:1;fill:#666666;fill-opacity:1;stroke:none;stroke-width:3.45664358;stroke-linejoin:round;stroke-miterlimit:4;stroke-dasharray:none;stroke-dashoffset:0;stroke-opacity:1;paint-order:stroke fill markers"
           inkscape:transform-center-x="-235.5519" />
        <path
           inkscape:transform-center-x="-243.58201"
           style="opacity:1;fill:#666666;fill-opacity:1;stroke:none;stroke-width:3.45664358;stroke-linejoin:round;stroke-miterlimit:4;stroke-dasharray:none;stroke-dashoffset:0;stroke-opacity:1;paint-order:stroke fill markers"
           d="m 149.53606,157.18361 c -11.76705,0 -21.30614,-2.3848 -21.30613,-5.32657 0,-2.94176 9.5391,-5.32654 21.30616,-5.32653 11.76708,-1e-5 21.86687,-2.66144 21.30619,5.32653 -0.56069,7.98797 -9.53912,5.32657 -21.30622,5.32657 z"
           id="path9258"
           inkscape:connector-curvature="0"
           sodipodi:nodetypes="ssszs"
           inkscape:transform-center-y="-1.5973728e-06" />
        <path
           inkscape:transform-center-y="68.673365"
           sodipodi:nodetypes="ssszs"
           inkscape:connector-curvature="0"
           id="path9260"
           d="m 146.69407,168.11755 c -11.3661,-3.04553 -19.96292,-7.81797 -19.20153,-10.65949 0.76138,-2.84152 10.59268,-2.67615 21.95878,0.3694 11.36614,3.04553 21.81061,3.08881 19.2016,10.65948 -2.60903,7.57066 -10.5927,2.67616 -21.95885,-0.36939 z"
           style="opacity:1;fill:#666666;fill-opacity:1;stroke:none;stroke-width:3.45664358;stroke-linejoin:round;stroke-miterlimit:4;stroke-dasharray:none;stroke-dashoffset:0;stroke-opacity:1;paint-order:stroke fill markers"
           inkscape:transform-center-x="-236.23392" />
        <path
           inkscape:transform-center-x="-213.4451"
           style="opacity:1;fill:#666666;fill-opacity:1;stroke:none;stroke-width:3.45664358;stroke-linejoin:round;stroke-miterlimit:4;stroke-dasharray:none;stroke-dashoffset:0;stroke-opacity:1;paint-order:stroke fill markers"
           d="m 141.11901,177.94338 c -10.19057,-5.88353 -17.25927,-12.71837 -15.78838,-15.266 1.47088,-2.54765 10.92438,0.15662 21.11495,6.04016 10.1906,5.88353 20.26799,8.62856 15.78844,15.26601 -4.47956,6.63742 -10.92441,-0.15663 -21.11501,-6.04017 z"
           id="path9262"
           inkscape:connector-curvature="0"
           sodipodi:nodetypes="ssszs"
           inkscape:transform-center-y="126.79745" />
        <path
           inkscape:transform-center-y="175.55034"
           sodipodi:nodetypes="ssszs"
           inkscape:connector-curvature="0"
           id="path9264"
           d="m 133.1908,185.99147 c -8.32057,-8.32057 -13.37941,-16.75204 -11.29927,-18.83217 2.08014,-2.08016 10.5116,2.97873 18.83216,11.29931 8.3206,8.32057 17.34414,13.58029 11.29933,18.83217 -6.04481,5.25187 -10.51162,-2.97873 -18.83222,-11.29931 z"
           style="opacity:1;fill:#666666;fill-opacity:1;stroke:none;stroke-width:3.45664358;stroke-linejoin:round;stroke-miterlimit:4;stroke-dasharray:none;stroke-dashoffset:0;stroke-opacity:1;paint-order:stroke fill markers"
           inkscape:transform-center-x="-176.4587" />
        <path
           inkscape:transform-center-x="-127.49637"
           style="opacity:1;fill:#666666;fill-opacity:1;stroke:none;stroke-width:3.45664358;stroke-linejoin:round;stroke-miterlimit:4;stroke-dasharray:none;stroke-dashoffset:0;stroke-opacity:1;paint-order:stroke fill markers"
           d="m 123.44974,191.71334 c -5.88354,-10.19057 -8.58778,-19.64407 -6.04014,-21.11494 2.54765,-1.47089 9.38248,5.59784 15.266,15.78843 5.88356,10.19057 13.23831,17.60654 6.04019,21.11495 -7.19813,3.50841 -9.3825,-5.59785 -15.26605,-15.78844 z"
           id="path9266"
           inkscape:connector-curvature="0"
           sodipodi:nodetypes="ssszs"
           inkscape:transform-center-y="212.51688" />
        <path
           inkscape:transform-center-y="235.55187"
           sodipodi:nodetypes="ssszs"
           inkscape:connector-curvature="0"
           id="path9268"
           d="m 112.55966,194.71909 c -3.04554,-11.36612 -3.21089,-21.19741 -0.36937,-21.95879 2.84153,-0.76138 7.61395,7.83547 10.65947,19.20158 3.04557,11.36614 8.23033,20.43295 0.36943,21.9588 -7.8609,1.52585 -7.61397,-7.83548 -10.65953,-19.20159 z"
           style="opacity:1;fill:#666666;fill-opacity:1;stroke:none;stroke-width:3.45664358;stroke-linejoin:round;stroke-miterlimit:4;stroke-dasharray:none;stroke-dashoffset:0;stroke-opacity:1;paint-order:stroke fill markers"
           inkscape:transform-center-x="-69.03143" />
        <path
           inkscape:transform-center-x="2.6146063e-06"
           style="opacity:1;fill:#666666;fill-opacity:1;stroke:none;stroke-width:3.45664358;stroke-linejoin:round;stroke-miterlimit:4;stroke-dasharray:none;stroke-dashoffset:0;stroke-opacity:1;paint-order:stroke fill markers"
           d="m 101.26271,194.80384 c 0,-11.76706 2.38481,-21.30616 5.32657,-21.30615 2.94177,0 5.32655,9.53912 5.32653,21.30617 2e-5,11.7671 2.66144,21.86688 -5.32652,21.30619 -7.987966,-0.56069 -5.32656,-9.53914 -5.32658,-21.30621 z"
           id="path9270"
           inkscape:connector-curvature="0"
           sodipodi:nodetypes="ssszs"
           inkscape:transform-center-y="243.582" />
        <path
           inkscape:transform-center-y="236.23389"
           sodipodi:nodetypes="ssszs"
           inkscape:connector-curvature="0"
           id="path9272"
           d="m 90.328763,191.96185 c 3.045541,-11.36611 7.817991,-19.96295 10.659507,-19.20155 2.84153,0.7614 2.67614,10.59271 -0.36941,21.95879 -3.045531,11.36616 -3.088808,21.81062 -10.659471,19.2016 -7.57066,-2.60903 -2.676141,-10.59273 0.369374,-21.95884 z"
           style="opacity:1;fill:#666666;fill-opacity:1;stroke:none;stroke-width:3.45664358;stroke-linejoin:round;stroke-miterlimit:4;stroke-dasharray:none;stroke-dashoffset:0;stroke-opacity:1;paint-order:stroke fill markers"
           inkscape:transform-center-x="68.673354" />
        <path
           inkscape:transform-center-x="126.79743"
           style="opacity:1;fill:#666666;fill-opacity:1;stroke:none;stroke-width:3.45664358;stroke-linejoin:round;stroke-miterlimit:4;stroke-dasharray:none;stroke-dashoffset:0;stroke-opacity:1;paint-order:stroke fill markers"
           d="m 80.502936,186.38678 c 5.883543,-10.19058 12.718394,-17.25927 15.266026,-15.78838 2.547642,1.47089 -0.156638,10.9244 -6.040174,21.11494 -5.883542,10.19063 -8.628558,20.268 -15.266001,15.78845 -6.637425,-4.47956 0.156643,-10.92442 6.040149,-21.11501 z"
           id="path9274"
           inkscape:connector-curvature="0"
           sodipodi:nodetypes="ssszs"
           inkscape:transform-center-y="213.44509" />
        <path
           inkscape:transform-center-y="176.4587"
           sodipodi:nodetypes="ssszs"
           inkscape:connector-curvature="0"
           id="path9276"
           d="m 72.454848,178.45856 c 8.320581,-8.32056 16.752058,-13.37942 18.83219,-11.29926 2.080137,2.08014 -2.978754,10.51162 -11.299318,18.83215 -8.320581,8.32062 -13.580288,17.34415 -18.832164,11.29934 -5.251876,-6.04482 2.978745,-10.51163 11.299292,-18.83223 z"
           style="opacity:1;fill:#666666;fill-opacity:1;stroke:none;stroke-width:3.45664358;stroke-linejoin:round;stroke-miterlimit:4;stroke-dasharray:none;stroke-dashoffset:0;stroke-opacity:1;paint-order:stroke fill markers"
           inkscape:transform-center-x="175.55032" />
        <path
           inkscape:transform-center-x="212.51685"
           style="opacity:1;fill:#666666;fill-opacity:1;stroke:none;stroke-width:3.45664358;stroke-linejoin:round;stroke-miterlimit:4;stroke-dasharray:none;stroke-dashoffset:0;stroke-opacity:1;paint-order:stroke fill markers"
           d="m 66.732974,168.71749 c 10.190591,-5.88352 19.644087,-8.58776 21.114959,-6.04011 1.470873,2.54765 -5.597857,9.38249 -15.788413,15.26598 -10.190608,5.88358 -17.606554,13.23833 -21.114959,6.0402 -3.508405,-7.19814 5.597858,-9.38251 15.788413,-15.26607 z"
           id="path9278"
           inkscape:connector-curvature="0"
           sodipodi:nodetypes="ssszs"
           inkscape:transform-center-y="127.49638" />
        <path
           inkscape:transform-center-y="69.031437"
           sodipodi:nodetypes="ssszs"
           inkscape:connector-curvature="0"
           id="path9280"
           d="m 63.727246,157.82741 c 11.366114,-3.04552 21.197408,-3.21087 21.958769,-0.36934 0.761378,2.84152 -7.83547,7.61395 -19.201549,10.65946 -11.366167,3.04557 -20.43296,8.23033 -21.958804,0.36944 -1.525843,-7.86092 7.835488,-7.61398 19.201584,-10.65956 z"
           style="opacity:1;fill:#666666;fill-opacity:1;stroke:none;stroke-width:3.45664358;stroke-linejoin:round;stroke-miterlimit:4;stroke-dasharray:none;stroke-dashoffset:0;stroke-opacity:1;paint-order:stroke fill markers"
           inkscape:transform-center-x="235.55186" />
        <path
           inkscape:transform-center-x="243.58202"
           style="opacity:1;fill:#666666;fill-opacity:1;stroke:none;stroke-width:3.45664358;stroke-linejoin:round;stroke-miterlimit:4;stroke-dasharray:none;stroke-dashoffset:0;stroke-opacity:1;paint-order:stroke fill markers"
           d="m 63.642488,146.53046 c 11.767067,2e-5 21.306168,2.38484 21.306133,5.3266 0,2.94176 -9.539119,5.32655 -21.306133,5.32653 -11.767138,0 -21.866903,2.66144 -21.306204,-5.32651 0.5607,-7.98799 9.539155,-5.32657 21.306204,-5.32662 z"
           id="path9282"
           inkscape:connector-curvature="0"
           sodipodi:nodetypes="ssszs"
           inkscape:transform-center-y="6.704443e-06" />
        <path
           inkscape:transform-center-y="-68.673325"
           sodipodi:nodetypes="ssszs"
           inkscape:connector-curvature="0"
           id="path9284"
           d="m 66.484484,135.59652 c 11.366114,3.04555 19.962945,7.81801 19.201513,10.65953 -0.761379,2.84152 -10.59269,2.67614 -21.958751,-0.36941 -11.366167,-3.04556 -21.810626,-3.08881 -19.201601,-10.65946 2.609042,-7.57068 10.592725,-2.67616 21.958839,0.36934 z"
           style="opacity:1;fill:#666666;fill-opacity:1;stroke:none;stroke-width:3.45664358;stroke-linejoin:round;stroke-miterlimit:4;stroke-dasharray:none;stroke-dashoffset:0;stroke-opacity:1;paint-order:stroke fill markers"
           inkscape:transform-center-x="236.23397" />
        <path
           inkscape:transform-center-x="213.44517"
           style="opacity:1;fill:#666666;fill-opacity:1;stroke:none;stroke-width:3.45664358;stroke-linejoin:round;stroke-miterlimit:4;stroke-dasharray:none;stroke-dashoffset:0;stroke-opacity:1;paint-order:stroke fill markers"
           d="m 72.059556,125.77069 c 10.190573,5.88354 17.259267,12.71842 15.788342,15.26604 -1.470872,2.54763 -10.924386,-0.15663 -21.114906,-6.04015 -10.190626,-5.88358 -20.268012,-8.62858 -15.788449,-15.266 4.479581,-6.63745 10.924422,0.15662 21.115013,6.04011 z"
           id="path9286"
           inkscape:connector-curvature="0"
           sodipodi:nodetypes="ssszs"
           inkscape:transform-center-y="-126.79742" />
        <path
           inkscape:transform-center-y="-175.5503"
           sodipodi:nodetypes="ssszs"
           inkscape:connector-curvature="0"
           id="path9288"
           d="m 79.987773,117.72262 c 8.320564,8.32056 13.379404,16.75207 11.299228,18.83218 -2.08013,2.08012 -10.511607,-2.97873 -18.832136,-11.29929 -8.320599,-8.32062 -17.344149,-13.58031 -11.299326,-18.83217 6.04484,-5.25187 10.511635,2.97873 18.832234,11.29928 z"
           style="opacity:1;fill:#666666;fill-opacity:1;stroke:none;stroke-width:3.45664358;stroke-linejoin:round;stroke-miterlimit:4;stroke-dasharray:none;stroke-dashoffset:0;stroke-opacity:1;paint-order:stroke fill markers"
           inkscape:transform-center-x="176.45876" />
        <path
           inkscape:transform-center-x="127.49642"
           style="opacity:1;fill:#666666;fill-opacity:1;stroke:none;stroke-width:3.45664358;stroke-linejoin:round;stroke-miterlimit:4;stroke-dasharray:none;stroke-dashoffset:0;stroke-opacity:1;paint-order:stroke fill markers"
           d="m 89.728841,112.00074 c 5.883525,10.19058 8.587752,19.64411 6.040086,21.11495 -2.547627,1.47087 -9.382484,-5.59783 -15.265973,-15.7884 -5.883542,-10.19062 -13.238327,-17.606554 -6.040185,-21.114941 7.198143,-3.508405 9.382495,5.597841 15.266072,15.788391 z"
           id="path9290"
           inkscape:connector-curvature="0"
           sodipodi:nodetypes="ssszs"
           inkscape:transform-center-y="-212.51684" />
        <path
           inkscape:transform-center-y="-235.55185"
           sodipodi:nodetypes="ssszs"
           inkscape:connector-curvature="0"
           id="path9292"
           d="m 100.61892,108.99502 c 3.04553,11.36609 3.21086,21.19742 0.36932,21.95875 -2.841505,0.76138 -7.613957,-7.83545 -10.659458,-19.20155 -3.045534,-11.36615 -8.230322,-20.432944 -0.36942,-21.95877 7.860914,-1.525843 7.613965,7.835453 10.659558,19.20157 z"
           style="opacity:1;fill:#666666;fill-opacity:1;stroke:none;stroke-width:3.45664358;stroke-linejoin:round;stroke-miterlimit:4;stroke-dasharray:none;stroke-dashoffset:0;stroke-opacity:1;paint-order:stroke fill markers"
           inkscape:transform-center-x="69.031435" />
      </g>
      <g
         style="fill:#fefefe;fill-opacity:1"
         id="g8616">
        <path
           inkscape:transform-center-y="-243.58197"
           sodipodi:nodetypes="ssszs"
           inkscape:connector-curvature="0"
           id="path10084"
           d="m 111.91582,108.91024 c 0,11.76707 -2.38477,21.30617 -5.32654,21.30617 -2.94177,0 -5.32655,-9.5391 -5.32655,-21.30617 0,-11.767084 -2.66142,-21.866867 5.32655,-21.306185 7.98797,0.560681 5.32654,9.539101 5.32654,21.306185 z"
           style="opacity:1;fill:#fefefe;fill-opacity:1;stroke:none;stroke-width:3.45664358;stroke-linejoin:round;stroke-miterlimit:4;stroke-dasharray:none;stroke-dashoffset:0;stroke-opacity:1;paint-order:stroke fill markers" />
        <path
           inkscape:transform-center-x="-68.673388"
           style="opacity:1;fill:#fefefe;fill-opacity:1;stroke:none;stroke-width:3.45664358;stroke-linejoin:round;stroke-miterlimit:4;stroke-dasharray:none;stroke-dashoffset:0;stroke-opacity:1;paint-order:stroke fill markers"
           d="m 122.84977,111.75224 c -3.04554,11.36611 -7.81795,19.96294 -10.65948,19.20156 -2.84153,-0.76139 -2.67615,-10.59269 0.36939,-21.9588 3.04555,-11.366132 3.08883,-21.810592 10.6595,-19.201585 7.57067,2.609025 2.67614,10.592695 -0.36941,21.958825 z"
           id="path10086"
           inkscape:connector-curvature="0"
           sodipodi:nodetypes="ssszs"
           inkscape:transform-center-y="-236.23387" />
        <path
           inkscape:transform-center-y="-213.44507"
           sodipodi:nodetypes="ssszs"
           inkscape:connector-curvature="0"
           id="path10088"
           d="m 132.6756,117.32731 c -5.88353,10.19057 -12.71836,17.25928 -15.266,15.78839 -2.54765,-1.47089 0.15663,-10.92438 6.04016,-21.11496 5.88354,-10.19059 8.62857,-20.267972 15.26602,-15.788426 6.63744,4.479566 -0.15663,10.924386 -6.04018,21.114996 z"
           style="opacity:1;fill:#fefefe;fill-opacity:1;stroke:none;stroke-width:3.45664358;stroke-linejoin:round;stroke-miterlimit:4;stroke-dasharray:none;stroke-dashoffset:0;stroke-opacity:1;paint-order:stroke fill markers"
           inkscape:transform-center-x="-126.79747" />
        <path
           inkscape:transform-center-x="-175.55035"
           style="opacity:1;fill:#fefefe;fill-opacity:1;stroke:none;stroke-width:3.45664358;stroke-linejoin:round;stroke-miterlimit:4;stroke-dasharray:none;stroke-dashoffset:0;stroke-opacity:1;paint-order:stroke fill markers"
           d="m 140.72369,125.25553 c -8.32057,8.32056 -16.75203,13.37943 -18.83217,11.29927 -2.08014,-2.08014 2.97874,-10.5116 11.29931,-18.83216 8.32058,-8.32059 13.58029,-17.34414 18.83218,-11.29933 5.25188,6.04482 -2.97873,10.51162 -11.29932,18.83222 z"
           id="path10090"
           inkscape:connector-curvature="0"
           sodipodi:nodetypes="ssszs"
           inkscape:transform-center-y="-176.45868" />
        <path
           inkscape:transform-center-y="-127.49636"
           sodipodi:nodetypes="ssszs"
           inkscape:connector-curvature="0"
           id="path10092"
           d="m 146.44557,134.99659 c -10.19058,5.88353 -19.64407,8.58779 -21.11494,6.04014 -1.47089,-2.54766 5.59783,-9.38248 15.78841,-15.26601 10.19059,-5.88354 17.60655,-13.2383 21.11497,-6.04018 3.50841,7.19814 -5.59784,9.38249 -15.78844,15.26605 z"
           style="opacity:1;fill:#fefefe;fill-opacity:1;stroke:none;stroke-width:3.45664358;stroke-linejoin:round;stroke-miterlimit:4;stroke-dasharray:none;stroke-dashoffset:0;stroke-opacity:1;paint-order:stroke fill markers"
           inkscape:transform-center-x="-212.51689" />
        <path
           inkscape:transform-center-x="-235.5519"
           style="opacity:1;fill:#fefefe;fill-opacity:1;stroke:none;stroke-width:3.45664358;stroke-linejoin:round;stroke-miterlimit:4;stroke-dasharray:none;stroke-dashoffset:0;stroke-opacity:1;paint-order:stroke fill markers"
           d="m 149.4513,145.88666 c -11.3661,3.04553 -21.19739,3.21091 -21.95876,0.36937 -0.76139,-2.84152 7.83545,-7.61395 19.20156,-10.65948 11.36613,-3.04555 20.43295,-8.2303 21.95882,-0.3694 1.52584,7.8609 -7.83547,7.61396 -19.20162,10.65951 z"
           id="path10094"
           inkscape:connector-curvature="0"
           sodipodi:nodetypes="ssszs"
           inkscape:transform-center-y="-69.031437" />
        <path
           inkscape:transform-center-y="-1.5973728e-06"
           sodipodi:nodetypes="ssszs"
           inkscape:connector-curvature="0"
           id="path10096"
           d="m 149.53606,157.18361 c -11.76705,0 -21.30614,-2.3848 -21.30613,-5.32657 0,-2.94176 9.5391,-5.32654 21.30616,-5.32653 11.76708,-1e-5 21.86687,-2.66144 21.30619,5.32653 -0.56069,7.98797 -9.53912,5.32657 -21.30622,5.32657 z"
           style="opacity:1;fill:#fefefe;fill-opacity:1;stroke:none;stroke-width:3.45664358;stroke-linejoin:round;stroke-miterlimit:4;stroke-dasharray:none;stroke-dashoffset:0;stroke-opacity:1;paint-order:stroke fill markers"
           inkscape:transform-center-x="-243.58201" />
        <path
           inkscape:transform-center-x="-236.23392"
           style="opacity:1;fill:#fefefe;fill-opacity:1;stroke:none;stroke-width:3.45664358;stroke-linejoin:round;stroke-miterlimit:4;stroke-dasharray:none;stroke-dashoffset:0;stroke-opacity:1;paint-order:stroke fill markers"
           d="m 146.69407,168.11755 c -11.3661,-3.04553 -19.96292,-7.81797 -19.20153,-10.65949 0.76138,-2.84152 10.59268,-2.67615 21.95878,0.3694 11.36614,3.04553 21.81061,3.08881 19.2016,10.65948 -2.60903,7.57066 -10.5927,2.67616 -21.95885,-0.36939 z"
           id="path10098"
           inkscape:connector-curvature="0"
           sodipodi:nodetypes="ssszs"
           inkscape:transform-center-y="68.673365" />
        <path
           inkscape:transform-center-y="126.79745"
           sodipodi:nodetypes="ssszs"
           inkscape:connector-curvature="0"
           id="path10100"
           d="m 141.11901,177.94338 c -10.19057,-5.88353 -17.25927,-12.71837 -15.78838,-15.266 1.47088,-2.54765 10.92438,0.15662 21.11495,6.04016 10.1906,5.88353 20.26799,8.62856 15.78844,15.26601 -4.47956,6.63742 -10.92441,-0.15663 -21.11501,-6.04017 z"
           style="opacity:1;fill:#fefefe;fill-opacity:1;stroke:none;stroke-width:3.45664358;stroke-linejoin:round;stroke-miterlimit:4;stroke-dasharray:none;stroke-dashoffset:0;stroke-opacity:1;paint-order:stroke fill markers"
           inkscape:transform-center-x="-213.4451" />
        <path
           inkscape:transform-center-x="-176.4587"
           style="opacity:1;fill:#fefefe;fill-opacity:1;stroke:none;stroke-width:3.45664358;stroke-linejoin:round;stroke-miterlimit:4;stroke-dasharray:none;stroke-dashoffset:0;stroke-opacity:1;paint-order:stroke fill markers"
           d="m 133.1908,185.99147 c -8.32057,-8.32057 -13.37941,-16.75204 -11.29927,-18.83217 2.08014,-2.08016 10.5116,2.97873 18.83216,11.29931 8.3206,8.32057 17.34414,13.58029 11.29933,18.83217 -6.04481,5.25187 -10.51162,-2.97873 -18.83222,-11.29931 z"
           id="path10102"
           inkscape:connector-curvature="0"
           sodipodi:nodetypes="ssszs"
           inkscape:transform-center-y="175.55034" />
        <path
           inkscape:transform-center-y="212.51688"
           sodipodi:nodetypes="ssszs"
           inkscape:connector-curvature="0"
           id="path10104"
           d="m 123.44974,191.71334 c -5.88354,-10.19057 -8.58778,-19.64407 -6.04014,-21.11494 2.54765,-1.47089 9.38248,5.59784 15.266,15.78843 5.88356,10.19057 13.23831,17.60654 6.04019,21.11495 -7.19813,3.50841 -9.3825,-5.59785 -15.26605,-15.78844 z"
           style="opacity:1;fill:#fefefe;fill-opacity:1;stroke:none;stroke-width:3.45664358;stroke-linejoin:round;stroke-miterlimit:4;stroke-dasharray:none;stroke-dashoffset:0;stroke-opacity:1;paint-order:stroke fill markers"
           inkscape:transform-center-x="-127.49637" />
        <path
           inkscape:transform-center-x="-69.03143"
           style="opacity:1;fill:#fefefe;fill-opacity:1;stroke:none;stroke-width:3.45664358;stroke-linejoin:round;stroke-miterlimit:4;stroke-dasharray:none;stroke-dashoffset:0;stroke-opacity:1;paint-order:stroke fill markers"
           d="m 112.55966,194.71909 c -3.04554,-11.36612 -3.21089,-21.19741 -0.36937,-21.95879 2.84153,-0.76138 7.61395,7.83547 10.65947,19.20158 3.04557,11.36614 8.23033,20.43295 0.36943,21.9588 -7.8609,1.52585 -7.61397,-7.83548 -10.65953,-19.20159 z"
           id="path10106"
           inkscape:connector-curvature="0"
           sodipodi:nodetypes="ssszs"
           inkscape:transform-center-y="235.55187" />
        <path
           inkscape:transform-center-y="243.582"
           sodipodi:nodetypes="ssszs"
           inkscape:connector-curvature="0"
           id="path10108"
           d="m 101.26271,194.80384 c 0,-11.76706 2.38481,-21.30616 5.32657,-21.30615 2.94177,0 5.32655,9.53912 5.32653,21.30617 2e-5,11.7671 2.66144,21.86688 -5.32652,21.30619 -7.987966,-0.56069 -5.32656,-9.53914 -5.32658,-21.30621 z"
           style="opacity:1;fill:#fefefe;fill-opacity:1;stroke:none;stroke-width:3.45664358;stroke-linejoin:round;stroke-miterlimit:4;stroke-dasharray:none;stroke-dashoffset:0;stroke-opacity:1;paint-order:stroke fill markers"
           inkscape:transform-center-x="2.6146063e-06" />
        <path
           inkscape:transform-center-x="68.673354"
           style="opacity:1;fill:#fefefe;fill-opacity:1;stroke:none;stroke-width:3.45664358;stroke-linejoin:round;stroke-miterlimit:4;stroke-dasharray:none;stroke-dashoffset:0;stroke-opacity:1;paint-order:stroke fill markers"
           d="m 90.328763,191.96185 c 3.045541,-11.36611 7.817991,-19.96295 10.659507,-19.20155 2.84153,0.7614 2.67614,10.59271 -0.36941,21.95879 -3.045531,11.36616 -3.088808,21.81062 -10.659471,19.2016 -7.57066,-2.60903 -2.676141,-10.59273 0.369374,-21.95884 z"
           id="path10110"
           inkscape:connector-curvature="0"
           sodipodi:nodetypes="ssszs"
           inkscape:transform-center-y="236.23389" />
        <path
           inkscape:transform-center-y="213.44509"
           sodipodi:nodetypes="ssszs"
           inkscape:connector-curvature="0"
           id="path10112"
           d="m 80.502936,186.38678 c 5.883543,-10.19058 12.718394,-17.25927 15.266026,-15.78838 2.547642,1.47089 -0.156638,10.9244 -6.040174,21.11494 -5.883542,10.19063 -8.628558,20.268 -15.266001,15.78845 -6.637425,-4.47956 0.156643,-10.92442 6.040149,-21.11501 z"
           style="opacity:1;fill:#fefefe;fill-opacity:1;stroke:none;stroke-width:3.45664358;stroke-linejoin:round;stroke-miterlimit:4;stroke-dasharray:none;stroke-dashoffset:0;stroke-opacity:1;paint-order:stroke fill markers"
           inkscape:transform-center-x="126.79743" />
        <path
           inkscape:transform-center-x="175.55032"
           style="opacity:1;fill:#fefefe;fill-opacity:1;stroke:none;stroke-width:3.45664358;stroke-linejoin:round;stroke-miterlimit:4;stroke-dasharray:none;stroke-dashoffset:0;stroke-opacity:1;paint-order:stroke fill markers"
           d="m 72.454848,178.45856 c 8.320581,-8.32056 16.752058,-13.37942 18.83219,-11.29926 2.080137,2.08014 -2.978754,10.51162 -11.299318,18.83215 -8.320581,8.32062 -13.580288,17.34415 -18.832164,11.29934 -5.251876,-6.04482 2.978745,-10.51163 11.299292,-18.83223 z"
           id="path10114"
           inkscape:connector-curvature="0"
           sodipodi:nodetypes="ssszs"
           inkscape:transform-center-y="176.4587" />
        <path
           inkscape:transform-center-y="127.49638"
           sodipodi:nodetypes="ssszs"
           inkscape:connector-curvature="0"
           id="path10116"
           d="m 66.732974,168.71749 c 10.190591,-5.88352 19.644087,-8.58776 21.114959,-6.04011 1.470873,2.54765 -5.597857,9.38249 -15.788413,15.26598 -10.190608,5.88358 -17.606554,13.23833 -21.114959,6.0402 -3.508405,-7.19814 5.597858,-9.38251 15.788413,-15.26607 z"
           style="opacity:1;fill:#fefefe;fill-opacity:1;stroke:none;stroke-width:3.45664358;stroke-linejoin:round;stroke-miterlimit:4;stroke-dasharray:none;stroke-dashoffset:0;stroke-opacity:1;paint-order:stroke fill markers"
           inkscape:transform-center-x="212.51685" />
        <path
           inkscape:transform-center-x="235.55186"
           style="opacity:1;fill:#fefefe;fill-opacity:1;stroke:none;stroke-width:3.45664358;stroke-linejoin:round;stroke-miterlimit:4;stroke-dasharray:none;stroke-dashoffset:0;stroke-opacity:1;paint-order:stroke fill markers"
           d="m 63.727246,157.82741 c 11.366114,-3.04552 21.197408,-3.21087 21.958769,-0.36934 0.761378,2.84152 -7.83547,7.61395 -19.201549,10.65946 -11.366167,3.04557 -20.43296,8.23033 -21.958804,0.36944 -1.525843,-7.86092 7.835488,-7.61398 19.201584,-10.65956 z"
           id="path10118"
           inkscape:connector-curvature="0"
           sodipodi:nodetypes="ssszs"
           inkscape:transform-center-y="69.031437" />
        <path
           inkscape:transform-center-y="6.704443e-06"
           sodipodi:nodetypes="ssszs"
           inkscape:connector-curvature="0"
           id="path10120"
           d="m 63.642488,146.53046 c 11.767067,2e-5 21.306168,2.38484 21.306133,5.3266 0,2.94176 -9.539119,5.32655 -21.306133,5.32653 -11.767138,0 -21.866903,2.66144 -21.306204,-5.32651 0.5607,-7.98799 9.539155,-5.32657 21.306204,-5.32662 z"
           style="opacity:1;fill:#fefefe;fill-opacity:1;stroke:none;stroke-width:3.45664358;stroke-linejoin:round;stroke-miterlimit:4;stroke-dasharray:none;stroke-dashoffset:0;stroke-opacity:1;paint-order:stroke fill markers"
           inkscape:transform-center-x="243.58202" />
        <path
           inkscape:transform-center-x="236.23397"
           style="opacity:1;fill:#fefefe;fill-opacity:1;stroke:none;stroke-width:3.45664358;stroke-linejoin:round;stroke-miterlimit:4;stroke-dasharray:none;stroke-dashoffset:0;stroke-opacity:1;paint-order:stroke fill markers"
           d="m 66.484484,135.59652 c 11.366114,3.04555 19.962945,7.81801 19.201513,10.65953 -0.761379,2.84152 -10.59269,2.67614 -21.958751,-0.36941 -11.366167,-3.04556 -21.810626,-3.08881 -19.201601,-10.65946 2.609042,-7.57068 10.592725,-2.67616 21.958839,0.36934 z"
           id="path10122"
           inkscape:connector-curvature="0"
           sodipodi:nodetypes="ssszs"
           inkscape:transform-center-y="-68.673325" />
        <path
           inkscape:transform-center-y="-126.79742"
           sodipodi:nodetypes="ssszs"
           inkscape:connector-curvature="0"
           id="path10124"
           d="m 72.059556,125.77069 c 10.190573,5.88354 17.259267,12.71842 15.788342,15.26604 -1.470872,2.54763 -10.924386,-0.15663 -21.114906,-6.04015 -10.190626,-5.88358 -20.268012,-8.62858 -15.788449,-15.266 4.479581,-6.63745 10.924422,0.15662 21.115013,6.04011 z"
           style="opacity:1;fill:#fefefe;fill-opacity:1;stroke:none;stroke-width:3.45664358;stroke-linejoin:round;stroke-miterlimit:4;stroke-dasharray:none;stroke-dashoffset:0;stroke-opacity:1;paint-order:stroke fill markers"
           inkscape:transform-center-x="213.44517" />
        <path
           inkscape:transform-center-x="176.45876"
           style="opacity:1;fill:#fefefe;fill-opacity:1;stroke:none;stroke-width:3.45664358;stroke-linejoin:round;stroke-miterlimit:4;stroke-dasharray:none;stroke-dashoffset:0;stroke-opacity:1;paint-order:stroke fill markers"
           d="m 79.987773,117.72262 c 8.320564,8.32056 13.379404,16.75207 11.299228,18.83218 -2.08013,2.08012 -10.511607,-2.97873 -18.832136,-11.29929 -8.320599,-8.32062 -17.344149,-13.58031 -11.299326,-18.83217 6.04484,-5.25187 10.511635,2.97873 18.832234,11.29928 z"
           id="path10126"
           inkscape:connector-curvature="0"
           sodipodi:nodetypes="ssszs"
           inkscape:transform-center-y="-175.5503" />
        <path
           inkscape:transform-center-y="-212.51684"
           sodipodi:nodetypes="ssszs"
           inkscape:connector-curvature="0"
           id="path10128"
           d="m 89.728841,112.00074 c 5.883525,10.19058 8.587752,19.64411 6.040086,21.11495 -2.547627,1.47087 -9.382484,-5.59783 -15.265973,-15.7884 -5.883542,-10.19062 -13.238327,-17.606554 -6.040185,-21.114941 7.198143,-3.508405 9.382495,5.597841 15.266072,15.788391 z"
           style="opacity:1;fill:#fefefe;fill-opacity:1;stroke:none;stroke-width:3.45664358;stroke-linejoin:round;stroke-miterlimit:4;stroke-dasharray:none;stroke-dashoffset:0;stroke-opacity:1;paint-order:stroke fill markers"
           inkscape:transform-center-x="127.49642" />
        <path
           inkscape:transform-center-x="69.031435"
           style="opacity:1;fill:#fefefe;fill-opacity:1;stroke:none;stroke-width:3.45664358;stroke-linejoin:round;stroke-miterlimit:4;stroke-dasharray:none;stroke-dashoffset:0;stroke-opacity:1;paint-order:stroke fill markers"
           d="m 100.61892,108.99502 c 3.04553,11.36609 3.21086,21.19742 0.36932,21.95875 -2.841505,0.76138 -7.613957,-7.83545 -10.659458,-19.20155 -3.045534,-11.36615 -8.230322,-20.432944 -0.36942,-21.95877 7.860914,-1.525843 7.613965,7.835453 10.659558,19.20157 z"
           id="path10130"
           inkscape:connector-curvature="0"
           sodipodi:nodetypes="ssszs"
           inkscape:transform-center-y="-235.55185" />
      </g>
      <path
         id="path10134"
         d="m 98.7831,122.72315 -3.013003,3.013 h -4.26159 l -2.130551,3.69073 -4.116178,1.10269 -2.091959,7.80689 -5.714438,5.71443 1.102688,4.11569 -2.130552,3.69071 2.130552,3.69024 -1.102688,4.11618 5.714902,5.71444 2.091495,7.80639 4.116178,1.10269 2.130551,3.69073 h 4.26159 l 3.013003,3.013 7.8064,-2.09152 7.80642,2.09152 3.013,-3.013 h 4.26112 l 2.13055,-3.69073 4.11618,-1.10269 2.0915,-7.80593 5.7149,-5.7149 -1.10268,-4.11618 2.13055,-3.69024 -2.13055,-3.69024 1.10268,-4.11616 -5.7149,-5.71492 -2.0915,-7.8064 -4.11618,-1.10269 -2.13055,-3.69073 h -4.26112 l -3.013,-3.013 -7.80642,2.09198 z"
         style="fill:#4b4b4c;fill-opacity:1;stroke:none;stroke-width:0.13792676;filter:url(#filter9168)"
         inkscape:connector-curvature="0" />
      <path
         inkscape:connector-curvature="0"
         style="fill:#ffdd55;fill-opacity:1;stroke:none;stroke-width:0.13973299"
         d="m 98.680879,122.34164 -3.052456,3.05245 H 91.31101 l -2.158462,3.73905 -4.170063,1.11714 -2.119354,7.9091 -5.789288,5.78927 1.117143,4.1696 -2.158462,3.73904 2.158462,3.73858 -1.117143,4.17006 5.789752,5.78927 2.11889,7.90864 4.170063,1.11714 2.158462,3.73904 h 4.317413 l 3.052456,3.05246 7.908621,-2.11889 7.90864,2.11889 3.05245,-3.05246 h 4.31693 l 2.15846,-3.73904 4.17009,-1.11714 2.11889,-7.90816 5.78975,-5.78975 -1.11714,-4.17006 2.15846,-3.73858 -2.15846,-3.73856 1.11714,-4.17008 -5.78975,-5.78975 -2.11889,-7.90862 -4.17009,-1.11714 -2.15846,-3.73905 h -4.31693 l -3.05245,-3.05245 -7.90864,2.11935 z"
         id="path10136" />
      <g
         id="g9602">
        <g
           id="g9529"
           style="fill:#666666;filter:url(#filter9595)">
          <path
             inkscape:connector-curvature="0"
             id="path9525"
             d="m 107.60492,170.89062 v -2.33772 l -0.7993,-1.03873 c -1.87635,-2.43847 -3.89103,-4.02459 -7.360395,-5.79478 -3.685488,-1.88046 -5.15176,-3.05834 -6.60968,-5.30967 -1.711376,-2.64272 -2.971681,-6.61924 -3.8204,-12.05419 -0.199614,-1.27826 -0.408552,-2.59746 -0.464309,-2.93159 -0.101017,-0.60535 -0.09615,-0.60261 1.386615,0.77261 1.913781,1.77503 4.669621,3.60649 8.370969,5.56319 1.622419,0.85767 3.6073,1.99219 4.41085,2.52117 1.81136,1.19243 3.44175,2.94649 4.26117,4.58444 l 0.62448,1.24823 4.9e-4,-2.39282 c 2.4e-4,-1.31607 -0.0891,-3.25029 -0.19852,-4.29825 -0.38718,-3.70696 0.3358,-6.26478 2.25119,-7.96444 0.53111,-0.47128 2.07279,-1.46026 3.42596,-2.19772 2.03858,-1.11102 2.7195,-1.59379 3.97241,-2.81649 0.83166,-0.81163 1.55523,-1.43255 1.60792,-1.37984 0.0527,0.0527 0.12801,1.2799 0.16736,2.72709 0.0826,3.03642 -0.16289,4.45151 -1.06606,6.14602 -0.97456,1.82846 -2.1862,2.88843 -5.69128,4.97891 -1.03245,0.61574 -2.2191,1.39561 -2.63699,1.73298 l -0.75981,0.61345 v 10.98292 10.98293 h -0.53634 -0.53633 z"
             style="fill:#666666;fill-opacity:1;stroke-width:0.1787788" />
          <path
             inkscape:connector-curvature="0"
             id="path9527"
             d="m 105.73395,142.25314 c -0.18534,-0.3186 -0.89161,-1.17666 -1.56949,-1.90677 -1.78408,-1.92157 -2.01536,-2.43005 -1.99836,-4.39344 0.0113,-1.30704 0.12193,-1.93611 0.58943,-3.35208 0.31651,-0.95871 0.6103,-1.74312 0.65285,-1.74312 0.0426,0 0.24995,0.34191 0.46089,0.75982 0.21094,0.41789 0.9341,1.60739 1.60703,2.64329 1.43873,2.21483 1.77106,3.059 1.77106,4.49882 0,0.97199 -0.69232,3.57709 -1.04719,3.94042 -0.0711,0.0728 -0.28089,-0.12834 -0.46622,-0.44694 z"
             style="fill:#666666;fill-opacity:1;stroke-width:0.1787788" />
        </g>
      </g>
      <g
         id="g9523">
        <path
           inkscape:connector-curvature="0"
           id="path10138"
           d="m 107.60492,170.89062 v -2.33772 l -0.7993,-1.03873 c -1.87635,-2.43847 -3.89103,-4.02459 -7.360395,-5.79478 -3.685488,-1.88046 -5.15176,-3.05834 -6.60968,-5.30967 -1.711376,-2.64272 -2.971681,-6.61924 -3.8204,-12.05419 -0.199614,-1.27826 -0.408552,-2.59746 -0.464309,-2.93159 -0.101017,-0.60535 -0.09615,-0.60261 1.386615,0.77261 1.913781,1.77503 4.669621,3.60649 8.370969,5.56319 1.622419,0.85767 3.6073,1.99219 4.41085,2.52117 1.81136,1.19243 3.44175,2.94649 4.26117,4.58444 l 0.62448,1.24823 4.9e-4,-2.39282 c 2.4e-4,-1.31607 -0.0891,-3.25029 -0.19852,-4.29825 -0.38718,-3.70696 0.3358,-6.26478 2.25119,-7.96444 0.53111,-0.47128 2.07279,-1.46026 3.42596,-2.19772 2.03858,-1.11102 2.7195,-1.59379 3.97241,-2.81649 0.83166,-0.81163 1.55523,-1.43255 1.60792,-1.37984 0.0527,0.0527 0.12801,1.2799 0.16736,2.72709 0.0826,3.03642 -0.16289,4.45151 -1.06606,6.14602 -0.97456,1.82846 -2.1862,2.88843 -5.69128,4.97891 -1.03245,0.61574 -2.2191,1.39561 -2.63699,1.73298 l -0.75981,0.61345 v 10.98292 10.98293 h -0.53634 -0.53633 z"
           style="fill:#ffffff;fill-opacity:1;stroke-width:0.1787788" />
        <path
           inkscape:connector-curvature="0"
           id="path10140"
           d="m 105.73395,142.25314 c -0.18534,-0.3186 -0.89161,-1.17666 -1.56949,-1.90677 -1.78408,-1.92157 -2.01536,-2.43005 -1.99836,-4.39344 0.0113,-1.30704 0.12193,-1.93611 0.58943,-3.35208 0.31651,-0.95871 0.6103,-1.74312 0.65285,-1.74312 0.0426,0 0.24995,0.34191 0.46089,0.75982 0.21094,0.41789 0.9341,1.60739 1.60703,2.64329 1.43873,2.21483 1.77106,3.059 1.77106,4.49882 0,0.97199 -0.69232,3.57709 -1.04719,3.94042 -0.0711,0.0728 -0.28089,-0.12834 -0.46622,-0.44694 z"
           style="fill:#ffffff;fill-opacity:1;stroke-width:0.1787788" />
      </g>
      <path
         id="path10142"
         d="m 98.680875,122.34163 -3.052458,3.05246 h -4.317401 l -2.15846,3.73905 -4.17007,1.11713 -2.119357,7.90912 -5.789287,5.78927 1.117143,4.16959 -2.158463,3.73905 2.158463,3.73857 -1.117143,4.17007 5.789751,5.78927 2.118893,7.90864 4.17007,1.11713 2.15846,3.73905 h 4.317401 l 3.052458,3.05246 7.908635,-2.11889 7.90864,2.11889 3.05246,-3.05246 h 4.31692 l 2.15846,-3.73905 4.17007,-1.11713 2.11889,-7.90816 5.78975,-5.78975 -1.11713,-4.17007 2.15846,-3.73857 -2.15846,-3.73857 1.11713,-4.17007 -5.78975,-5.78975 -2.11889,-7.90864 -4.17007,-1.11713 -2.15846,-3.73905 h -4.31692 l -3.05246,-3.05246 -7.90864,2.11937 z"
         style="fill:none;fill-opacity:1;stroke:none;stroke-width:0.13973299"
         inkscape:connector-curvature="0" />
    </g>
  </g>
</svg>
