<?xml version="1.0" encoding="UTF-8" standalone="no"?>
<!-- Created with Inkscape (http://www.inkscape.org/) -->

<svg
   xmlns:dc="http://purl.org/dc/elements/1.1/"
   xmlns:cc="http://creativecommons.org/ns#"
   xmlns:rdf="http://www.w3.org/1999/02/22-rdf-syntax-ns#"
   xmlns:svg="http://www.w3.org/2000/svg"
   xmlns="http://www.w3.org/2000/svg"
   xmlns:xlink="http://www.w3.org/1999/xlink"
   xmlns:sodipodi="http://sodipodi.sourceforge.net/DTD/sodipodi-0.dtd"
   xmlns:inkscape="http://www.inkscape.org/namespaces/inkscape"
   width="210mm"
   height="297mm"
   viewBox="0 0 210 297"
   version="1.1"
   id="svg8"
   inkscape:version="0.92.1 unknown"
   sodipodi:docname="ubiquity.svg">
  <defs
     id="defs2" />
  <sodipodi:namedview
     id="base"
     pagecolor="#ffffff"
     bordercolor="#666666"
     borderopacity="1.0"
     inkscape:pageopacity="0.0"
     inkscape:pageshadow="2"
     inkscape:zoom="3.959798"
     inkscape:cx="1095.696"
     inkscape:cy="773.87896"
     inkscape:document-units="mm"
     inkscape:current-layer="layer1"
     showgrid="false"
     inkscape:snap-global="false"
     inkscape:snap-bbox="true"
     inkscape:bbox-paths="true"
     inkscape:bbox-nodes="true"
     inkscape:snap-bbox-edge-midpoints="true"
     inkscape:snap-bbox-midpoints="true"
     inkscape:object-paths="true"
     inkscape:snap-intersection-paths="true"
     inkscape:snap-smooth-nodes="true"
     inkscape:snap-midpoints="true"
     inkscape:snap-object-midpoints="true"
     inkscape:snap-center="true"
     inkscape:snap-text-baseline="true"
     inkscape:snap-page="true"
     inkscape:snap-nodes="false"
     inkscape:window-width="1366"
     inkscape:window-height="717"
     inkscape:window-x="0"
     inkscape:window-y="25"
     inkscape:window-maximized="1" />
  <metadata
     id="metadata5">
    <rdf:RDF>
      <cc:Work
         rdf:about="">
        <dc:format>image/svg+xml</dc:format>
        <dc:type
           rdf:resource="http://purl.org/dc/dcmitype/StillImage" />
        <dc:title></dc:title>
      </cc:Work>
    </rdf:RDF>
  </metadata>
  <g
     inkscape:label="Layer 1"
     inkscape:groupmode="layer"
     id="layer1">
    <rect
       style="opacity:1;fill:#bfbfbf;fill-opacity:1;stroke:none;stroke-width:0.46499997;stroke-linecap:round;stroke-linejoin:round;stroke-miterlimit:4;stroke-dasharray:none;stroke-dashoffset:0;stroke-opacity:1;paint-order:normal"
       id="rect4575"
       width="95.147957"
       height="74.033661"
       x="227.17909"
       y="114.98945" />
    <image
       sodipodi:absref="/home/as3mbus/Chamomile-Tea-Theme/ubiquity-slideshow/slides/images/logo_tealinux.png"
       xlink:href="ubiquity-slideshow/slides/images/logo_tealinux.png"
       width="84.666664"
       height="84.666664"
       preserveAspectRatio="none"
       style="image-rendering:optimizeQuality"
       id="image4493"
       x="105.83334"
       y="30.904766" />
    <rect
       style="opacity:1;fill:#000000;fill-opacity:1;stroke:#cc0000;stroke-width:0.46499997;stroke-linecap:round;stroke-linejoin:round;stroke-miterlimit:4;stroke-dasharray:none;stroke-dashoffset:0;stroke-opacity:1;paint-order:normal"
       id="rect4507"
       width="96.217026"
       height="65.481033"
       x="110.64958"
       y="185.81587"
       ry="3.883369" />
    <image
       sodipodi:absref="/home/as3mbus/Chamomile-Tea-Theme/ubiquity-slideshow/slides/images/logo_xubuntu.png"
       xlink:href="ubiquity-slideshow/slides/images/logo_xubuntu.png"
       inkscape:export-ydpi="96"
       inkscape:export-xdpi="96"
       width="25.4"
       height="25.4"
       preserveAspectRatio="none"
       style="image-rendering:optimizeQuality"
       id="image4504"
       x="127.90715"
       y="189.04999" />
    <image
       sodipodi:absref="/home/as3mbus/xubuntu.png"
       y="209.17723"
       x="166.27173"
       id="image4517"
       xlink:href="file:///home/as3mbus/xubuntu.png"
       style="image-rendering:optimizeQuality"
       preserveAspectRatio="none"
       height="25.4"
       width="25.4" />
    <rect
       style="opacity:1;fill:#bfbfbf;fill-opacity:1;stroke:none;stroke-width:0.46499997;stroke-linecap:round;stroke-linejoin:round;stroke-miterlimit:4;stroke-dasharray:none;stroke-dashoffset:0;stroke-opacity:1;paint-order:normal"
       id="rect4520"
       width="25.4"
       height="25.4"
       x="217.20871"
       y="81.931541"
       inkscape:export-xdpi="96"
       inkscape:export-ydpi="96" />
    <path
       style="fill:#ffffff;stroke-width:0.16872409"
       d="m 233.44978,102.05176 c -0.69772,-0.0859 -1.53225,-0.35112 -2.30147,-0.73129 -3.99382,-1.973859 -5.63005,-6.728064 -3.67863,-10.688528 2.92554,-5.937447 11.39265,-5.937447 14.3182,0 1.93727,3.931711 0.32943,8.685986 -3.60273,10.653178 -0.65998,0.33017 -1.55932,0.64569 -1.99853,0.70117 -0.43923,0.0554 -0.98839,0.12321 -1.22039,0.15057 -0.232,0.0274 -0.9144,-0.011 -1.51645,-0.0851 z m 0.7816,-3.20078 c 2.60882,-0.799966 5.46038,-2.623001 5.45849,-3.489664 -0.003,-1.069757 -1.45639,-2.00047 -3.91646,-2.506852 -1.57732,-0.324677 -1.6508,-0.402393 -1.6508,-1.745895 0,-0.555504 -0.58445,-1.351459 -0.99234,-1.351459 -0.81077,0 -1.07413,0.746826 -0.80324,2.277778 l 0.11942,0.674895 -0.51606,-0.920714 c -0.74006,-1.320339 -1.27583,-1.548661 -1.79058,-0.763062 -0.23091,0.35241 -0.24975,0.571422 -0.10998,1.278366 0.13813,0.698566 0.1115,1.036852 -0.14704,1.867536 -0.37623,1.208825 -0.4101,2.962773 -0.0728,3.770046 0.52679,1.260772 2.17153,1.598927 4.42139,0.909025 z m 4.38938,-6.773914 c 0.59693,-1.00218 1.06975,-2.076585 1.06975,-2.430857 0,-0.870681 -1.79642,1.637861 -1.97911,2.763659 -0.13885,0.855579 0.2964,0.696295 0.90936,-0.332802 z m -1.31569,-0.407769 c 0.10561,-0.525864 0.19203,-1.329414 0.19203,-1.785661 0,-1.868058 -0.78755,-0.02111 -0.82737,1.940347 -0.0238,1.172043 0.38908,1.071523 0.63534,-0.154686 z"
       id="path4522"
       inkscape:connector-curvature="0"
       inkscape:export-xdpi="96"
       inkscape:export-ydpi="96" />
    <image
       sodipodi:absref="/home/as3mbus/Chamomile-Tea-Theme/ubiquity-slideshow/slides/images/package.png"
       xlink:href="ubiquity-slideshow/slides/images/package.png"
       inkscape:export-ydpi="96"
       inkscape:export-xdpi="96"
       width="25.4"
       height="25.4"
       preserveAspectRatio="none"
       style="image-rendering:optimizeQuality"
       id="image4543"
       x="124.61122"
       y="222.20609" />
    <image
       sodipodi:absref="/home/as3mbus/package.png"
       y="230.06041"
       x="243.56786"
       id="image4554"
       xlink:href="file:///home/as3mbus/package.png"
       style="image-rendering:optimizeQuality"
       preserveAspectRatio="none"
       height="25.4"
       width="25.4" />
    <rect
       inkscape:export-ydpi="96"
       inkscape:export-xdpi="96"
       y="81.931541"
       x="246.50186"
       height="25.4"
       width="25.4"
       id="rect4559"
       style="opacity:1;fill:#bfbfbf;fill-opacity:1;stroke:none;stroke-width:0.46499997;stroke-linecap:round;stroke-linejoin:round;stroke-miterlimit:4;stroke-dasharray:none;stroke-dashoffset:0;stroke-opacity:1;paint-order:normal" />
    <path
       inkscape:connector-curvature="0"
       id="path4561"
       d="m 256.03955,95.761041 v -6.278822 h 7.93115 7.93116 v 6.278822 6.278829 h -7.93116 -7.93115 z m 9.08777,2.328955 v -2.628015 l 0.72614,-0.42554 c 1.19079,-0.697848 1.58712,-1.290604 1.58712,-2.373675 v -0.924903 l -0.37177,0.332539 c -0.20448,0.182898 -0.64938,0.498582 -0.98869,0.701533 -1.04876,0.627297 -1.28325,1.060326 -1.28325,2.36969 v 1.15357 l -0.65348,-0.590384 c -0.35942,-0.324708 -0.97285,-0.751648 -1.36318,-0.948752 -0.39033,-0.197105 -1.07507,-0.624563 -1.52164,-0.949915 l -0.81198,-0.591539 0.10358,0.73621 c 0.29952,2.129484 1.02083,3.327206 2.43548,4.044063 1.21369,0.61502 1.81125,1.299566 1.81125,2.074912 0,0.35652 0.0744,0.64822 0.16523,0.64822 0.10326,0 0.16522,-0.986161 0.16522,-2.628014 z m -0.43074,-4.903568 c 0.18819,-0.490432 0.10053,-0.918677 -0.34316,-1.675721 -0.37932,-0.647245 -0.46127,-0.711242 -0.5667,-0.442502 -0.24434,0.622839 -0.15002,1.414062 0.22529,1.889924 0.43214,0.547912 0.5472,0.58628 0.68457,0.228299 z m -8.32065,-4.271187 c 0.13306,-0.130083 0.94831,-0.798985 1.81164,-1.486447 l 1.5697,-1.249937 h 4.21343 4.21343 l 1.56971,1.249937 c 0.86333,0.687462 1.67858,1.356364 1.81164,1.486447 0.20999,0.205267 -0.79321,0.236511 -7.59478,0.236511 -6.80156,0 -7.80476,-0.03122 -7.59477,-0.236511 z"
       style="fill:#ffffff;stroke-width:0.16523229" />
    <rect
       style="opacity:1;fill:#bfbfbf;fill-opacity:1;stroke:none;stroke-width:0.46499997;stroke-linecap:round;stroke-linejoin:round;stroke-miterlimit:4;stroke-dasharray:none;stroke-dashoffset:0;stroke-opacity:1;paint-order:normal"
       id="rect4598"
       width="25.4"
       height="25.4"
       x="279.48029"
       y="81.931541"
       inkscape:export-xdpi="96"
       inkscape:export-ydpi="96"
       inkscape:export-filename="/home/as3mbus/tealinuxos.png" />
    <g
       id="g4631"
       transform="matrix(0.83800008,0,0,0.83800008,46.759036,15.182127)">
      <g
         transform="matrix(0.04079671,0,0,0.03667591,38.347059,-31.916072)"
         id="g4602"
         style="fill:#ffffff;fill-opacity:1">
        <path
           transform="matrix(1.9753269,0,0,2.1972693,14383.612,1326.6162)"
           style="fill:#ffffff;fill-opacity:1;stroke:none;stroke-width:0.47999737"
           d="m -4054.7266,880.7832 c -14.8815,32.7056 3.5713,30.40122 10.4278,44.59961 12.4306,-22.82692 -1.213,-26.35273 -10.4278,-44.59961 z m 59.3496,14.82227 c -13.9855,19.82446 -38.0143,16.875 -43.1367,41.26367 h -0.4023 v 2.21289 c -0.7333,4.78367 -0.7809,10.56694 0,17.60742 v 21.90235 c -11.0667,-29.79668 -44.3827,-27.49021 -74.086,-59.47266 13.3225,96.62346 42.3293,66.24965 74.086,106.92386 v 18.9394 h 4.7148 v -86.36912 c 16.7326,-14.34932 47.361,-16.46964 38.8242,-63.00781 z"
           id="path4600"
           inkscape:connector-curvature="0" />
      </g>
      <circle
         style="color:#000000;clip-rule:nonzero;display:inline;overflow:visible;visibility:visible;opacity:1;isolation:auto;mix-blend-mode:normal;color-interpolation:sRGB;color-interpolation-filters:linearRGB;solid-color:#000000;solid-opacity:1;fill:#ffffff;fill-opacity:0;fill-rule:nonzero;stroke:none;stroke-width:0.14903536;stroke-linecap:round;stroke-linejoin:round;stroke-miterlimit:4;stroke-dasharray:none;stroke-dashoffset:0;stroke-opacity:1;color-rendering:auto;image-rendering:auto;shape-rendering:auto;text-rendering:auto;enable-background:accumulate"
         id="circle4604"
         cx="299.36829"
         cy="94.214981"
         r="6.6688271" />
    </g>
    <path
       inkscape:transform-center-y="-1.8683671e-06"
       inkscape:transform-center-x="3.3796866e-06"
       d="m 304.20806,97.960321 c -0.3798,0.657839 -5.81878,3.798039 -6.57839,3.798039 -0.75961,0 -6.19859,-3.1402 -6.57839,-3.798039 -0.37981,-0.657839 -0.37981,-6.938233 0,-7.596072 0.3798,-0.657839 5.81878,-3.798036 6.57839,-3.798036 0.75961,0 6.19859,3.140197 6.57839,3.798036 0.3798,0.657839 0.3798,6.938233 0,7.596072 z"
       inkscape:randomized="0"
       inkscape:rounded="0.1"
       inkscape:flatsided="true"
       sodipodi:arg2="1.0471976"
       sodipodi:arg1="0.52359878"
       sodipodi:r2="6.5783916"
       sodipodi:r1="7.5960722"
       sodipodi:cy="94.162285"
       sodipodi:cx="297.62967"
       sodipodi:sides="6"
       id="path4608"
       style="opacity:1;fill:none;fill-opacity:1;stroke:#ffffff;stroke-width:0.77471286;stroke-linecap:round;stroke-linejoin:round;stroke-miterlimit:4;stroke-dasharray:none;stroke-dashoffset:0;stroke-opacity:1;paint-order:normal"
       sodipodi:type="star" />
  </g>
</svg>
