<?xml version="1.0" encoding="UTF-8" standalone="no"?>
<!-- Created with Inkscape (http://www.inkscape.org/) -->

<svg
   xmlns:dc="http://purl.org/dc/elements/1.1/"
   xmlns:cc="http://creativecommons.org/ns#"
   xmlns:rdf="http://www.w3.org/1999/02/22-rdf-syntax-ns#"
   xmlns:svg="http://www.w3.org/2000/svg"
   xmlns="http://www.w3.org/2000/svg"
   xmlns:xlink="http://www.w3.org/1999/xlink"
   xmlns:sodipodi="http://sodipodi.sourceforge.net/DTD/sodipodi-0.dtd"
   xmlns:inkscape="http://www.inkscape.org/namespaces/inkscape"
   width="131.53571mm"
   height="44.223213mm"
   viewBox="0 0 131.53571 44.223213"
   version="1.1"
   id="svg4670"
   inkscape:version="0.92.1 unknown"
   sodipodi:docname="whisker.svg">
  <defs
     id="defs4664">
    <clipPath
       clipPathUnits="userSpaceOnUse"
       id="clipPath5074">
      <path
         id="path5076"
         d="M 46.656853,51.315475 V 95.538616 H 84.627662 L 99.955409,73.426786 84.628178,51.315475 Z"
         style="opacity:1;vector-effect:none;fill:#4fc780;fill-opacity:1;stroke:none;stroke-width:0.43826774;stroke-linecap:round;stroke-linejoin:round;stroke-miterlimit:4;stroke-dasharray:none;stroke-dashoffset:0;stroke-opacity:1;paint-order:normal"
         inkscape:connector-curvature="0" />
    </clipPath>
    <clipPath
       clipPathUnits="userSpaceOnUse"
       id="clipPath5089">
      <path
         inkscape:connector-curvature="0"
         id="path5091"
         d="m 88.642921,51.315475 14.525729,20.954276 a 1.6503946,1.6503946 0 0 1 0.41289,0.767395 1.6503946,1.6503946 0 0 1 -0.4811,1.644861 L 88.643437,95.538616 h 74.036303 l 15.32775,-22.11183 -15.32723,-22.111311 z"
         style="opacity:1;vector-effect:none;fill:#4fc780;fill-opacity:1;stroke:none;stroke-width:0.43826774;stroke-linecap:round;stroke-linejoin:round;stroke-miterlimit:4;stroke-dasharray:none;stroke-dashoffset:0;stroke-opacity:1;paint-order:normal" />
    </clipPath>
  </defs>
  <sodipodi:namedview
     id="base"
     pagecolor="#ffffff"
     bordercolor="#666666"
     borderopacity="1.0"
     inkscape:pageopacity="0.0"
     inkscape:pageshadow="2"
     inkscape:zoom="0.70710678"
     inkscape:cx="336.94705"
     inkscape:cy="-67.071634"
     inkscape:document-units="mm"
     inkscape:current-layer="layer1"
     showgrid="false"
     inkscape:snap-global="true"
     inkscape:snap-bbox="true"
     inkscape:bbox-paths="true"
     inkscape:bbox-nodes="true"
     inkscape:snap-bbox-edge-midpoints="true"
     inkscape:snap-bbox-midpoints="true"
     inkscape:window-width="1366"
     inkscape:window-height="713"
     inkscape:window-x="0"
     inkscape:window-y="29"
     inkscape:window-maximized="1"
     fit-margin-top="0"
     fit-margin-left="0"
     fit-margin-right="0"
     fit-margin-bottom="0"
     inkscape:snap-text-baseline="false"
     inkscape:snap-page="true" />
  <metadata
     id="metadata4667">
    <rdf:RDF>
      <cc:Work
         rdf:about="">
        <dc:format>image/svg+xml</dc:format>
        <dc:type
           rdf:resource="http://purl.org/dc/dcmitype/StillImage" />
        <dc:title />
      </cc:Work>
    </rdf:RDF>
  </metadata>
  <g
     inkscape:label="Layer 1"
     inkscape:groupmode="layer"
     id="layer1"
     transform="translate(-46.656853,-51.315475)">
    <flowRoot
       xml:space="preserve"
       id="flowRoot5227"
       style="font-style:normal;font-variant:normal;font-weight:normal;font-stretch:normal;font-size:40px;line-height:0%;font-family:'Century Gothic';-inkscape-font-specification:'Century Gothic, Normal';font-variant-ligatures:normal;font-variant-caps:normal;font-variant-numeric:normal;font-feature-settings:normal;text-align:start;letter-spacing:0px;word-spacing:0px;writing-mode:lr-tb;text-anchor:start;fill:#000000;fill-opacity:1;stroke:none;stroke-width:1px;stroke-linecap:butt;stroke-linejoin:miter;stroke-opacity:1"><flowRegion
         id="flowRegion5229"><rect
           id="rect5231"
           width="617.14288"
           height="342.85715"
           x="20"
           y="245.37683" /></flowRegion><flowPara
         id="flowPara5233" /></flowRoot>    <path
       inkscape:connector-curvature="0"
       id="path4659"
       d="m 69.679893,134.13006 -10.58242,28.87737 46.820847,-28.87737 z"
       style="fill:#000000;fill-rule:evenodd;stroke:none;stroke-width:0.17277063px;stroke-linecap:butt;stroke-linejoin:miter;stroke-opacity:1;fill-opacity:0.24056605"
       sodipodi:nodetypes="cccc" />
    <path
       sodipodi:nodetypes="cccc"
       style="fill:#ffffff;fill-opacity:0.24056605;fill-rule:evenodd;stroke:none;stroke-width:0.17277063px;stroke-linecap:butt;stroke-linejoin:miter;stroke-opacity:1"
       d="m 142.17573,134.13006 -10.58242,28.87737 46.82084,-28.87737 z"
       id="path4825"
       inkscape:connector-curvature="0" />
    <use
       id="use4847"
       inkscape:spray-origin="#path4825"
       xlink:href="#path4825"
       transform="matrix(0.47665773,1.4365598,-1.4365598,0.47665773,234.97843,-252.14432)"
       x="0"
       y="0"
       width="100%"
       height="100%" />
    <g
       id="g4879">
      <path
         inkscape:connector-curvature="0"
         id="path4589"
         transform="matrix(0.26458333,0,0,0.26458333,46.656853,51.315475)"
         d="m 158.6875,0 54.90039,79.197266 a 6.2377118,6.2377118 0 0 1 1.56055,2.90039 6.2377118,6.2377118 0 0 1 -1.81836,6.216797 L 158.68945,167.14258 H 438.51172 L 496.44336,83.570312 438.51367,0 Z"
         style="opacity:1;vector-effect:none;fill:#4fc780;fill-opacity:1;stroke:none;stroke-width:1.65644503;stroke-linecap:round;stroke-linejoin:round;stroke-miterlimit:4;stroke-dasharray:none;stroke-dashoffset:0;stroke-opacity:1;paint-order:normal" />
      <text
         id="text5255"
         y="85.471169"
         x="105.67801"
         style="font-style:normal;font-variant:normal;font-weight:normal;font-stretch:normal;font-size:33.53676605px;line-height:0%;font-family:'Century Gothic';-inkscape-font-specification:'Century Gothic, Normal';font-variant-ligatures:normal;font-variant-caps:normal;font-variant-numeric:normal;font-feature-settings:normal;text-align:start;letter-spacing:0px;word-spacing:0px;writing-mode:lr-tb;text-anchor:start;fill:#ffffff;fill-opacity:1;stroke:none;stroke-width:0.83841908px;stroke-linecap:butt;stroke-linejoin:miter;stroke-opacity:1"
         xml:space="preserve"><tspan
           style="fill:#ffffff;fill-opacity:1;stroke-width:0.83841908px"
           y="85.471169"
           x="105.67801"
           id="tspan5253"
           sodipodi:role="line">TEA</tspan></text>
    </g>
    <g
       id="g4874">
      <path
         id="path4591"
         d="m 46.656853,51.315475 v 44.22314 H 84.627662 L 99.955408,73.426786 84.628178,51.315475 Z"
         style="opacity:1;vector-effect:none;fill:#4fc780;fill-opacity:1;stroke:none;stroke-width:0.43826774;stroke-linecap:round;stroke-linejoin:round;stroke-miterlimit:4;stroke-dasharray:none;stroke-dashoffset:0;stroke-opacity:1;paint-order:normal"
         inkscape:connector-curvature="0" />
      <g
         transform="matrix(3.1907825,0,0,3.1907825,-884.08377,-227.29903)"
         id="g4631">
        <g
           style="fill:#ffffff;fill-opacity:1"
           id="g4602"
           transform="matrix(0.04079671,0,0,0.03667591,38.347059,-31.916072)">
          <path
             inkscape:connector-curvature="0"
             id="path4600"
             d="m -4054.7266,880.7832 c -14.8815,32.7056 3.5713,30.40122 10.4278,44.59961 12.4306,-22.82692 -1.213,-26.35273 -10.4278,-44.59961 z m 59.3496,14.82227 c -13.9855,19.82446 -38.0143,16.875 -43.1367,41.26367 h -0.4023 v 2.21289 c -0.7333,4.78367 -0.7809,10.56694 0,17.60742 v 21.90235 c -11.0667,-29.79668 -44.3827,-27.49021 -74.086,-59.47266 13.3225,96.62346 42.3293,66.24965 74.086,106.92386 v 18.9394 h 4.7148 v -86.36912 c 16.7326,-14.34932 47.361,-16.46964 38.8242,-63.00781 z"
             style="fill:#ffffff;fill-opacity:1;stroke:none;stroke-width:0.47999737"
             transform="matrix(1.9753269,0,0,2.1972693,14383.612,1326.6162)" />
        </g>
        <circle
           r="6.6688271"
           cy="94.214981"
           cx="299.36829"
           id="circle4604"
           style="color:#000000;clip-rule:nonzero;display:inline;overflow:visible;visibility:visible;opacity:1;isolation:auto;mix-blend-mode:normal;color-interpolation:sRGB;color-interpolation-filters:linearRGB;solid-color:#000000;solid-opacity:1;fill:#ffffff;fill-opacity:0;fill-rule:nonzero;stroke:none;stroke-width:0.14903536;stroke-linecap:round;stroke-linejoin:round;stroke-miterlimit:4;stroke-dasharray:none;stroke-dashoffset:0;stroke-opacity:1;color-rendering:auto;image-rendering:auto;shape-rendering:auto;text-rendering:auto;enable-background:accumulate" />
      </g>
    </g>
    <g
       id="g4933"
       clip-path="url(#clipPath5089)">
      <use
         height="100%"
         width="100%"
         y="0"
         x="0"
         transform="matrix(1.1776959,0.39981186,-0.39981186,1.1776959,87.728003,-138.62477)"
         xlink:href="#path4659"
         inkscape:spray-origin="#path4659"
         id="use4761" />
      <use
         height="100%"
         width="100%"
         y="0"
         x="0"
         transform="matrix(1.1737616,-0.79867504,0.79867504,1.1737616,-60.322865,-17.152304)"
         xlink:href="#path4659"
         inkscape:spray-origin="#path4659"
         id="use4771" />
      <use
         height="100%"
         width="100%"
         y="0"
         x="0"
         transform="matrix(0.74653362,0.67576536,-0.67576536,0.74653362,26.596946,-140.89634)"
         xlink:href="#path4825"
         inkscape:spray-origin="#path4825"
         id="use4827" />
      <use
         height="100%"
         width="100%"
         y="0"
         x="0"
         transform="matrix(0.45002421,1.3241926,-1.3241926,0.45002421,261.51909,-180.74883)"
         xlink:href="#path4825"
         inkscape:spray-origin="#path4825"
         id="use4835" />
      <use
         height="100%"
         width="100%"
         y="0"
         x="0"
         transform="matrix(0.71494705,-0.23269993,0.23269993,0.71494705,-45.134448,10.687282)"
         xlink:href="#path4825"
         inkscape:spray-origin="#path4825"
         id="use4843" />
      <use
         height="100%"
         width="100%"
         y="0"
         x="0"
         transform="matrix(0.51938461,-1.2673042,1.2673042,0.51938461,-85.165553,189.83943)"
         xlink:href="#path4825"
         inkscape:spray-origin="#path4825"
         id="use4845" />
      <use
         height="100%"
         width="100%"
         y="0"
         x="0"
         transform="matrix(0.61555806,-0.61185608,0.61185608,0.61555806,-106.4105,27.30046)"
         xlink:href="#path4659"
         inkscape:spray-origin="#path4659"
         id="use4759" />
      <use
         height="100%"
         width="100%"
         y="0"
         x="0"
         transform="matrix(0.61041134,1.0095423,-1.0095423,0.61041134,154.74593,-78.630506)"
         xlink:href="#path4659"
         inkscape:spray-origin="#path4659"
         id="use4773" />
      <use
         height="100%"
         width="100%"
         y="0"
         x="0"
         transform="matrix(0.43597683,-0.93310434,0.93310434,0.43597683,-102.07445,70.457872)"
         xlink:href="#path4659"
         inkscape:spray-origin="#path4659"
         id="use4823" />
      <use
         height="100%"
         width="100%"
         y="0"
         x="0"
         transform="matrix(0.99654331,0.03666121,-0.03666121,0.99654331,-66.322643,-100.62431)"
         xlink:href="#path4825"
         inkscape:spray-origin="#path4825"
         id="use4849" />
    </g>
    <g
       id="g5072"
       clip-path="url(#clipPath5074)">
      <use
         id="use5052"
         inkscape:spray-origin="#path4659"
         xlink:href="#path4659"
         transform="matrix(1.1776959,0.39981186,-0.39981186,1.1776959,87.728003,-138.62477)"
         x="0"
         y="0"
         width="100%"
         height="100%" />
      <use
         id="use5054"
         inkscape:spray-origin="#path4659"
         xlink:href="#path4659"
         transform="matrix(1.1737616,-0.79867504,0.79867504,1.1737616,-60.322865,-17.152304)"
         x="0"
         y="0"
         width="100%"
         height="100%" />
      <use
         id="use5056"
         inkscape:spray-origin="#path4825"
         xlink:href="#path4825"
         transform="matrix(0.74653362,0.67576536,-0.67576536,0.74653362,26.596946,-140.89634)"
         x="0"
         y="0"
         width="100%"
         height="100%" />
      <use
         id="use5058"
         inkscape:spray-origin="#path4825"
         xlink:href="#path4825"
         transform="matrix(0.45002421,1.3241926,-1.3241926,0.45002421,261.51909,-180.74883)"
         x="0"
         y="0"
         width="100%"
         height="100%" />
      <use
         id="use5060"
         inkscape:spray-origin="#path4825"
         xlink:href="#path4825"
         transform="matrix(0.71494705,-0.23269993,0.23269993,0.71494705,-45.134448,10.687282)"
         x="0"
         y="0"
         width="100%"
         height="100%" />
      <use
         id="use5062"
         inkscape:spray-origin="#path4825"
         xlink:href="#path4825"
         transform="matrix(0.51938461,-1.2673042,1.2673042,0.51938461,-85.165553,189.83943)"
         x="0"
         y="0"
         width="100%"
         height="100%" />
      <use
         id="use5064"
         inkscape:spray-origin="#path4659"
         xlink:href="#path4659"
         transform="matrix(0.61555806,-0.61185608,0.61185608,0.61555806,-106.4105,27.30046)"
         x="0"
         y="0"
         width="100%"
         height="100%" />
      <use
         id="use5066"
         inkscape:spray-origin="#path4659"
         xlink:href="#path4659"
         transform="matrix(0.61041134,1.0095423,-1.0095423,0.61041134,154.74593,-78.630506)"
         x="0"
         y="0"
         width="100%"
         height="100%" />
      <use
         id="use5068"
         inkscape:spray-origin="#path4659"
         xlink:href="#path4659"
         transform="matrix(0.43597683,-0.93310434,0.93310434,0.43597683,-102.07445,70.457872)"
         x="0"
         y="0"
         width="100%"
         height="100%" />
      <use
         id="use5070"
         inkscape:spray-origin="#path4825"
         xlink:href="#path4825"
         transform="matrix(0.99654331,0.03666121,-0.03666121,0.99654331,-66.322643,-100.62431)"
         x="0"
         y="0"
         width="100%"
         height="100%" />
    </g>
    <g
       transform="matrix(3.1907825,0,0,3.1907825,-884.08377,-227.29903)"
       id="g5043">
      <g
         style="fill:#ffffff;fill-opacity:1"
         id="g5039"
         transform="matrix(0.04079671,0,0,0.03667591,38.347059,-31.916072)">
        <path
           inkscape:connector-curvature="0"
           id="path5037"
           d="m -4054.7266,880.7832 c -14.8815,32.7056 3.5713,30.40122 10.4278,44.59961 12.4306,-22.82692 -1.213,-26.35273 -10.4278,-44.59961 z m 59.3496,14.82227 c -13.9855,19.82446 -38.0143,16.875 -43.1367,41.26367 h -0.4023 v 2.21289 c -0.7333,4.78367 -0.7809,10.56694 0,17.60742 v 21.90235 c -11.0667,-29.79668 -44.3827,-27.49021 -74.086,-59.47266 13.3225,96.62346 42.3293,66.24965 74.086,106.92386 v 18.9394 h 4.7148 v -86.36912 c 16.7326,-14.34932 47.361,-16.46964 38.8242,-63.00781 z"
           style="fill:#ffffff;fill-opacity:1;stroke:none;stroke-width:0.47999737"
           transform="matrix(1.9753269,0,0,2.1972693,14383.612,1326.6162)" />
      </g>
      <circle
         r="6.6688271"
         cy="94.214981"
         cx="299.36829"
         id="circle5041"
         style="color:#000000;clip-rule:nonzero;display:inline;overflow:visible;visibility:visible;opacity:1;isolation:auto;mix-blend-mode:normal;color-interpolation:sRGB;color-interpolation-filters:linearRGB;solid-color:#000000;solid-opacity:1;fill:#ffffff;fill-opacity:0;fill-rule:nonzero;stroke:none;stroke-width:0.14903536;stroke-linecap:round;stroke-linejoin:round;stroke-miterlimit:4;stroke-dasharray:none;stroke-dashoffset:0;stroke-opacity:1;color-rendering:auto;image-rendering:auto;shape-rendering:auto;text-rendering:auto;enable-background:accumulate" />
    </g>
    <text
       id="text5082"
       y="85.471169"
       x="105.67801"
       style="font-style:normal;font-variant:normal;font-weight:normal;font-stretch:normal;font-size:33.53676605px;line-height:0%;font-family:'Century Gothic';-inkscape-font-specification:'Century Gothic, Normal';font-variant-ligatures:normal;font-variant-caps:normal;font-variant-numeric:normal;font-feature-settings:normal;text-align:start;letter-spacing:0px;word-spacing:0px;writing-mode:lr-tb;text-anchor:start;fill:#ffffff;fill-opacity:1;stroke:none;stroke-width:0.83841908px;stroke-linecap:butt;stroke-linejoin:miter;stroke-opacity:1"
       xml:space="preserve"><tspan
         style="fill:#ffffff;fill-opacity:1;stroke-width:0.83841908px"
         y="85.471169"
         x="105.67801"
         id="tspan5080"
         sodipodi:role="line">TEA</tspan></text>
  </g>
</svg>
