/* XPM */
static char *maximize_inactive[] = {
/* columns rows colors chars-per-pixel */
"20 20 2 1 ",
"  c #555",
". c gray100",
/* pixels */
"                    ",
"                    ",
"                    ",
"                    ",
"                    ",
"                    ",
"        ......      ",
"        .    .      ",
"      ...... .      ",
"      .    . .      ",
"      . .. . .      ",
"      .    ...      ",
"      .    .        ",
"      ......        ",
"                    ",
"                    ",
"                    ",
"                    ",
"                    ",
"                    "
};
