/* XPM */
static char *maximize_toggled_pressed[] = {
/* columns rows colors chars-per-pixel */
"20 20 2 1 ",
"  c #555",
". c gray80",
/* pixels */
"                    ",
"                    ",
"                    ",
"       ......       ",
"     ..........     ",
"    ............    ",
"    ....      ..    ",
"   ..... .... ...   ",
"   ...      . ...   ",
"   ... .... . ...   ",
"   ... .  . . ...   ",
"   ... ....   ...   ",
"   ... .... .....   ",
"    ..      ....    ",
"    ............    ",
"     ..........     ",
"       ......       ",
"                    ",
"                    ",
"                    "
};
