<?xml version="1.0" encoding="UTF-8" standalone="no"?>
<svg
   xmlns:dc="http://purl.org/dc/elements/1.1/"
   xmlns:cc="http://creativecommons.org/ns#"
   xmlns:rdf="http://www.w3.org/1999/02/22-rdf-syntax-ns#"
   xmlns:svg="http://www.w3.org/2000/svg"
   xmlns="http://www.w3.org/2000/svg"
   xmlns:sodipodi="http://sodipodi.sourceforge.net/DTD/sodipodi-0.dtd"
   xmlns:inkscape="http://www.inkscape.org/namespaces/inkscape"
   width="1366"
   height="768"
   viewBox="0 0 1366.0001 767.99999"
   id="svg2"
   version="1.1"
   inkscape:version="0.92.1 unknown"
   sodipodi:docname="greenPoly.svg"
   inkscape:export-filename="/home/as3mbus/Chamomile-Tea-Theme/Artwork/bg/greenPoly.png"
   inkscape:export-xdpi="96"
   inkscape:export-ydpi="96">
  <metadata
     id="metadata20">
    <rdf:RDF>
      <cc:Work
         rdf:about="">
        <dc:format>image/svg+xml</dc:format>
        <dc:type
           rdf:resource="http://purl.org/dc/dcmitype/StillImage" />
        <dc:title>Artboard 6</dc:title>
      </cc:Work>
    </rdf:RDF>
  </metadata>
  <defs
     id="defs18">
    <clipPath
       clipPathUnits="userSpaceOnUse"
       id="clipPath4802">
      <path
         transform="scale(1,0.99999822)"
         d="m 374.95218,157.66664 c -8.97428,0 -62.73884,-31.04098 -67.22598,-38.81294 -4.48714,-7.77195 -4.48715,-69.853913 0,-77.625873 4.48714,-7.77196 58.25169,-38.8129403 67.22598,-38.8129405 8.97428,-3e-7 62.73884,31.0409775 67.22598,38.8129365 4.48714,7.77196 4.48714,69.853917 0,77.625877 -4.48714,7.77196 -58.25169,38.81294 -67.22598,38.81294 z"
         inkscape:randomized="0"
         inkscape:rounded="0.11560946"
         inkscape:flatsided="true"
         sodipodi:arg2="2.0943951"
         sodipodi:arg1="1.5707963"
         sodipodi:r2="67.22599"
         sodipodi:r1="77.625877"
         sodipodi:cy="80.040764"
         sodipodi:cx="374.95218"
         sodipodi:sides="6"
         id="path4804"
         style="fill:#b3b3b3;fill-opacity:1;stroke:none;stroke-width:12.92001152;stroke-miterlimit:4;stroke-dasharray:none;stroke-opacity:1"
         sodipodi:type="star" />
    </clipPath>
    <clipPath
       clipPathUnits="userSpaceOnUse"
       id="clipPath4812">
      <path
         transform="scale(1,0.99999822)"
         d="m 374.95218,157.66664 c -8.97428,0 -62.73884,-31.04098 -67.22598,-38.81294 -4.48714,-7.77195 -4.48715,-69.853913 0,-77.625873 4.48714,-7.77196 58.25169,-38.8129403 67.22598,-38.8129405 8.97428,-3e-7 62.73884,31.0409775 67.22598,38.8129365 4.48714,7.77196 4.48714,69.853917 0,77.625877 -4.48714,7.77196 -58.25169,38.81294 -67.22598,38.81294 z"
         inkscape:randomized="0"
         inkscape:rounded="0.11560946"
         inkscape:flatsided="true"
         sodipodi:arg2="2.0943951"
         sodipodi:arg1="1.5707963"
         sodipodi:r2="67.22599"
         sodipodi:r1="77.625877"
         sodipodi:cy="80.040764"
         sodipodi:cx="374.95218"
         sodipodi:sides="6"
         id="path4814"
         style="fill:#b3b3b3;fill-opacity:1;stroke:none;stroke-width:12.92001152;stroke-miterlimit:4;stroke-dasharray:none;stroke-opacity:1"
         sodipodi:type="star" />
    </clipPath>
    <clipPath
       clipPathUnits="userSpaceOnUse"
       id="clipPath4836">
      <path
         transform="scale(1,0.99999822)"
         d="m 374.95218,157.66664 c -8.97428,0 -62.73884,-31.04098 -67.22598,-38.81294 -4.48714,-7.77195 -4.48715,-69.853913 0,-77.625873 4.48714,-7.77196 58.25169,-38.8129403 67.22598,-38.8129405 8.97428,-3e-7 62.73884,31.0409775 67.22598,38.8129365 4.48714,7.77196 4.48714,69.853917 0,77.625877 -4.48714,7.77196 -58.25169,38.81294 -67.22598,38.81294 z"
         inkscape:randomized="0"
         inkscape:rounded="0.11560946"
         inkscape:flatsided="true"
         sodipodi:arg2="2.0943951"
         sodipodi:arg1="1.5707963"
         sodipodi:r2="67.22599"
         sodipodi:r1="77.625877"
         sodipodi:cy="80.040764"
         sodipodi:cx="374.95218"
         sodipodi:sides="6"
         id="path4838"
         style="fill:#b3b3b3;fill-opacity:1;stroke:none;stroke-width:12.92001152;stroke-miterlimit:4;stroke-dasharray:none;stroke-opacity:1"
         sodipodi:type="star" />
    </clipPath>
    <filter
       inkscape:collect="always"
       style="color-interpolation-filters:sRGB"
       id="filter5084"
       x="-0.051651433"
       width="1.103303"
       y="-0.046970718"
       height="1.0939415">
      <feGaussianBlur
         inkscape:collect="always"
         stdDeviation="3.0759825"
         id="feGaussianBlur5086" />
    </filter>
  </defs>
  <sodipodi:namedview
     pagecolor="#ffffff"
     bordercolor="#666666"
     borderopacity="1"
     objecttolerance="10"
     gridtolerance="10"
     guidetolerance="10"
     inkscape:pageopacity="0"
     inkscape:pageshadow="2"
     inkscape:window-width="1366"
     inkscape:window-height="713"
     id="namedview16"
     showgrid="false"
     showguides="true"
     inkscape:guide-bbox="true"
     inkscape:zoom="0.3261347"
     inkscape:cx="466.12947"
     inkscape:cy="278.00957"
     inkscape:window-x="0"
     inkscape:window-y="29"
     inkscape:window-maximized="1"
     inkscape:current-layer="svg2"
     inkscape:snap-global="false"
     inkscape:snap-bbox="true"
     inkscape:snap-midpoints="true"
     inkscape:bbox-nodes="true"
     units="px" />
  <title
     id="title4">Artboard 6</title>
  <g
     id="g4574"
     transform="translate(-6.6424561,-74.536737)">
    <rect
       y="-6.9685726"
       x="5.7573853"
       height="931.01062"
       width="1367.7701"
       id="rect4868"
       style="fill:#333333;fill-opacity:1;stroke:none;stroke-width:13.77745342;stroke-linecap:round;stroke-linejoin:round;stroke-miterlimit:4;stroke-dasharray:none;stroke-opacity:1" />
    <g
       id="g5312"
       transform="matrix(1.7437747,0,0,1.7437747,-620.30022,390.92882)">
      <g
         id="g5088"
         transform="translate(395.9798,-50.169492)">
        <path
           transform="scale(1,0.99999799)"
           d="m 355.23117,153.7321 c -9.08509,0 -63.51378,-31.42442 -68.05633,-39.29234 -4.54255,-7.86792 -4.54255,-70.716761 -1e-5,-78.584686 4.54255,-7.867925 58.97124,-39.2923449 68.05634,-39.2923451 9.0851,-3e-7 63.51379,31.4244171 68.05633,39.2923411 4.54255,7.867925 4.54255,70.71676 10e-6,78.58469 -4.54255,7.86792 -58.97124,39.29234 -68.05634,39.29234 z"
           inkscape:randomized="0"
           inkscape:rounded="0.115609"
           inkscape:flatsided="true"
           sodipodi:arg2="2.0943951"
           sodipodi:arg1="1.5707963"
           sodipodi:r2="68.056335"
           sodipodi:r1="78.584686"
           sodipodi:cy="75.147415"
           sodipodi:cx="355.23117"
           sodipodi:sides="6"
           id="path4942"
           style="fill:#000000;fill-opacity:1;stroke:none;stroke-width:3.41199994;stroke-linecap:round;stroke-linejoin:round;stroke-miterlimit:4;stroke-dasharray:none;stroke-opacity:1;filter:url(#filter5084)"
           sodipodi:type="star" />
        <g
           transform="matrix(1.0123514,0,0,1.0123514,-24.352188,-5.8819673)"
           id="g4847">
          <g
             id="g4842">
            <path
               transform="scale(1,0.99999822)"
               d="m 374.95218,157.66664 c -8.97428,0 -62.73884,-31.04098 -67.22598,-38.81294 -4.48714,-7.77195 -4.48715,-69.853913 0,-77.625873 4.48714,-7.77196 58.25169,-38.8129403 67.22598,-38.8129405 8.97428,-3e-7 62.73884,31.0409775 67.22598,38.8129365 4.48714,7.77196 4.48714,69.853917 0,77.625877 -4.48714,7.77196 -58.25169,38.81294 -67.22598,38.81294 z"
               inkscape:randomized="0"
               inkscape:rounded="0.11560946"
               inkscape:flatsided="true"
               sodipodi:arg2="2.0943951"
               sodipodi:arg1="1.5707963"
               sodipodi:r2="67.22599"
               sodipodi:r1="77.625877"
               sodipodi:cy="80.040764"
               sodipodi:cx="374.95218"
               sodipodi:sides="6"
               id="path4211"
               style="fill:#4fc780;fill-opacity:1;stroke:none;stroke-width:12.92001152;stroke-miterlimit:4;stroke-dasharray:none;stroke-opacity:1"
               sodipodi:type="star" />
            <path
               clip-path="url(#clipPath4836)"
               sodipodi:nodetypes="csssssc"
               inkscape:connector-curvature="0"
               id="path4832"
               d="m 448.47349,126.68208 c 0,0 -13.40591,-33.489972 -43.28591,-12.35791 -43.3084,30.62905 -58.50708,9.74962 -63.40138,-0.92471 -9.53603,-20.797796 -43.1016,-10.76298 -42.66817,10.93384 0.27883,13.95738 20.63805,28.71548 20.63805,29.67427 0,0.95879 54.41127,18.93608 66.63583,19.65517 12.22456,0.71909 62.08158,-46.98066 62.08158,-46.98066 z"
               style="fill:#000000;fill-opacity:0.09148266;fill-rule:evenodd;stroke:none;stroke-width:1px;stroke-linecap:butt;stroke-linejoin:miter;stroke-opacity:1" />
            <path
               sodipodi:nodetypes="cssscssssc"
               clip-path="url(#clipPath4802)"
               inkscape:connector-curvature="0"
               id="path4798"
               d="m 413.89831,159.66102 c 0,0 -55.59322,12.20339 -63.38983,12.20339 -7.79661,0 -52.20339,-24.40678 -58.64407,-30.50848 -6.44068,-6.10169 -26.1017,-26.77966 -25.76271,-30.16949 0.33898,-3.38983 23.38983,-26.101694 23.38983,-26.101694 0,0 16.27118,2.033898 30.16949,23.728814 13.8983,21.69491 22.37288,30.50847 38.98305,21.01695 16.61017,-9.49153 34.72862,-12.70446 44.0678,-10.50848 12.45014,2.92748 20.33898,13.22034 18.30508,22.71187 -2.0339,9.49152 -7.11864,17.62712 -7.11864,17.62712 z"
               style="fill:#ffffff;fill-opacity:0.77917983;fill-rule:evenodd;stroke:none;stroke-width:1px;stroke-linecap:butt;stroke-linejoin:miter;stroke-opacity:1" />
          </g>
          <g
             id="g4816"
             transform="matrix(1.499772,0,0,1.499772,-187.39058,-52.945489)">
            <g
               transform="matrix(0.81047837,0,0,0.81047837,71.061546,17.682373)"
               id="g4777">
              <ellipse
                 transform="rotate(-135)"
                 ry="8.6197195"
                 rx="16.441736"
                 style="fill:#ffffff;fill-opacity:0.86476871;stroke:none;stroke-width:1;stroke-miterlimit:4;stroke-dasharray:none;stroke-opacity:1"
                 id="ellipse4773"
                 cx="-331.8309"
                 cy="214.87332" />
              <ellipse
                 ry="11.837236"
                 rx="16.441736"
                 style="fill:#ffffff;fill-opacity:0.86476871;stroke:none;stroke-width:1;stroke-miterlimit:4;stroke-dasharray:none;stroke-opacity:1"
                 id="ellipse4355"
                 cx="358.51044"
                 cy="71.075432" />
              <ellipse
                 transform="rotate(-135)"
                 cy="214.87332"
                 cx="-298.94745"
                 id="ellipse4775"
                 style="fill:#ffffff;fill-opacity:0.86476871;stroke:none;stroke-width:1;stroke-miterlimit:4;stroke-dasharray:none;stroke-opacity:1"
                 rx="16.441736"
                 ry="8.6197195" />
              <ellipse
                 cy="71.075432"
                 cx="391.39389"
                 id="ellipse4357"
                 style="fill:#ffffff;fill-opacity:0.86476871;stroke:none;stroke-width:1;stroke-miterlimit:4;stroke-dasharray:none;stroke-opacity:1"
                 rx="16.441736"
                 ry="11.837236" />
              <ellipse
                 cy="-315.38916"
                 cx="-231.31503"
                 id="ellipse4359"
                 style="fill:#ffffff;fill-opacity:0.86476871;stroke:none;stroke-width:1;stroke-miterlimit:4;stroke-dasharray:none;stroke-opacity:1"
                 rx="16.441736"
                 ry="8.6197195"
                 transform="rotate(135)" />
              <ellipse
                 ry="8.6197195"
                 rx="16.441736"
                 style="fill:#ffffff;fill-opacity:0.86476871;stroke:none;stroke-width:1;stroke-miterlimit:4;stroke-dasharray:none;stroke-opacity:1"
                 id="ellipse4361"
                 cx="-198.43158"
                 cy="-315.38916"
                 transform="rotate(135)" />
              <ellipse
                 transform="rotate(-90)"
                 cy="374.95218"
                 cx="-87.517166"
                 id="ellipse4367"
                 style="fill:#ffffff;fill-opacity:0.86476871;stroke:none;stroke-width:1;stroke-miterlimit:4;stroke-dasharray:none;stroke-opacity:1"
                 rx="16.441736"
                 ry="8.744236" />
              <ellipse
                 transform="rotate(-90)"
                 ry="8.744236"
                 rx="16.441736"
                 style="fill:#ffffff;fill-opacity:0.86476871;stroke:none;stroke-width:1;stroke-miterlimit:4;stroke-dasharray:none;stroke-opacity:1"
                 id="ellipse4369"
                 cx="-54.633694"
                 cy="374.95218" />
              <circle
                 r="13.499955"
                 cy="71.075432"
                 cx="374.62659"
                 id="circle4371"
                 style="fill:#ffdd55;stroke:none;stroke-width:1;stroke-miterlimit:4;stroke-dasharray:none;stroke-opacity:1" />
              <path
                 d="m 382.48355,65.075704 a 9.8857803,9.8857803 0 0 1 1.87141,7.756826"
                 sodipodi:open="true"
                 sodipodi:end="0.17868941"
                 sodipodi:start="5.6310249"
                 sodipodi:ry="9.8857803"
                 sodipodi:rx="9.8857803"
                 sodipodi:cy="71.075432"
                 sodipodi:cx="374.62659"
                 sodipodi:type="arc"
                 style="fill:none;stroke:none;stroke-width:1;stroke-linecap:round;stroke-miterlimit:4;stroke-dasharray:none;stroke-opacity:1"
                 id="circle4485" />
              <path
                 sodipodi:open="true"
                 d="m 378.788,60.470218 a 11.392448,11.392448 0 0 1 7.15655,9.30458"
                 sodipodi:end="6.1687695"
                 sodipodi:start="5.0863202"
                 sodipodi:ry="11.392448"
                 sodipodi:rx="11.392448"
                 sodipodi:cy="71.075432"
                 sodipodi:cx="374.62659"
                 sodipodi:type="arc"
                 style="fill:#ffdd55;stroke:#ffffff;stroke-width:0.77743876;stroke-linecap:round;stroke-linejoin:round;stroke-miterlimit:4;stroke-dasharray:none;stroke-opacity:1"
                 id="circle4487" />
            </g>
            <text
               id="text4157"
               y="115.07838"
               x="349.18637"
               style="font-style:normal;font-variant:normal;font-weight:normal;font-stretch:normal;line-height:0%;font-family:'Exotc350 DmBd BT';-inkscape-font-specification:'Exotc350 DmBd BT, Normal';text-align:start;letter-spacing:0px;word-spacing:0px;writing-mode:lr-tb;text-anchor:start;fill:#ffffff;fill-opacity:1;stroke:none;stroke-width:1px;stroke-linecap:butt;stroke-linejoin:miter;stroke-opacity:1"
               xml:space="preserve"><tspan
                 style="font-style:normal;font-variant:normal;font-weight:normal;font-stretch:normal;font-size:15.26050854px;line-height:125%;font-family:Elementarz;-inkscape-font-specification:'Elementarz, Normal';text-align:start;writing-mode:lr-tb;text-anchor:start"
                 y="115.07838"
                 x="349.18637"
                 id="tspan4159"
                 sodipodi:role="line">Chamomile</tspan></text>
          </g>
        </g>
      </g>
      <g
         id="g5297">
        <g
           id="g5285">
          <g
             id="text5111"
             style="font-style:normal;font-variant:normal;font-weight:normal;font-stretch:normal;line-height:0%;font-family:'Levenim MT';-inkscape-font-specification:'Levenim MT, Normal';text-align:start;letter-spacing:0px;word-spacing:0px;writing-mode:lr-tb;text-anchor:start;fill:#ffffff;fill-opacity:1;stroke:none;stroke-width:1px;stroke-linecap:butt;stroke-linejoin:miter;stroke-opacity:1"
             aria-label="TeaLinuxOS">
            <path
               inkscape:connector-curvature="0"
               id="path4523"
               style="font-size:22.34250069px;line-height:1.25;fill:#ffffff"
               d="m 694.31657,122.82236 h -3.5783 v 14.48771 h -1.63641 v -14.48771 h -3.5892 v -1.56005 h 8.80391 z" />
            <path
               inkscape:connector-curvature="0"
               id="path4525"
               style="font-size:22.34250069px;line-height:1.25;fill:#ffffff"
               d="M 708.04062,131.49535 H 697.3712 q 0.0436,1.99643 1.24368,3.32738 1.26549,1.3964 3.22919,1.3964 1.89824,0 3.21828,-1.1564 0.60002,-0.52365 1.29822,-1.69096 l 1.28731,0.67639 q -1.20004,2.34552 -3.32737,3.16373 -1.0364,0.40365 -2.34553,0.40365 -2.67281,0 -4.42923,-1.76733 -1.7455,-1.76733 -1.7455,-4.44013 0,-2.25826 1.38549,-4.02558 1.75642,-2.24734 4.70197,-2.24734 3.03282,0 4.84378,2.30188 1.28731,1.63642 1.30913,4.05831 z m -1.68005,-1.32004 q -0.56729,-2.25825 -2.4328,-3.131 -0.96003,-0.44729 -2.01825,-0.44729 -1.7455,0 -3.00009,1.12367 -0.91639,0.81821 -1.38549,2.45462 z" />
            <path
               inkscape:connector-curvature="0"
               id="path4527"
               style="font-size:22.34250069px;line-height:1.25;fill:#ffffff"
               d="m 722.72471,137.31007 h -1.5055 v -2.04006 q -1.93097,2.34553 -4.76742,2.34553 -2.57463,0 -4.34195,-1.8546 -1.74551,-1.82188 -1.74551,-4.41832 0,-2.56372 1.77823,-4.38559 1.78915,-1.82187 4.35286,-1.82187 2.93464,0 4.72379,2.48735 v -2.18189 h 1.5055 z m -1.40732,-5.86927 q 0,-2.04006 -1.34186,-3.43646 -1.33095,-1.39641 -3.3601,-1.39641 -2.72736,0 -4.06922,2.38916 -0.64365,1.13458 -0.64365,2.40008 0,1.26549 0.64365,2.41098 0.64366,1.13458 1.72369,1.77823 1.09094,0.63275 2.33462,0.63275 1.25458,0 2.37825,-0.63275 1.12367,-0.63274 1.72369,-1.71277 0.61093,-1.08004 0.61093,-2.43281 z" />
            <path
               inkscape:connector-curvature="0"
               id="path4529"
               style="font-size:22.34250069px;line-height:1.25;fill:#ffffff"
               d="M 734.20142,137.31007 H 726.423 v -16.04776 h 1.6146 v 14.49863 h 6.16382 z" />
            <path
               inkscape:connector-curvature="0"
               id="path4531"
               style="font-size:22.34250069px;line-height:1.25;fill:#ffffff"
               d="m 738.31427,121.81869 q 0,0.52365 -0.37092,0.89457 -0.37092,0.36002 -0.89457,0.36002 -0.51274,0 -0.88366,-0.37093 -0.37092,-0.37092 -0.37092,-0.88366 0,-0.52365 0.36001,-0.89457 0.37092,-0.37092 0.89457,-0.37092 0.52365,0 0.89457,0.37092 0.37092,0.37092 0.37092,0.89457 z m -0.49092,15.49138 h -1.53823 v -11.86945 h 1.53823 z" />
            <path
               inkscape:connector-curvature="0"
               id="path4533"
               style="font-size:22.34250069px;line-height:1.25;fill:#ffffff"
               d="m 751.36194,137.31007 h -1.51641 v -5.66199 q 0,-2.00733 -0.17455,-2.73826 -0.56729,-2.36735 -2.98918,-2.36735 -1.3855,0 -2.48735,0.91639 -1.09094,0.90549 -1.44004,2.26916 -0.21819,0.86185 -0.21819,3.22919 v 4.35286 h -1.52732 v -11.86945 h 1.52732 v 2.12734 q 1.82187,-2.4328 4.45104,-2.4328 1.29823,0 2.33462,0.66547 1.04731,0.65457 1.53823,1.82188 0.50183,1.15639 0.50183,3.57829 z" />
            <path
               inkscape:connector-curvature="0"
               id="path4535"
               style="font-size:22.34250069px;line-height:1.25;fill:#ffffff"
               d="m 764.81326,131.26625 q 0,2.00734 -0.38183,3.18555 -0.52365,1.60369 -1.90915,2.45463 -1.1564,0.70911 -2.89099,0.70911 -3.41465,0 -4.6256,-2.67281 -0.5782,-1.25458 -0.5782,-3.78557 v -5.71654 h 1.53823 v 5.54199 q 0,2.05097 0.21819,2.79281 0.33819,1.13458 1.30913,1.76733 0.91639,0.58911 2.13825,0.58911 1.18912,0 2.0837,-0.55638 0.94912,-0.60002 1.30913,-1.68006 0.22909,-0.68729 0.22909,-2.91281 v -5.54199 h 1.56005 z" />
            <path
               inkscape:connector-curvature="0"
               id="path4537"
               style="font-size:22.34250069px;line-height:1.25;fill:#ffffff"
               d="m 777.30456,137.31007 h -1.85461 l -3.63283,-4.9856 -3.5783,4.9856 h -1.82187 l 4.49468,-6.22928 -4.06921,-5.64017 h 1.83278 l 3.14192,4.3965 3.14191,-4.3965 h 1.83278 l -4.0583,5.64017 z" />
            <path
               inkscape:connector-curvature="0"
               id="path4539"
               style="font-size:22.34250069px;line-height:1.25;fill:#ffffff"
               d="m 795.38147,129.28074 q 0,3.54556 -2.44371,5.98927 -2.4328,2.44371 -5.97837,2.44371 -3.54556,0 -6.01109,-2.41098 -2.46553,-2.41098 -2.46553,-5.94564 0,-2.29098 1.10185,-4.26558 1.10186,-1.97461 3.06555,-3.1201 1.93097,-1.11276 4.17831,-1.11276 3.62193,0 6.07655,2.38917 2.47644,2.42189 2.47644,6.03291 z m -1.65823,0 q 0,-3.97103 -3.39283,-5.92382 -1.6146,-0.9273 -3.42556,-0.9273 -1.80006,0 -3.38192,0.9273 -1.58187,0.9273 -2.47644,2.49826 -0.89458,1.57096 -0.89458,3.50192 0,2.84736 1.95279,4.82197 1.95279,1.9746 4.80015,1.9746 1.8546,0 3.43647,-0.89457 1.59277,-0.89457 2.48734,-2.47644 0.89458,-1.58186 0.89458,-3.50192 z" />
            <path
               inkscape:connector-curvature="0"
               id="path4541"
               style="font-size:22.34250069px;line-height:1.25;fill:#ffffff"
               d="m 806.33453,133.39359 q 0,1.82187 -1.37458,3.08737 -1.33095,1.23276 -3.17465,1.23276 -2.98918,0 -4.84378,-3.39283 l 1.36368,-0.81821 q 1.44004,2.65099 3.32737,2.65099 1.78915,0 2.59644,-1.38549 0.37093,-0.63275 0.37093,-1.34186 0,-0.8073 -0.54548,-1.58187 -0.70911,-1.01457 -2.64008,-2.45462 -1.9746,-1.46186 -2.60735,-2.3128 -0.85093,-1.14549 -0.85093,-2.45462 0,-2.22552 1.92005,-3.27282 0.90549,-0.49093 1.97461,-0.49093 2.29098,0 4.21104,2.62917 l -1.30913,0.99276 q -0.73093,-0.96003 -1.24368,-1.36368 -0.76366,-0.60002 -1.69096,-0.60002 -0.9273,0 -1.54914,0.55639 -0.65456,0.56729 -0.65456,1.48368 0,1.08003 1.01457,2.0837 0.29456,0.28364 2.0728,1.60368 1.63641,1.21095 2.44371,2.18189 1.18912,1.45095 1.18912,2.96736 z" />
          </g>
          <g
             id="g5276">
            <g
               transform="rotate(24.354809,539.55482,1039.7407)"
               id="g5119" />
            <g
               transform="matrix(0.24913772,-0.61543317,0.67833186,0.22541326,569.0922,303.61972)"
               id="g5123" />
          </g>
        </g>
        <circle
           r="7.7771692"
           cy="129.3125"
           cx="786.9798"
           id="path5147"
           style="fill:none;fill-opacity:1;stroke:#00d4aa;stroke-width:2.8829999;stroke-linecap:round;stroke-linejoin:round;stroke-miterlimit:4;stroke-dasharray:none;stroke-opacity:1" />
        <path
           d="m 792.65162,134.63366 a 7.7771692,7.7771692 0 0 1 -5.74329,2.45568 7.7771692,7.7771692 0 0 1 -5.6972,-2.56082"
           sodipodi:open="true"
           sodipodi:end="2.4064622"
           sodipodi:start="0.75350969"
           sodipodi:ry="7.7771692"
           sodipodi:rx="7.7771692"
           sodipodi:cy="129.3125"
           sodipodi:cx="786.9798"
           sodipodi:type="arc"
           style="fill:none;fill-opacity:1;stroke:#148080;stroke-width:2.8829999;stroke-linecap:butt;stroke-linejoin:miter;stroke-miterlimit:4;stroke-dasharray:none;stroke-opacity:0.4542587"
           id="circle5149" />
      </g>
    </g>
  </g>
</svg>
