<?xml version="1.0" encoding="UTF-8" standalone="no"?>
<!-- Created with Inkscape (http://www.inkscape.org/) -->

<svg
   xmlns:dc="http://purl.org/dc/elements/1.1/"
   xmlns:cc="http://creativecommons.org/ns#"
   xmlns:rdf="http://www.w3.org/1999/02/22-rdf-syntax-ns#"
   xmlns:svg="http://www.w3.org/2000/svg"
   xmlns="http://www.w3.org/2000/svg"
   xmlns:sodipodi="http://sodipodi.sourceforge.net/DTD/sodipodi-0.dtd"
   xmlns:inkscape="http://www.inkscape.org/namespaces/inkscape"
   width="1366"
   height="768"
   viewBox="0 0 361.42082 203.2"
   version="1.1"
   id="svg1569"
   inkscape:version="0.92.1 unknown"
   sodipodi:docname="Yellow4.svg"
   inkscape:export-filename="/home/as3mbus/Chamomile-Tea-Theme/Artwork/bg/Yellow4.png"
   inkscape:export-xdpi="89"
   inkscape:export-ydpi="89">
  <defs
     id="defs1563">
    <clipPath
       clipPathUnits="userSpaceOnUse"
       id="clipPath4937">
      <rect
         y="211.42154"
         x="5970.7881"
         height="768"
         width="1024"
         id="rect4939"
         style="fill:#444444;fill-opacity:1" />
    </clipPath>
    <filter
       height="1.0765271"
       y="-0.038263559"
       width="1.0723879"
       x="-0.036193967"
       id="filter5354"
       style="color-interpolation-filters:sRGB"
       inkscape:collect="always">
      <feGaussianBlur
         id="feGaussianBlur5356"
         stdDeviation="8.4414816"
         inkscape:collect="always" />
    </filter>
    <filter
       height="1.0627801"
       y="-0.031390078"
       width="1.0669541"
       x="-0.033477064"
       id="filter5633"
       style="color-interpolation-filters:sRGB"
       inkscape:collect="always">
      <feGaussianBlur
         id="feGaussianBlur5635"
         stdDeviation="4.8159722"
         inkscape:collect="always" />
    </filter>
    <filter
       height="1.1023085"
       y="-0.051154271"
       width="1.1091104"
       x="-0.05455514"
       id="filter6005"
       style="color-interpolation-filters:sRGB"
       inkscape:collect="always">
      <feGaussianBlur
         id="feGaussianBlur6007"
         stdDeviation="8.3338272"
         inkscape:collect="always" />
    </filter>
    <clipPath
       clipPathUnits="userSpaceOnUse"
       id="clipPath4600">
      <rect
         style="fill:#444444;fill-opacity:1;stroke-width:0.30593011"
         id="rect4602"
         width="361.46414"
         height="203.62935"
         x="-19.972643"
         y="72.424355"
         transform="rotate(7.2685383)" />
    </clipPath>
  </defs>
  <sodipodi:namedview
     id="base"
     pagecolor="#ffffff"
     bordercolor="#666666"
     borderopacity="1.0"
     inkscape:pageopacity="0.0"
     inkscape:pageshadow="2"
     inkscape:zoom="0.35"
     inkscape:cx="1007.7098"
     inkscape:cy="492.76116"
     inkscape:document-units="mm"
     inkscape:current-layer="layer1"
     showgrid="false"
     units="px"
     inkscape:window-width="1366"
     inkscape:window-height="713"
     inkscape:window-x="0"
     inkscape:window-y="29"
     inkscape:window-maximized="1" />
  <metadata
     id="metadata1566">
    <rdf:RDF>
      <cc:Work
         rdf:about="">
        <dc:format>image/svg+xml</dc:format>
        <dc:type
           rdf:resource="http://purl.org/dc/dcmitype/StillImage" />
        <dc:title></dc:title>
      </cc:Work>
    </rdf:RDF>
  </metadata>
  <g
     inkscape:label="Layer 1"
     inkscape:groupmode="layer"
     id="layer1"
     transform="translate(0,-93.79998)">
    <rect
       y="93.925522"
       x="-0.13504772"
       height="203.62935"
       width="361.46414"
       id="rect5068"
       style="fill:#444444;fill-opacity:1;stroke-width:0.30593011" />
    <path
       sodipodi:nodetypes="cccc"
       inkscape:connector-curvature="0"
       id="path5070"
       d="M 361.32909,297.55488 -0.13505157,93.925521 H 361.32909 Z"
       style="fill:#eeeeee;fill-opacity:1;stroke-width:0.29899067" />
    <g
       id="g4596"
       transform="rotate(-7.2685383,179.17888,-145.41366)"
       clip-path="url(#clipPath4600)">
      <path
         transform="matrix(0.26514239,0,0,0.26514239,-1583.5465,37.641887)"
         style="fill:#000000;fill-opacity:1;stroke-width:0.94173443;filter:url(#filter5354)"
         d="m 6428.7227,318.03605 c -21.8406,-0.42956 -159.0698,57.29924 -170.1211,71.83789 -11.2268,14.76942 -30.5563,166.93364 -23.3789,184.04104 7.1773,17.1073 129.2893,109.9296 147.6933,112.2676 18.4041,2.3379 159.8475,-57.0041 171.0742,-71.7735 7.7002,-10.13 19.2104,-84.8884 23.3672,-136.37889 l 143.6367,113.58989 c 6.3422,4.6105 8.3546,12.4472 7.8692,19.9355 -1.353,45.1272 -6.7625,90.0659 -15.2442,134.4414 0,0.015 -0.01,0.03 -0.014,0.045 -0.2821,0.4196 -0.5588,0.8417 -0.8692,1.25 -17.6342,11.778 -37.0022,20.7213 -56.289,29.336 -31.3088,13.0485 -62.3021,27.1881 -95.045,36.2382 -19.1693,10.2466 18.7773,25.7124 15.0586,24.1231 h -0.012 c 0.335,0.2074 0.6451,0.3913 0.9746,0.5937 0.5621,0.3453 1.1125,0.6799 1.6582,1.0098 0.6235,0.3767 1.2345,0.7416 1.836,1.0977 0.6069,0.3595 1.2037,0.7112 1.7871,1.0488 0.5126,0.2966 1.01,0.5782 1.5039,0.8574 0.6085,0.3442 1.2103,0.6812 1.789,0.9981 0.4546,0.2488 0.8867,0.4773 1.3223,0.7089 0.538,0.286 1.0762,0.5734 1.584,0.8321 0.4542,0.2314 0.8773,0.4336 1.3066,0.6426 0.4532,0.2205 0.9135,0.4498 1.3379,0.6445 0.4435,0.2036 0.8448,0.3682 1.2559,0.543 0.3461,0.147 0.7108,0.3115 1.0332,0.4375 0.4316,0.1687 0.8115,0.2899 1.1992,0.4199 0.2693,0.09 0.5669,0.2064 0.8145,0.2773 0.1402,0.04 0.2672,0.072 0.4004,0.1055 0.1353,0.034 0.2783,0.076 0.4062,0.1035 0.2641,0.058 0.5146,0.1015 0.7461,0.1309 18.4041,2.3379 159.8475,-57.004 171.0742,-71.7735 11.2268,-14.7694 30.5562,-166.9336 23.3789,-184.041 L 6558.6172,410.16496 c -36.6456,-33.00676 -114.5403,-90.23504 -128.9414,-92.06446 -0.2876,-0.0365 -0.6065,-0.0576 -0.9531,-0.0645 z"
         id="path5252"
         inkscape:connector-curvature="0"
         sodipodi:nodetypes="ccccccccccccccccccccccccccccccccccccc" />
      <path
         style="fill:#fef390;fill-opacity:1;stroke-width:0.24969372"
         d="m 155.15842,146.37037 c -0.10401,-0.002 -0.22152,0.003 -0.3454,0.0109 -0.0449,0.003 -0.0924,0.007 -0.13984,0.0109 -0.0843,0.007 -0.17297,0.017 -0.26514,0.0285 -0.0593,0.007 -0.11671,0.0139 -0.17918,0.0228 -0.0665,0.01 -0.13875,0.0218 -0.20869,0.0331 -2.44501,0.39175 -7.61561,2.67307 -12.91122,4.66156 0.11552,0.0565 0.23004,0.11189 0.34333,0.16208 l 57.02166,43.20527 c 1.68158,1.22244 2.21516,3.30028 2.08646,5.28575 -0.35874,11.96513 -1.79303,23.88029 -4.04189,35.64611 0,0.004 -0.003,0.008 -0.004,0.0119 -0.0748,0.11126 -0.14816,0.22317 -0.23046,0.33143 -4.67557,3.12285 -9.81085,5.4941 -14.9246,7.77822 -8.30129,3.45971 -16.51893,7.20872 -25.20046,9.60828 -5.08259,2.71681 4.97866,6.81745 3.99267,6.39606 h -0.003 c 0.0888,0.055 0.17105,0.10378 0.25841,0.15744 0.14904,0.0915 0.29497,0.18024 0.43966,0.26771 0.16532,0.0999 0.32732,0.19663 0.4868,0.29105 0.16092,0.0953 0.31915,0.18857 0.47384,0.27808 0.13591,0.0786 0.26779,0.15331 0.39874,0.22734 0.16134,0.0913 0.32091,0.18061 0.47434,0.26463 0.12054,0.066 0.23511,0.12658 0.3506,0.18799 0.14265,0.0758 0.28535,0.15201 0.41999,0.2206 0.12043,0.0614 0.23261,0.11496 0.34643,0.17038 0.12017,0.0585 0.24221,0.11926 0.35474,0.17088 0.11759,0.054 0.22399,0.0976 0.33299,0.14398 0.0918,0.039 0.18846,0.0826 0.27394,0.116 0.11444,0.0447 0.21517,0.0769 0.31796,0.11133 0.0714,0.0239 0.15031,0.0547 0.21596,0.0735 0.0372,0.0106 0.0709,0.0191 0.10616,0.028 0.0359,0.009 0.0738,0.0202 0.10771,0.0274 0.07,0.0154 0.13644,0.0269 0.19782,0.0347 4.87971,0.61988 42.38235,-15.11417 45.35902,-19.03019 2.9767,-3.916 8.10174,-44.26118 6.19874,-48.79707 l -61.85218,-48.12056 c -0.0763,-0.01 -0.16028,-0.0153 -0.2522,-0.0171 z"
         id="path5116"
         inkscape:connector-curvature="0"
         sodipodi:nodetypes="ccccccccccccccccccccccccccccccccccccccc" />
      <path
         style="fill:#fcd26d;fill-opacity:1;stroke-width:0.27522248"
         d="m 158.23853,176.66521 c -1.40719,10.78471 -3.35206,21.23527 -4.79433,23.13263 -1.53086,2.01394 -12.19353,7.15158 -22.85403,11.58497 l 144.90912,113.1454 27.31277,-34.98017 z"
         id="rect5360"
         inkscape:connector-curvature="0"
         sodipodi:nodetypes="cccccc" />
      <g
         id="g4550">
        <rect
           transform="rotate(37.982831)"
           y="41.991993"
           x="-2.4786513"
           height="45.061863"
           width="450.65076"
           id="rect5358"
           style="fill:#fcd26d;fill-opacity:1;stroke-width:0.27522248" />
        <path
           style="fill:none;fill-rule:evenodd;stroke:#fa7605;stroke-width:1.32571197;stroke-linecap:butt;stroke-linejoin:miter;stroke-miterlimit:4;stroke-dasharray:7.9542717, 1.32571195;stroke-dashoffset:0;stroke-opacity:1"
           d="M -13.996987,50.602866 379.97165,357.56246"
           id="path5639"
           inkscape:connector-curvature="0" />
        <path
           inkscape:connector-curvature="0"
           id="path5637"
           d="M -65.964896,50.602866 328.00374,357.56246"
           style="fill:none;fill-rule:evenodd;stroke:#fa7605;stroke-width:1.32571197;stroke-linecap:butt;stroke-linejoin:miter;stroke-miterlimit:4;stroke-dasharray:7.9542717, 1.32571195;stroke-dashoffset:0;stroke-opacity:1" />
      </g>
      <path
         transform="matrix(0.26514239,0,0,0.26514239,-1583.5465,37.641887)"
         inkscape:connector-curvature="0"
         style="fill:#000000;fill-opacity:1;stroke-width:0.94173443;filter:url(#filter5633)"
         d="m 6428.7227,318.03605 c -21.8406,-0.42956 -159.0698,57.29924 -170.1211,71.83789 -11.2268,14.76942 -30.5563,166.93364 -23.3789,184.04104 7.1773,17.1073 129.2893,109.9296 147.6933,112.2676 18.4041,2.3379 159.8475,-57.0041 171.0742,-71.7735 11.2268,-14.7694 30.5563,-166.93365 23.3789,-184.041 -7.1773,-17.10735 -129.2893,-109.92965 -147.6933,-112.26758 -0.2876,-0.0365 -0.6065,-0.0576 -0.9531,-0.0645 z"
         id="path5550" />
      <path
         style="fill:#fef390;fill-opacity:1"
         transform="matrix(0.09450461,-0.23111866,0.23111866,0.09450461,23.768224,274.50896)"
         inkscape:transform-center-y="-10.806493"
         inkscape:transform-center-x="21.739287"
         d="m 713.14244,130.1043 c 5.09868,19.02853 -37.05695,176.35547 -50.9868,190.28532 -13.92985,13.92985 -171.25679,56.08548 -190.28532,50.9868 C 452.84179,366.27774 337.67047,251.10643 332.57179,232.07789 327.47311,213.04936 369.62874,55.722422 383.55859,41.79257 397.48844,27.862717 554.81538,-14.292909 573.84392,-9.1942295 592.87245,-4.0955496 708.04376,111.07576 713.14244,130.1043 Z"
         inkscape:randomized="0"
         inkscape:rounded="0.1"
         inkscape:flatsided="true"
         sodipodi:arg2="0.26179939"
         sodipodi:arg1="-0.26179939"
         sodipodi:r2="98.49894"
         sodipodi:r1="196.99786"
         sodipodi:cy="181.09109"
         sodipodi:cx="522.85712"
         sodipodi:sides="6"
         id="path5088"
         sodipodi:type="star" />
      <path
         style="opacity:1;fill:#000000;fill-opacity:1;stroke:none;filter:url(#filter6005)"
         transform="matrix(0.06978899,-0.17067461,0.17067461,0.06978899,48.897333,248.06527)"
         inkscape:transform-center-y="-7.9802847"
         inkscape:transform-center-x="16.053823"
         d="m 713.14244,130.1043 c 5.09868,19.02853 -37.05695,176.35547 -50.9868,190.28532 -13.92985,13.92985 -171.25679,56.08548 -190.28532,50.9868 C 452.84179,366.27774 337.67047,251.10643 332.57179,232.07789 327.47311,213.04936 369.62874,55.722422 383.55859,41.79257 397.48844,27.862717 554.81538,-14.292909 573.84392,-9.1942295 592.87245,-4.0955496 708.04376,111.07576 713.14244,130.1043 Z"
         inkscape:randomized="0"
         inkscape:rounded="0.1"
         inkscape:flatsided="true"
         sodipodi:arg2="0.26179939"
         sodipodi:arg1="-0.26179939"
         sodipodi:r2="98.49894"
         sodipodi:r1="196.99786"
         sodipodi:cy="181.09109"
         sodipodi:cx="522.85712"
         sodipodi:sides="6"
         id="path5991"
         sodipodi:type="star" />
      <path
         sodipodi:type="star"
         id="path6009"
         sodipodi:sides="6"
         sodipodi:cx="522.85712"
         sodipodi:cy="181.09109"
         sodipodi:r1="196.99786"
         sodipodi:r2="98.49894"
         sodipodi:arg1="-0.26179939"
         sodipodi:arg2="0.26179939"
         inkscape:flatsided="true"
         inkscape:rounded="0.1"
         inkscape:randomized="0"
         d="m 713.14244,130.1043 c 5.09868,19.02853 -37.05695,176.35547 -50.9868,190.28532 -13.92985,13.92985 -171.25679,56.08548 -190.28532,50.9868 C 452.84179,366.27774 337.67047,251.10643 332.57179,232.07789 327.47311,213.04936 369.62874,55.722422 383.55859,41.79257 397.48844,27.862717 554.81538,-14.292909 573.84392,-9.1942295 592.87245,-4.0955496 708.04376,111.07576 713.14244,130.1043 Z"
         inkscape:transform-center-x="16.053823"
         inkscape:transform-center-y="-7.9802847"
         transform="matrix(0.06978899,-0.17067461,0.17067461,0.06978899,48.897333,248.06527)"
         style="opacity:1;fill:#000000;fill-opacity:1;stroke:none;filter:url(#filter6005)" />
      <path
         sodipodi:type="star"
         id="path5090"
         sodipodi:sides="6"
         sodipodi:cx="522.85712"
         sodipodi:cy="181.09109"
         sodipodi:r1="196.99786"
         sodipodi:r2="98.49894"
         sodipodi:arg1="-0.26179939"
         sodipodi:arg2="0.26179939"
         inkscape:flatsided="true"
         inkscape:rounded="0.1"
         inkscape:randomized="0"
         d="m 713.14244,130.1043 c 5.09868,19.02853 -37.05695,176.35547 -50.9868,190.28532 -13.92985,13.92985 -171.25679,56.08548 -190.28532,50.9868 C 452.84179,366.27774 337.67047,251.10643 332.57179,232.07789 327.47311,213.04936 369.62874,55.722422 383.55859,41.79257 397.48844,27.862717 554.81538,-14.292909 573.84392,-9.1942295 592.87245,-4.0955496 708.04376,111.07576 713.14244,130.1043 Z"
         inkscape:transform-center-x="16.053823"
         inkscape:transform-center-y="-7.9802847"
         transform="matrix(0.06978899,-0.17067461,0.17067461,0.06978899,48.897333,248.06527)"
         style="opacity:1;fill:#c4c4c4;fill-opacity:1;stroke:none" />
      <path
         inkscape:connector-curvature="0"
         id="path5092"
         d="m 120.87222,135.42982 c -0.23033,-0.0293 -0.56038,-0.008 -0.97463,0.0555 a 4.2059373,18.64398 7.2396945 0 0 -4.78458,12.99591 18.64398,4.2059373 77.239694 0 0 -4.10915,-10.22601 c -1.46926,0.54902 -3.01445,1.14984 -4.58929,1.78546 a 18.64398,4.2059373 77.239694 0 0 0.75989,10.23736 18.64398,4.2059373 57.239694 0 0 -6.76508,-7.71023 c -1.564709,0.68539 -3.079627,1.37164 -4.496071,2.03793 a 18.64398,4.2059373 57.239694 0 0 4.416081,10.07685 18.64398,4.2059373 37.239694 0 0 -12.42529,-5.7051 c -0.236189,0.18885 -0.416565,0.35876 -0.528057,0.50543 -0.217709,0.28641 -0.451167,0.84034 -0.693401,1.60268 a 18.64398,4.2059373 37.239694 0 0 8.721302,10.07667 18.64398,4.2059373 17.239694 0 0 -10.541292,-1.56713 c -0.270127,1.62218 -0.531266,3.34584 -0.776257,5.10776 a 18.64398,4.2059373 17.239694 0 0 8.904515,4.233 4.2059373,18.64398 87.239694 0 0 -9.668232,1.87151 c -0.197849,1.78184 -0.368097,3.51843 -0.501941,5.14395 a 4.2059373,18.64398 87.239694 0 0 10.562133,1.1145 4.2059373,18.64398 67.239694 0 0 -10.80678,7.35561 c 0.04987,0.48452 0.122602,0.85915 0.222269,1.0967 0.159059,0.37915 0.608741,0.94993 1.282388,1.66177 a 4.2059373,18.64398 67.239694 0 0 12.450397,-2.60823 4.2059373,18.64398 47.239694 0 0 -6.427953,8.01705 c 1.315186,1.08595 2.732054,2.22054 4.196382,3.36163 a 4.2059373,18.64398 47.239694 0 0 7.757427,-5.40261 4.2059373,18.64398 27.239694 0 0 -3.132601,8.91236 c 1.502141,1.10913 2.979401,2.16837 4.376761,3.13857 a 4.2059373,18.64398 27.239694 0 0 5.99251,-8.32476 4.2059373,18.64398 7.2396945 0 0 0.77819,12.59021 c 0.72116,0.366 1.28554,0.59022 1.64502,0.63588 0.35779,0.0455 0.95632,-0.0298 1.74056,-0.20205 a 4.2059373,18.64398 7.2396945 0 0 3.91079,-11.99804 18.64398,4.2059373 77.239694 0 0 3.7203,9.55969 c 1.59422,-0.58948 3.28797,-1.24526 5.01827,-1.94295 a 18.64398,4.2059373 77.239694 0 0 -0.8002,-9.41437 18.64398,4.2059373 57.239694 0 0 6.15594,7.17249 c 1.70444,-0.73922 3.36118,-1.48414 4.90731,-2.2073 a 18.64398,4.2059373 57.239694 0 0 -4.21797,-9.36917 18.64398,4.2059373 37.239694 0 0 11.40609,5.63558 c 0.82915,-0.52025 1.4065,-0.95993 1.65512,-1.287 0.15551,-0.20458 0.31918,-0.548 0.48821,-1.00297 a 18.64398,4.2059373 37.239694 0 0 -8.62397,-9.82529 18.64398,4.2059373 17.239694 0 0 10.50499,1.56627 c 0.27732,-1.60968 0.54736,-3.33651 0.80169,-5.11418 a 18.64398,4.2059373 17.239694 0 0 -8.89367,-4.22573 4.2059373,18.64398 87.239694 0 0 9.68053,-1.87556 c 0.20299,-1.76435 0.38085,-3.49586 0.52477,-5.13169 a 4.2059373,18.64398 87.239694 0 0 -10.59695,-1.12294 4.2059373,18.64398 67.239694 0 0 10.96359,-7.56373 c -0.0437,-0.80584 -0.13151,-1.40574 -0.27153,-1.73943 -0.0712,-0.16972 -0.20273,-0.37915 -0.3839,-0.62075 a 4.2059373,18.64398 67.239694 0 0 -13.45669,2.41803 4.2059373,18.64398 47.239694 0 0 6.79249,-8.6554 c -1.20374,-0.99832 -2.49759,-2.0404 -3.83987,-3.09419 a 4.2059373,18.64398 47.239694 0 0 -8.47875,5.77349 4.2059373,18.64398 27.239694 0 0 3.29646,-9.7218 c -1.36726,-1.01023 -2.71447,-1.97935 -4.00102,-2.87913 a 4.2059373,18.64398 27.239694 0 0 -6.53189,8.87532 4.2059373,18.64398 7.2396945 0 0 -1.37187,-13.77398 c -0.39117,-0.1689 -0.71053,-0.27387 -0.94349,-0.30346 z"
         style="opacity:1;fill:#ffffff;fill-opacity:1;stroke:none;stroke-width:0.79081184;stroke-miterlimit:4;stroke-dasharray:none;stroke-opacity:1" />
      <g
         id="g5112"
         transform="matrix(0.13486189,0.01713195,-0.01713195,0.13486189,418.25648,309.72234)">
        <g
           transform="matrix(0.68656781,0,0,0.68656781,-3166.2042,-667.6904)"
           id="g5100">
          <path
             transform="matrix(-0.21577837,0.80529586,-0.80529586,-0.21577837,1285.8215,-573.51134)"
             d="m 692.1965,120.47252 -218.67879,-1e-5 -109.33938,-189.381388 109.3394,-189.381382 218.67879,10e-6 109.33938,189.381394 z"
             inkscape:randomized="0"
             inkscape:rounded="0"
             inkscape:flatsided="true"
             sodipodi:arg2="1.5707963"
             sodipodi:arg1="1.0471976"
             sodipodi:r2="109.33939"
             sodipodi:r1="218.67879"
             sodipodi:cy="-68.908867"
             sodipodi:cx="582.85712"
             sodipodi:sides="6"
             id="path5094"
             style="fill:#efd31a;fill-opacity:1;stroke:none"
             sodipodi:type="star" />
          <path
             sodipodi:type="star"
             style="fill:#bead0f;fill-opacity:1;stroke:none"
             id="path5096"
             sodipodi:sides="6"
             sodipodi:cx="582.85712"
             sodipodi:cy="-68.908867"
             sodipodi:r1="218.67879"
             sodipodi:r2="109.33939"
             sodipodi:arg1="1.0471976"
             sodipodi:arg2="1.5707963"
             inkscape:flatsided="true"
             inkscape:rounded="0"
             inkscape:randomized="0"
             d="m 692.1965,120.47252 -218.67879,-1e-5 -109.33938,-189.381388 109.3394,-189.381382 218.67879,10e-6 109.33938,189.381394 z"
             transform="matrix(-0.41685181,0.72200852,-0.72200852,-0.41685181,1408.7578,-538.82246)" />
          <path
             transform="matrix(-0.58951748,0.58951749,-0.58951749,-0.58951748,1518.5271,-473.49731)"
             d="m 692.1965,120.47252 -218.67879,-1e-5 -109.33938,-189.381388 109.3394,-189.381382 218.67879,10e-6 109.33938,189.381394 z"
             inkscape:randomized="0"
             inkscape:rounded="0"
             inkscape:flatsided="true"
             sodipodi:arg2="1.5707963"
             sodipodi:arg1="1.0471976"
             sodipodi:r2="109.33939"
             sodipodi:r1="218.67879"
             sodipodi:cy="-68.908867"
             sodipodi:cx="582.85712"
             sodipodi:sides="6"
             id="path5098"
             style="fill:#dfcd14;fill-opacity:1;stroke:none"
             sodipodi:type="star" />
        </g>
        <g
           transform="matrix(0.68656781,0,0,0.68656781,-2579.6534,-657.6577)"
           id="g5110">
          <path
             inkscape:connector-curvature="0"
             style="fill:#c6b70c;fill-opacity:1;stroke:none;stroke-width:1.06666672"
             d="M 344.19063,49.200167 C 326.10599,47.295077 309.68906,42.667587 292.6227,34.664507 274.47937,26.156407 260.07921,15.666967 245.47651,0.32201665 225.78161,-20.373943 212.77432,-45.379363 206.55205,-74.506983 c -2.76489,-12.94295 -2.72806,-46.886877 0.0648,-59.704687 13.27525,-60.927 59.33483,-107.01172 120.66505,-120.73089 12.22888,-2.73552 41.89163,-3.83135 55.32403,-2.04383 67.76574,9.01793 122.50536,61.36458 133.60264,127.7621 2.3513,14.06846 2.30885,37.231107 -0.0934,50.983977 -14.03434,80.3445597 -89.31001,136.14329 -171.92448,127.44048 z"
             id="path5102" />
          <g
             id="g5108">
            <path
               inkscape:connector-curvature="0"
               id="path5104"
               d="m 367.28189,9.6786667 v -13.94768 l -4.76894,-6.1975997 c -11.19505,-14.54881 -23.21544,-24.01235 -43.9151,-34.57396 -21.98911,-11.21953 -30.73748,-18.24724 -39.43603,-31.67961 -10.21076,-15.76754 -17.73025,-39.493157 -22.79405,-71.920127 -1.19098,-7.62667 -2.43759,-15.49766 -2.77025,-17.4911 -0.60271,-3.6117 -0.57367,-3.59552 8.2731,4.60976 11.41839,10.59044 27.86085,21.51774 49.9446,33.19211 9.68,5.11725 21.5226,11.88634 26.3169,15.04242 10.8073,7.11446 20.53489,17.579967 25.4239,27.352537 l 3.72587,7.44756 0.003,-14.27664 c 0.002,-7.852157 -0.5314,-19.392437 -1.18445,-25.645067 -2.31006,-22.1173 2.00354,-37.37825 13.43153,-47.51904 3.16882,-2.8119 12.36713,-8.71254 20.44068,-13.11254 12.163,-6.62871 16.22563,-9.50917 23.70102,-16.80435 4.962,-4.84239 9.27908,-8.5471 9.59349,-8.23268 0.31442,0.31442 0.76375,7.63638 0.99853,16.27102 0.49257,18.11652 -0.9719,26.55948 -6.36054,36.6696 -5.81461,10.90932 -13.04374,17.23358 -33.95652,29.70616 -6.16,3.67387 -13.24,8.32677 -15.73333,10.33976 l -4.53334,3.65998 v 65.528587 65.52859 h -3.2 -3.2 V 9.6786667 Z"
               style="fill:#ffffff;fill-opacity:1;stroke-width:1.06666672" />
            <path
               inkscape:connector-curvature="0"
               id="path5106"
               d="m 356.11891,-161.18411 c -1.10581,-1.90092 -5.3197,-7.02035 -9.36418,-11.37653 -10.64455,-11.46489 -12.02449,-14.49871 -11.92304,-26.21301 0.0675,-7.79841 0.72751,-11.55172 3.51675,-20 1.88849,-5.72 3.64132,-10.4 3.89518,-10.4 0.25387,0 1.49131,2.04 2.74987,4.53334 1.25857,2.49333 5.57325,9.59026 9.58819,15.77096 8.58403,13.21447 10.56687,18.25125 10.56687,26.84174 0,5.79926 -4.13064,21.34234 -6.24793,23.51017 -0.42413,0.43424 -1.6759,-0.76576 -2.78171,-2.66667 z"
               style="fill:#ffef1d;fill-opacity:1;stroke-width:1.06666672" />
          </g>
        </g>
      </g>
    </g>
    <g
       id="g4571"
       transform="rotate(-6.3944661,168.18143,-248.67566)">
      <text
         transform="rotate(37.057516)"
         xml:space="preserve"
         style="font-style:normal;font-variant:normal;font-weight:normal;font-stretch:normal;font-size:3.18170857px;line-height:0%;font-family:sans-serif;-inkscape-font-specification:sans-serif;letter-spacing:0px;word-spacing:0px;fill:#444444;fill-opacity:1;stroke:none;stroke-width:0.64631104px;stroke-linecap:butt;stroke-linejoin:miter;stroke-opacity:1"
         x="174.81601"
         y="11.495916"
         id="text5074"><tspan
           sodipodi:role="line"
           id="tspan5072"
           x="174.81601"
           y="11.495916"
           style="font-style:normal;font-variant:normal;font-weight:600;font-stretch:normal;font-size:26.49729919px;line-height:1.25;font-family:'URW Gothic L';-inkscape-font-specification:'URW Gothic L Semi-Bold';fill:#444444;fill-opacity:1;stroke-width:0.64631104px">TeaLinuxOS</tspan></text>
      <text
         inkscape:transform-center-y="-18.771721"
         inkscape:transform-center-x="14.275757"
         transform="rotate(35.983618)"
         xml:space="preserve"
         style="font-style:normal;font-variant:normal;font-weight:600;font-stretch:normal;font-size:3.18170857px;line-height:0%;font-family:'URW Gothic L';-inkscape-font-specification:'URW Gothic L, Semi-Bold';font-variant-ligatures:normal;font-variant-caps:normal;font-variant-numeric:normal;font-feature-settings:normal;text-align:start;letter-spacing:0px;word-spacing:0px;writing-mode:lr-tb;text-anchor:start;fill:#eeeeee;fill-opacity:1;stroke:none;stroke-width:0.57790816px;stroke-linecap:butt;stroke-linejoin:miter;stroke-opacity:1"
         x="143.89227"
         y="153.72708"
         id="text5080"><tspan
           sodipodi:role="line"
           id="tspan5078"
           x="143.89227"
           y="153.72708"
           style="font-size:22.33589935px;line-height:1.25;fill:#eeeeee;fill-opacity:1;stroke-width:0.57790816px">Chamomile</tspan></text>
    </g>
  </g>
</svg>
