<?xml version="1.0" encoding="UTF-8" standalone="no"?>
<!-- Created with Inkscape (http://www.inkscape.org/) -->

<svg
   xmlns:dc="http://purl.org/dc/elements/1.1/"
   xmlns:cc="http://creativecommons.org/ns#"
   xmlns:rdf="http://www.w3.org/1999/02/22-rdf-syntax-ns#"
   xmlns:svg="http://www.w3.org/2000/svg"
   xmlns="http://www.w3.org/2000/svg"
   xmlns:sodipodi="http://sodipodi.sourceforge.net/DTD/sodipodi-0.dtd"
   xmlns:inkscape="http://www.inkscape.org/namespaces/inkscape"
   width="800"
   height="600"
   viewBox="0 0 211.66666 158.75"
   version="1.1"
   id="svg1569"
   inkscape:version="0.92.1 unknown"
   sodipodi:docname="Yellow3.svg">
  <defs
     id="defs1563" />
  <sodipodi:namedview
     id="base"
     pagecolor="#ffffff"
     bordercolor="#666666"
     borderopacity="1.0"
     inkscape:pageopacity="0.0"
     inkscape:pageshadow="2"
     inkscape:zoom="0.7"
     inkscape:cx="787.08383"
     inkscape:cy="296.93944"
     inkscape:document-units="mm"
     inkscape:current-layer="layer1"
     showgrid="false"
     units="px"
     inkscape:window-width="1366"
     inkscape:window-height="717"
     inkscape:window-x="0"
     inkscape:window-y="25"
     inkscape:window-maximized="1" />
  <metadata
     id="metadata1566">
    <rdf:RDF>
      <cc:Work
         rdf:about="">
        <dc:format>image/svg+xml</dc:format>
        <dc:type
           rdf:resource="http://purl.org/dc/dcmitype/StillImage" />
        <dc:title></dc:title>
      </cc:Work>
    </rdf:RDF>
  </metadata>
  <g
     inkscape:label="Layer 1"
     inkscape:groupmode="layer"
     id="layer1"
     transform="translate(0,-138.24998)">
    <g
       id="g4903"
       transform="matrix(0.20657576,0,0,0.20657576,-927.04546,93.572178)">
      <rect
         y="216.51965"
         x="4488"
         height="768"
         width="1024"
         id="rect5227"
         style="fill:#444444;fill-opacity:1" />
      <path
         sodipodi:nodetypes="cccc"
         inkscape:connector-curvature="0"
         id="path5475"
         d="M 5512,812.90362 4716.8215,216.51965 H 5512 Z"
         style="fill:#eeeeee;fill-opacity:1;stroke-width:0.77654153" />
      <text
         id="text5275"
         y="-2569.2737"
         x="4114.1401"
         style="font-style:normal;font-variant:normal;font-weight:normal;font-stretch:normal;line-height:0%;font-family:sans-serif;-inkscape-font-specification:sans-serif;letter-spacing:0px;word-spacing:0px;fill:#444444;fill-opacity:1;stroke:none;stroke-width:1.92124367px;stroke-linecap:butt;stroke-linejoin:miter;stroke-opacity:1"
         xml:space="preserve"
         transform="rotate(35.280664)"><tspan
           style="font-style:normal;font-variant:normal;font-weight:600;font-stretch:normal;font-size:78.76667023px;line-height:1.25;font-family:'URW Gothic L';-inkscape-font-specification:'URW Gothic L Semi-Bold';fill:#444444;fill-opacity:1;stroke-width:1.92124367px"
           y="-2569.2737"
           x="4114.1401"
           id="tspan5273"
           sodipodi:role="line">TeaLinux</tspan></text>
      <path
         style="fill:#eeeeee;fill-opacity:1;stroke-width:0.68952602"
         d="m 4488,454.96364 706.0746,529.55601 H 4488 Z"
         id="rect5450"
         inkscape:connector-curvature="0"
         sodipodi:nodetypes="cccc" />
      <text
         id="text5271"
         y="-2110.5298"
         x="4055.4751"
         style="font-style:normal;font-variant:normal;font-weight:600;font-stretch:normal;line-height:0%;font-family:'URW Gothic L';-inkscape-font-specification:'URW Gothic L, Semi-Bold';font-variant-ligatures:normal;font-variant-caps:normal;font-variant-numeric:normal;font-feature-settings:normal;text-align:start;letter-spacing:0px;word-spacing:0px;writing-mode:lr-tb;text-anchor:start;fill:#444444;fill-opacity:1;stroke:none;stroke-width:2.26072717px;stroke-linecap:butt;stroke-linejoin:miter;stroke-opacity:1"
         xml:space="preserve"
         transform="rotate(35.983617)"
         inkscape:transform-center-x="14.807028"
         inkscape:transform-center-y="-19.470338"><tspan
           style="font-size:87.37612915px;line-height:1.25;fill:#444444;fill-opacity:1;stroke-width:2.26072717px"
           y="-2110.5298"
           x="4055.4751"
           id="tspan5269"
           sodipodi:role="line">Chamomile</tspan></text>
      <path
         inkscape:connector-curvature="0"
         id="path5396"
         style="font-style:normal;font-variant:normal;font-weight:600;font-stretch:normal;font-size:medium;line-height:125%;font-family:'URW Gothic L';-inkscape-font-specification:'URW Gothic L Semi-Bold';letter-spacing:0px;word-spacing:0px;fill:#fef390;fill-opacity:1;stroke:none;stroke-width:10.66633224px;stroke-linecap:butt;stroke-linejoin:miter;stroke-opacity:1"
         d="m 4925.1347,373.09119 c -73.5804,-58.27783 -174.6763,-47.45661 -231.8945,24.78607 -56.4237,71.23936 -43.6649,173.32522 28.9121,230.8084 71.9083,56.95331 171.666,45.07241 228.8845,-27.17026 55.8937,-70.57039 44.6682,-172.53047 -25.9021,-228.42421 z m -35.6357,43.61835 c 45.8208,36.29122 52.4685,101.42587 14.853,148.91865 -37.6156,47.4929 -100.7436,55.73024 -147.5677,18.64435 -46.8238,-37.08589 -54.4751,-103.01505 -17.3892,-149.83913 37.8806,-47.82725 102.6111,-55.33959 150.1039,-17.72387 z" />
      <path
         d="m 4958.1196,627.93868 c -20.1197,30.45219 -28.1332,53.69767 -28.5704,84.54339 -0.5633,45.14227 22.4689,89.77753 60.8045,120.14044 65.3672,51.7725 156.0845,41.24461 208.2463,-24.61387 23.7453,-29.98042 33.0724,-64.9823 27.5094,-101.37998 -3.7428,-24.55858 -10.4776,-40.29036 -35.3542,-81.58755 -24.2828,-40.02724 -24.8769,-41.29738 -27.4559,-48.13901 -6.6525,-18.86514 -4.5803,-35.61927 5.93,-48.8893 17.1279,-21.62513 44.4313,-24.79379 66.548,-7.27679 22.608,17.90635 25.4699,42.56753 7.9727,68.69864 l 69.7903,55.27585 c 20.3243,-28.69077 28.7274,-52.42737 28.3858,-82.29028 -0.1958,-40.14475 -20.3619,-79.31091 -54.2742,-106.17034 -58.4864,-46.32275 -141.8703,-37.98473 -187.4147,19.51866 -36.2016,45.70771 -36.8082,102.01263 -2.5545,158.73497 34.2538,56.72247 36.0347,60.53231 40.7214,77.84082 3.806,17.41035 -0.4173,34.86019 -12.4846,50.09617 -20.6313,26.04839 -55.1849,28.27331 -84.1822,5.3066 -29.9805,-23.74536 -34.5214,-51.33552 -13.3357,-84.1431 z"
         style="font-style:normal;font-variant:normal;font-weight:600;font-stretch:normal;font-size:medium;line-height:125%;font-family:'URW Gothic L';-inkscape-font-specification:'URW Gothic L Semi-Bold';letter-spacing:0px;word-spacing:0px;fill:#444444;fill-opacity:1;stroke:none;stroke-width:15.67409039px;stroke-linecap:butt;stroke-linejoin:miter;stroke-opacity:1"
         id="path5403"
         inkscape:connector-curvature="0" />
      <path
         inkscape:connector-curvature="0"
         style="font-style:normal;font-variant:normal;font-weight:600;font-stretch:normal;font-size:medium;line-height:125%;font-family:'URW Gothic L';-inkscape-font-specification:'URW Gothic L Semi-Bold';letter-spacing:0px;word-spacing:0px;fill:#fdf395;fill-opacity:1;stroke:none;stroke-width:15.67409039px;stroke-linecap:butt;stroke-linejoin:miter;stroke-opacity:1"
         d="m 4818.7383,800.51758 c -47.2452,0.40179 -93.3128,21.60568 -125.4981,62.24219 -56.4237,71.23936 -43.6649,173.32543 28.9121,230.80863 71.9083,56.9533 171.6663,45.0708 228.8848,-27.1719 15.8077,-19.9586 26.2438,-42.4284 31.4902,-65.6563 l 104.3438,78.2578 c 3.1055,6.7783 6.7014,13.5789 10.8125,20.3868 34.2538,56.7224 36.034,60.5333 40.7207,77.8418 3.806,17.4103 -0.4171,34.8597 -12.4844,50.0957 -20.6313,26.0484 -55.1863,28.2733 -84.1836,5.3066 -29.9805,-23.7454 -34.5197,-51.335 -13.334,-84.1426 l -70.2832,-55.666 c -20.1197,30.4522 -28.1331,53.6973 -28.5703,84.543 -0.5633,45.1423 22.4691,89.7777 60.8047,120.1406 65.3672,51.7725 156.0843,41.2452 208.2461,-24.6133 23.7453,-29.9804 33.0728,-64.9832 27.5098,-101.3808 -3.7428,-24.5586 -10.4769,-40.2888 -35.3535,-81.586 -24.2828,-40.0272 -24.8781,-41.299 -27.4571,-48.1406 -1.4281,-4.0498 -2.4298,-7.9943 -3.0566,-11.8359 l -0.2168,-16.125 c 8e-4,-0.01 0,-0.011 0,-0.016 l -72.3886,-54.29098 c -0.013,0.0242 -0.028,0.0481 -0.041,0.0723 l -162.461,-121.61496 c -32.1915,-25.49655 -69.6503,-37.76759 -106.3965,-37.45508 z m 3.5586,101.76172 c 28.2329,11.1782 33.0863,14.28487 43.8965,22.40625 13.1662,10.94488 20.488,26.48312 20.9101,44.91992 l -4.2734,0.0332 c -3.4058,38.31173 -23.395,57.27813 -60.5332,58.12893 -37.1388,-0.8505 -57.1294,-19.8169 -60.5352,-58.12893 l -4.2734,-0.0332 c 0.4222,-18.43679 7.7459,-33.97504 20.9121,-44.91992 10.8102,-8.12138 15.6639,-11.22815 43.8965,-22.40625 z"
         transform="translate(0,-464.88192)"
         id="path5481" />
      <g
         transform="matrix(0.6185831,0.07858065,-0.07858065,0.6185831,6208.6154,1135.1541)"
         id="g5265">
        <path
           style="fill:#fef390;fill-opacity:1"
           transform="matrix(0.39088625,-1.4588074,1.4588074,0.39088625,-2802.4198,-38.11962)"
           inkscape:transform-center-y="-10.806493"
           inkscape:transform-center-x="21.739287"
           d="m 713.14244,130.1043 c 5.09868,19.02853 -37.05695,176.35547 -50.9868,190.28532 -13.92985,13.92985 -171.25679,56.08548 -190.28532,50.9868 C 452.84179,366.27774 337.67047,251.10643 332.57179,232.07789 327.47311,213.04936 369.62874,55.722422 383.55859,41.79257 397.48844,27.862717 554.81538,-14.292909 573.84392,-9.1942295 592.87245,-4.0955496 708.04376,111.07576 713.14244,130.1043 Z"
           inkscape:randomized="0"
           inkscape:rounded="0.1"
           inkscape:flatsided="true"
           sodipodi:arg2="0.26179939"
           sodipodi:arg1="-0.26179939"
           sodipodi:r2="98.49894"
           sodipodi:r1="196.99786"
           sodipodi:cy="181.09109"
           sodipodi:cx="522.85712"
           sodipodi:sides="6"
           id="path5239"
           sodipodi:type="star" />
        <path
           sodipodi:type="star"
           id="path5241"
           sodipodi:sides="6"
           sodipodi:cx="522.85712"
           sodipodi:cy="181.09109"
           sodipodi:r1="196.99786"
           sodipodi:r2="98.49894"
           sodipodi:arg1="-0.26179939"
           sodipodi:arg2="0.26179939"
           inkscape:flatsided="true"
           inkscape:rounded="0.1"
           inkscape:randomized="0"
           d="m 713.14244,130.1043 c 5.09868,19.02853 -37.05695,176.35547 -50.9868,190.28532 -13.92985,13.92985 -171.25679,56.08548 -190.28532,50.9868 C 452.84179,366.27774 337.67047,251.10643 332.57179,232.07789 327.47311,213.04936 369.62874,55.722422 383.55859,41.79257 397.48844,27.862717 554.81538,-14.292909 573.84392,-9.1942295 592.87245,-4.0955496 708.04376,111.07576 713.14244,130.1043 Z"
           inkscape:transform-center-x="19.523924"
           inkscape:transform-center-y="-9.7052465"
           transform="matrix(0.35105269,-1.3101465,1.3101465,0.35105269,-2752.456,-107.53328)"
           style="opacity:1;fill:#c4c4c4;fill-opacity:1;stroke:none" />
        <path
           inkscape:connector-curvature="0"
           id="path5243"
           transform="translate(0,-464.88192)"
           d="m -2331.6504,-531.29883 c -1.7079,0 -4.097,0.45761 -7.0605,1.3086 a 30.938362,137.14285 0 0 0 -22.8672,99.26953 137.14285,30.938362 70 0 0 -39.4649,-70.8125 c -10.2126,5.36836 -20.9313,11.18511 -31.834,17.2832 a 137.14285,30.938362 70 0 0 15.0352,74 137.14285,30.938362 50 0 0 -56.5137,-49.99219 c -10.783,6.45191 -21.2013,12.86397 -30.9199,19.03907 a 137.14285,30.938362 50 0 0 41.5664,69.43945 137.14285,30.938362 30 0 0 -95.959,-30.11328 c -1.5484,1.59703 -2.7071,3.00411 -3.3847,4.17773 -1.3232,2.2918 -2.5132,6.55037 -3.5743,12.33789 a 137.14285,30.938362 30 0 0 72.9825,65.44727 137.14285,30.938362 10 0 0 -78.375,-1.66406 c -0.4675,12.08785 -0.7752,24.9079 -0.9297,37.99218 a 137.14285,30.938362 10 0 0 68.9023,22.63477 30.938362,137.14285 80 0 0 -68.8164,22.61914 c 0.2079,13.18599 0.5753,26.01606 1.1055,38.00195 a 30.938362,137.14285 80 0 0 78.1074,-1.6582 30.938362,137.14285 60 0 0 -72.041,63.69336 c 0.8131,3.48942 1.6912,6.1558 2.6387,7.79687 1.5122,2.61929 5.3227,6.36751 10.8984,10.9375 a 30.938362,137.14285 60 0 0 88.4355,-30.57422 30.938362,137.14285 40 0 0 -39.4746,64.460942 c 10.6039,6.705305 21.9949,13.671223 33.7383,20.640625 a 30.938362,137.14285 40 0 0 51.5996,-46.615237 30.938362,137.14285 20 0 0 -14.5976,67.939456 c 11.9894,6.701159 23.7514,13.061219 34.8476,18.845703 a 30.938362,137.14285 20 0 0 36.0117,-66.302735 30.938362,137.14285 0 0 0 17.3497,91.15234412 c 5.6018,2.00229128 9.9281,3.11523438 12.5937,3.11523438 2.6529,0 6.9508,-1.1036986 12.5137,-3.08789062 a 30.938362,137.14285 0 0 0 17.416,-91.17773388 137.14285,30.938362 70 0 0 36.0098,66.310546 c 11.0869,-5.77938 22.8387,-12.134897 34.8183,-18.830078 a 137.14285,30.938362 70 0 0 -14.5664,-67.957026 137.14285,30.938362 50 0 0 51.5703,46.632808 c 11.7525,-6.974286 23.1515,-13.945917 33.7637,-20.65625 a 137.14285,30.938362 50 0 0 -39.4648,-64.458988 137.14285,30.938362 30 0 0 88.457,30.55078 c 5.5683,-4.565 9.3737,-8.30859 10.8848,-10.92578 0.9451,-1.63704 1.8213,-4.29481 2.6328,-7.77148 a 137.14285,30.938362 30 0 0 -72.0391,-63.70313 137.14285,30.938362 10 0 0 78.1094,1.69141 c 0.5315,-12.00324 0.9013,-24.85466 1.1094,-38.0625 a 137.14285,30.938362 10 0 0 -68.8165,-22.5918 30.938362,137.14285 80 0 0 68.9024,-22.66015 c -0.1543,-13.06308 -0.4615,-25.86319 -0.9277,-37.9336 a 30.938362,137.14285 80 0 0 -78.3692,1.62891 30.938362,137.14285 60 0 0 72.9922,-65.35742 c -1.0658,-5.83995 -2.2628,-10.13613 -3.5937,-12.44141 -0.677,-1.17244 -1.831,-2.57879 -3.377,-4.17383 a 30.938362,137.14285 60 0 0 -95.9551,30.11914 30.938362,137.14285 40 0 0 41.543,-69.45703 c -9.7095,-6.16915 -20.1168,-12.57408 -30.8887,-19.01953 a 30.938362,137.14285 40 0 0 -56.5195,49.99024 30.938362,137.14285 20 0 0 15.043,-73.99805 c -10.9136,-6.10441 -21.643,-11.92749 -31.8653,-17.30078 a 30.938362,137.14285 20 0 0 -39.4375,70.82031 30.938362,137.14285 0 0 0 -22.7793,-99.24023 c -3.0108,-0.8699 -5.4386,-1.33985 -7.166,-1.33985 z"
           style="opacity:1;fill:#ffffff;fill-opacity:1;stroke:none;stroke-width:5.81711578;stroke-miterlimit:4;stroke-dasharray:none;stroke-opacity:1" />
        <g
           id="g5263">
          <g
             transform="matrix(0.68656781,0,0,0.68656781,-3166.2042,-667.6904)"
             id="g5251">
            <path
               transform="matrix(-0.21577837,0.80529586,-0.80529586,-0.21577837,1285.8215,-573.51134)"
               d="m 692.1965,120.47252 -218.67879,-1e-5 -109.33938,-189.381388 109.3394,-189.381382 218.67879,10e-6 109.33938,189.381394 z"
               inkscape:randomized="0"
               inkscape:rounded="0"
               inkscape:flatsided="true"
               sodipodi:arg2="1.5707963"
               sodipodi:arg1="1.0471976"
               sodipodi:r2="109.33939"
               sodipodi:r1="218.67879"
               sodipodi:cy="-68.908867"
               sodipodi:cx="582.85712"
               sodipodi:sides="6"
               id="path5245"
               style="fill:#efd31a;fill-opacity:1;stroke:none"
               sodipodi:type="star" />
            <path
               sodipodi:type="star"
               style="fill:#bead0f;fill-opacity:1;stroke:none"
               id="path5247"
               sodipodi:sides="6"
               sodipodi:cx="582.85712"
               sodipodi:cy="-68.908867"
               sodipodi:r1="218.67879"
               sodipodi:r2="109.33939"
               sodipodi:arg1="1.0471976"
               sodipodi:arg2="1.5707963"
               inkscape:flatsided="true"
               inkscape:rounded="0"
               inkscape:randomized="0"
               d="m 692.1965,120.47252 -218.67879,-1e-5 -109.33938,-189.381388 109.3394,-189.381382 218.67879,10e-6 109.33938,189.381394 z"
               transform="matrix(-0.41685181,0.72200852,-0.72200852,-0.41685181,1408.7578,-538.82246)" />
            <path
               transform="matrix(-0.58951748,0.58951749,-0.58951749,-0.58951748,1518.5271,-473.49731)"
               d="m 692.1965,120.47252 -218.67879,-1e-5 -109.33938,-189.381388 109.3394,-189.381382 218.67879,10e-6 109.33938,189.381394 z"
               inkscape:randomized="0"
               inkscape:rounded="0"
               inkscape:flatsided="true"
               sodipodi:arg2="1.5707963"
               sodipodi:arg1="1.0471976"
               sodipodi:r2="109.33939"
               sodipodi:r1="218.67879"
               sodipodi:cy="-68.908867"
               sodipodi:cx="582.85712"
               sodipodi:sides="6"
               id="path5249"
               style="fill:#dfcd14;fill-opacity:1;stroke:none"
               sodipodi:type="star" />
          </g>
          <g
             transform="matrix(0.68656781,0,0,0.68656781,-2579.6534,-657.6577)"
             id="g5261">
            <path
               inkscape:connector-curvature="0"
               style="fill:#c6b70c;fill-opacity:1;stroke:none;stroke-width:1.06666672"
               d="M 344.19063,49.200167 C 326.10599,47.295077 309.68906,42.667587 292.6227,34.664507 274.47937,26.156407 260.07921,15.666967 245.47651,0.32201665 225.78161,-20.373943 212.77432,-45.379363 206.55205,-74.506983 c -2.76489,-12.94295 -2.72806,-46.886877 0.0648,-59.704687 13.27525,-60.927 59.33483,-107.01172 120.66505,-120.73089 12.22888,-2.73552 41.89163,-3.83135 55.32403,-2.04383 67.76574,9.01793 122.50536,61.36458 133.60264,127.7621 2.3513,14.06846 2.30885,37.231107 -0.0934,50.983977 -14.03434,80.3445597 -89.31001,136.14329 -171.92448,127.44048 z"
               id="path5253" />
            <g
               id="g5259">
              <path
                 inkscape:connector-curvature="0"
                 id="path5255"
                 d="m 367.28189,9.6786667 v -13.94768 l -4.76894,-6.1975997 c -11.19505,-14.54881 -23.21544,-24.01235 -43.9151,-34.57396 -21.98911,-11.21953 -30.73748,-18.24724 -39.43603,-31.67961 -10.21076,-15.76754 -17.73025,-39.493157 -22.79405,-71.920127 -1.19098,-7.62667 -2.43759,-15.49766 -2.77025,-17.4911 -0.60271,-3.6117 -0.57367,-3.59552 8.2731,4.60976 11.41839,10.59044 27.86085,21.51774 49.9446,33.19211 9.68,5.11725 21.5226,11.88634 26.3169,15.04242 10.8073,7.11446 20.53489,17.579967 25.4239,27.352537 l 3.72587,7.44756 0.003,-14.27664 c 0.002,-7.852157 -0.5314,-19.392437 -1.18445,-25.645067 -2.31006,-22.1173 2.00354,-37.37825 13.43153,-47.51904 3.16882,-2.8119 12.36713,-8.71254 20.44068,-13.11254 12.163,-6.62871 16.22563,-9.50917 23.70102,-16.80435 4.962,-4.84239 9.27908,-8.5471 9.59349,-8.23268 0.31442,0.31442 0.76375,7.63638 0.99853,16.27102 0.49257,18.11652 -0.9719,26.55948 -6.36054,36.6696 -5.81461,10.90932 -13.04374,17.23358 -33.95652,29.70616 -6.16,3.67387 -13.24,8.32677 -15.73333,10.33976 l -4.53334,3.65998 v 65.528587 65.52859 h -3.2 -3.2 V 9.6786667 Z"
                 style="fill:#ffffff;fill-opacity:1;stroke-width:1.06666672" />
              <path
                 inkscape:connector-curvature="0"
                 id="path5257"
                 d="m 356.11891,-161.18411 c -1.10581,-1.90092 -5.3197,-7.02035 -9.36418,-11.37653 -10.64455,-11.46489 -12.02449,-14.49871 -11.92304,-26.21301 0.0675,-7.79841 0.72751,-11.55172 3.51675,-20 1.88849,-5.72 3.64132,-10.4 3.89518,-10.4 0.25387,0 1.49131,2.04 2.74987,4.53334 1.25857,2.49333 5.57325,9.59026 9.58819,15.77096 8.58403,13.21447 10.56687,18.25125 10.56687,26.84174 0,5.79926 -4.13064,21.34234 -6.24793,23.51017 -0.42413,0.43424 -1.6759,-0.76576 -2.78171,-2.66667 z"
                 style="fill:#ffef1d;fill-opacity:1;stroke-width:1.06666672" />
            </g>
          </g>
        </g>
      </g>
    </g>
  </g>
</svg>
