<?xml version="1.0" encoding="UTF-8" standalone="no"?>
<!-- Created with Inkscape (http://www.inkscape.org/) -->

<svg
   xmlns:dc="http://purl.org/dc/elements/1.1/"
   xmlns:cc="http://creativecommons.org/ns#"
   xmlns:rdf="http://www.w3.org/1999/02/22-rdf-syntax-ns#"
   xmlns:svg="http://www.w3.org/2000/svg"
   xmlns="http://www.w3.org/2000/svg"
   xmlns:sodipodi="http://sodipodi.sourceforge.net/DTD/sodipodi-0.dtd"
   xmlns:inkscape="http://www.inkscape.org/namespaces/inkscape"
   width="800"
   height="600"
   viewBox="0 0 211.66666 158.75"
   version="1.1"
   id="svg1569"
   inkscape:version="0.92.1 unknown"
   sodipodi:docname="Yellow4.svg">
  <defs
     id="defs1563">
    <clipPath
       clipPathUnits="userSpaceOnUse"
       id="clipPath4937">
      <rect
         y="211.42154"
         x="5970.7881"
         height="768"
         width="1024"
         id="rect4939"
         style="fill:#444444;fill-opacity:1" />
    </clipPath>
    <filter
       height="1.0765271"
       y="-0.038263559"
       width="1.0723879"
       x="-0.036193967"
       id="filter5354"
       style="color-interpolation-filters:sRGB"
       inkscape:collect="always">
      <feGaussianBlur
         id="feGaussianBlur5356"
         stdDeviation="8.4414816"
         inkscape:collect="always" />
    </filter>
    <filter
       height="1.0627801"
       y="-0.031390078"
       width="1.0669541"
       x="-0.033477064"
       id="filter5633"
       style="color-interpolation-filters:sRGB"
       inkscape:collect="always">
      <feGaussianBlur
         id="feGaussianBlur5635"
         stdDeviation="4.8159722"
         inkscape:collect="always" />
    </filter>
    <filter
       height="1.1023085"
       y="-0.051154271"
       width="1.1091104"
       x="-0.05455514"
       id="filter6005"
       style="color-interpolation-filters:sRGB"
       inkscape:collect="always">
      <feGaussianBlur
         id="feGaussianBlur6007"
         stdDeviation="8.3338272"
         inkscape:collect="always" />
    </filter>
  </defs>
  <sodipodi:namedview
     id="base"
     pagecolor="#ffffff"
     bordercolor="#666666"
     borderopacity="1.0"
     inkscape:pageopacity="0.0"
     inkscape:pageshadow="2"
     inkscape:zoom="0.7"
     inkscape:cx="787.08383"
     inkscape:cy="296.93944"
     inkscape:document-units="mm"
     inkscape:current-layer="layer1"
     showgrid="false"
     units="px"
     inkscape:window-width="1366"
     inkscape:window-height="717"
     inkscape:window-x="0"
     inkscape:window-y="25"
     inkscape:window-maximized="1" />
  <metadata
     id="metadata1566">
    <rdf:RDF>
      <cc:Work
         rdf:about="">
        <dc:format>image/svg+xml</dc:format>
        <dc:type
           rdf:resource="http://purl.org/dc/dcmitype/StillImage" />
        <dc:title></dc:title>
      </cc:Work>
    </rdf:RDF>
  </metadata>
  <g
     inkscape:label="Layer 1"
     inkscape:groupmode="layer"
     id="layer1"
     transform="translate(0,-138.24998)">
    <g
       id="g4935"
       clip-path="url(#clipPath4937)"
       transform="matrix(0.20756008,0,0,0.20756008,-1239.7347,94.039242)">
      <rect
         style="fill:#444444;fill-opacity:1"
         id="rect5068"
         width="1024"
         height="768"
         x="5971.9287"
         y="212.27701" />
      <path
         style="fill:#eeeeee;fill-opacity:1;stroke-width:0.97731698"
         d="m 6995.9287,980.27701 -1024,-768 h 1024 z"
         id="path5070"
         inkscape:connector-curvature="0"
         sodipodi:nodetypes="cccc" />
      <text
         transform="rotate(37.057517)"
         xml:space="preserve"
         style="font-style:normal;font-variant:normal;font-weight:normal;font-stretch:normal;line-height:0%;font-family:sans-serif;-inkscape-font-specification:sans-serif;letter-spacing:0px;word-spacing:0px;fill:#444444;fill-opacity:1;stroke:none;stroke-width:2.4375999px;stroke-linecap:butt;stroke-linejoin:miter;stroke-opacity:1"
         x="5339.9668"
         y="-3669.0271"
         id="text5074"><tspan
           sodipodi:role="line"
           id="tspan5072"
           x="5339.9668"
           y="-3669.0271"
           style="font-style:normal;font-variant:normal;font-weight:600;font-stretch:normal;font-size:99.93611145px;line-height:1.25;font-family:'URW Gothic L';-inkscape-font-specification:'URW Gothic L Semi-Bold';fill:#444444;fill-opacity:1;stroke-width:2.4375999px">TeaLinuxOS</tspan></text>
      <rect
         style="fill:#fcd26d;fill-opacity:1;stroke-width:1.03801763"
         id="rect5358"
         width="1476.55"
         height="167.3822"
         x="4719.7461"
         y="-3629.1133"
         transform="rotate(37.982831)" />
      <path
         style="fill:#000000;fill-opacity:1;stroke-width:0.94173443;filter:url(#filter5354)"
         d="m 6428.7227,318.03605 c -21.8406,-0.42956 -159.0698,57.29924 -170.1211,71.83789 -11.2268,14.76942 -30.5563,166.93364 -23.3789,184.04104 7.1773,17.1073 129.2893,109.9296 147.6933,112.2676 18.4041,2.3379 159.8475,-57.0041 171.0742,-71.7735 7.7002,-10.13 19.2104,-84.8884 23.3672,-136.37889 l 143.6367,113.58989 c 6.3422,4.6105 8.3546,12.4472 7.8692,19.9355 -1.353,45.1272 -6.7625,90.0659 -15.2442,134.4414 0,0.015 -0.01,0.03 -0.014,0.045 -0.2821,0.4196 -0.5588,0.8417 -0.8692,1.25 -17.6342,11.778 -37.0022,20.7213 -56.289,29.336 -31.3088,13.0485 -62.3021,27.1881 -95.045,36.2382 -19.1693,10.2466 18.7773,25.7124 15.0586,24.1231 h -0.012 c 0.335,0.2074 0.6451,0.3913 0.9746,0.5937 0.5621,0.3453 1.1125,0.6799 1.6582,1.0098 0.6235,0.3767 1.2345,0.7416 1.836,1.0977 0.6069,0.3595 1.2037,0.7112 1.7871,1.0488 0.5126,0.2966 1.01,0.5782 1.5039,0.8574 0.6085,0.3442 1.2103,0.6812 1.789,0.9981 0.4546,0.2488 0.8867,0.4773 1.3223,0.7089 0.538,0.286 1.0762,0.5734 1.584,0.8321 0.4542,0.2314 0.8773,0.4336 1.3066,0.6426 0.4532,0.2205 0.9135,0.4498 1.3379,0.6445 0.4435,0.2036 0.8448,0.3682 1.2559,0.543 0.3461,0.147 0.7108,0.3115 1.0332,0.4375 0.4316,0.1687 0.8115,0.2899 1.1992,0.4199 0.2693,0.09 0.5669,0.2064 0.8145,0.2773 0.1402,0.04 0.2672,0.072 0.4004,0.1055 0.1353,0.034 0.2783,0.076 0.4062,0.1035 0.2641,0.058 0.5146,0.1015 0.7461,0.1309 18.4041,2.3379 159.8475,-57.004 171.0742,-71.7735 11.2268,-14.7694 30.5562,-166.9336 23.3789,-184.041 L 6558.6172,410.16496 c -36.6456,-33.00676 -114.5403,-90.23504 -128.9414,-92.06446 -0.2876,-0.0365 -0.6065,-0.0576 -0.9531,-0.0645 z"
         id="path5252"
         inkscape:connector-curvature="0"
         sodipodi:nodetypes="ccccccccccccccccccccccccccccccccccccc" />
      <path
         style="fill:#fef390;fill-opacity:1;stroke-width:0.94173443"
         d="m 6557.6271,410.07581 c -0.3923,-0.008 -0.8355,0.0107 -1.3027,0.041 -0.1694,0.0107 -0.3485,0.0256 -0.5274,0.041 -0.3181,0.0282 -0.6524,0.0642 -1,0.10742 -0.2236,0.0273 -0.4402,0.0526 -0.6758,0.0859 -0.2506,0.0361 -0.5233,0.0822 -0.7871,0.125 -9.2215,1.47752 -28.7227,10.08164 -48.6954,17.58133 0.4357,0.21323 0.8676,0.422 1.2949,0.61133 l 215.0605,162.95119 c 6.3422,4.6105 8.3546,12.4472 7.8692,19.9355 -1.353,45.1272 -6.7625,90.0659 -15.2442,134.4414 0,0.015 -0.01,0.03 -0.014,0.045 -0.2821,0.4196 -0.5588,0.8417 -0.8692,1.25 -17.6342,11.778 -37.0022,20.7213 -56.289,29.336 -31.3088,13.0485 -62.3021,27.1881 -95.045,36.2382 -19.1693,10.2466 18.7773,25.7124 15.0586,24.1231 h -0.012 c 0.335,0.2074 0.6451,0.3914 0.9746,0.5938 0.5621,0.3453 1.1125,0.6798 1.6582,1.0097 0.6235,0.3767 1.2345,0.7416 1.836,1.0977 0.6069,0.3595 1.2037,0.7112 1.7871,1.0488 0.5126,0.2966 1.01,0.5782 1.5039,0.8574 0.6085,0.3442 1.2103,0.6812 1.789,0.9981 0.4546,0.2488 0.8867,0.4774 1.3223,0.709 0.538,0.286 1.0762,0.5733 1.584,0.832 0.4542,0.2314 0.8773,0.4336 1.3066,0.6426 0.4532,0.2205 0.9135,0.4498 1.3379,0.6445 0.4435,0.2036 0.8448,0.3682 1.2559,0.543 0.3461,0.147 0.7108,0.3115 1.0332,0.4375 0.4316,0.1687 0.8115,0.2899 1.1992,0.4199 0.2693,0.09 0.5669,0.2064 0.8145,0.2773 0.1402,0.04 0.2672,0.072 0.4004,0.1055 0.1353,0.034 0.2783,0.076 0.4062,0.1035 0.2641,0.058 0.5146,0.1015 0.7461,0.1309 18.4041,2.3379 159.8475,-57.004 171.0742,-71.7735 11.2268,-14.7694 30.5562,-166.9336 23.3789,-184.041 L 6558.5776,410.13639 c -0.2876,-0.0365 -0.6045,-0.0576 -0.9512,-0.0644 z"
         id="path5116"
         inkscape:connector-curvature="0"
         sodipodi:nodetypes="ccccccccccccccccccccccccccccccccccccccc" />
      <path
         style="fill:#fcd26d;fill-opacity:1;stroke-width:1.03801763"
         d="m 6569.2439,524.33457 c -5.3073,40.67518 -12.6425,80.09008 -18.0821,87.24608 -5.7737,7.5957 -45.9886,26.9726 -86.1953,43.6934 l 546.5332,426.73445 103.0117,-131.92975 z"
         id="rect5360"
         inkscape:connector-curvature="0"
         sodipodi:nodetypes="cccccc" />
      <path
         inkscape:connector-curvature="0"
         id="path5639"
         d="M 5919.6476,48.88309 7405.5233,1206.5991"
         style="fill:none;fill-rule:evenodd;stroke:#fa7605;stroke-width:5;stroke-linecap:butt;stroke-linejoin:miter;stroke-miterlimit:4;stroke-dasharray:30, 5;stroke-dashoffset:0;stroke-opacity:1" />
      <path
         style="fill:none;fill-rule:evenodd;stroke:#fa7605;stroke-width:5;stroke-linecap:butt;stroke-linejoin:miter;stroke-miterlimit:4;stroke-dasharray:30, 5;stroke-dashoffset:0;stroke-opacity:1"
         d="M 5723.6476,48.88309 7209.5233,1206.5991"
         id="path5637"
         inkscape:connector-curvature="0" />
      <path
         inkscape:connector-curvature="0"
         style="fill:#000000;fill-opacity:1;stroke-width:0.94173443;filter:url(#filter5633)"
         d="m 6428.7227,318.03605 c -21.8406,-0.42956 -159.0698,57.29924 -170.1211,71.83789 -11.2268,14.76942 -30.5563,166.93364 -23.3789,184.04104 7.1773,17.1073 129.2893,109.9296 147.6933,112.2676 18.4041,2.3379 159.8475,-57.0041 171.0742,-71.7735 11.2268,-14.7694 30.5563,-166.93365 23.3789,-184.041 -7.1773,-17.10735 -129.2893,-109.92965 -147.6933,-112.26758 -0.2876,-0.0365 -0.6065,-0.0576 -0.9531,-0.0645 z"
         id="path5550" />
      <path
         style="fill:#fef390;fill-opacity:1"
         transform="matrix(0.35642966,-0.87167751,0.87167751,0.35642966,6062.0813,893.35798)"
         inkscape:transform-center-y="-10.806493"
         inkscape:transform-center-x="21.739287"
         d="m 713.14244,130.1043 c 5.09868,19.02853 -37.05695,176.35547 -50.9868,190.28532 -13.92985,13.92985 -171.25679,56.08548 -190.28532,50.9868 C 452.84179,366.27774 337.67047,251.10643 332.57179,232.07789 327.47311,213.04936 369.62874,55.722422 383.55859,41.79257 397.48844,27.862717 554.81538,-14.292909 573.84392,-9.1942295 592.87245,-4.0955496 708.04376,111.07576 713.14244,130.1043 Z"
         inkscape:randomized="0"
         inkscape:rounded="0.1"
         inkscape:flatsided="true"
         sodipodi:arg2="0.26179939"
         sodipodi:arg1="-0.26179939"
         sodipodi:r2="98.49894"
         sodipodi:r1="196.99786"
         sodipodi:cy="181.09109"
         sodipodi:cx="522.85712"
         sodipodi:sides="6"
         id="path5088"
         sodipodi:type="star" />
      <path
         style="opacity:1;fill:#000000;fill-opacity:1;stroke:none;filter:url(#filter6005)"
         transform="matrix(0.26321326,-0.64370926,0.64370926,0.26321326,6156.8572,793.62408)"
         inkscape:transform-center-y="-7.9802847"
         inkscape:transform-center-x="16.053823"
         d="m 713.14244,130.1043 c 5.09868,19.02853 -37.05695,176.35547 -50.9868,190.28532 -13.92985,13.92985 -171.25679,56.08548 -190.28532,50.9868 C 452.84179,366.27774 337.67047,251.10643 332.57179,232.07789 327.47311,213.04936 369.62874,55.722422 383.55859,41.79257 397.48844,27.862717 554.81538,-14.292909 573.84392,-9.1942295 592.87245,-4.0955496 708.04376,111.07576 713.14244,130.1043 Z"
         inkscape:randomized="0"
         inkscape:rounded="0.1"
         inkscape:flatsided="true"
         sodipodi:arg2="0.26179939"
         sodipodi:arg1="-0.26179939"
         sodipodi:r2="98.49894"
         sodipodi:r1="196.99786"
         sodipodi:cy="181.09109"
         sodipodi:cx="522.85712"
         sodipodi:sides="6"
         id="path5991"
         sodipodi:type="star" />
      <path
         sodipodi:type="star"
         id="path6009"
         sodipodi:sides="6"
         sodipodi:cx="522.85712"
         sodipodi:cy="181.09109"
         sodipodi:r1="196.99786"
         sodipodi:r2="98.49894"
         sodipodi:arg1="-0.26179939"
         sodipodi:arg2="0.26179939"
         inkscape:flatsided="true"
         inkscape:rounded="0.1"
         inkscape:randomized="0"
         d="m 713.14244,130.1043 c 5.09868,19.02853 -37.05695,176.35547 -50.9868,190.28532 -13.92985,13.92985 -171.25679,56.08548 -190.28532,50.9868 C 452.84179,366.27774 337.67047,251.10643 332.57179,232.07789 327.47311,213.04936 369.62874,55.722422 383.55859,41.79257 397.48844,27.862717 554.81538,-14.292909 573.84392,-9.1942295 592.87245,-4.0955496 708.04376,111.07576 713.14244,130.1043 Z"
         inkscape:transform-center-x="16.053823"
         inkscape:transform-center-y="-7.9802847"
         transform="matrix(0.26321326,-0.64370926,0.64370926,0.26321326,6156.8572,793.62408)"
         style="opacity:1;fill:#000000;fill-opacity:1;stroke:none;filter:url(#filter6005)" />
      <path
         sodipodi:type="star"
         id="path5090"
         sodipodi:sides="6"
         sodipodi:cx="522.85712"
         sodipodi:cy="181.09109"
         sodipodi:r1="196.99786"
         sodipodi:r2="98.49894"
         sodipodi:arg1="-0.26179939"
         sodipodi:arg2="0.26179939"
         inkscape:flatsided="true"
         inkscape:rounded="0.1"
         inkscape:randomized="0"
         d="m 713.14244,130.1043 c 5.09868,19.02853 -37.05695,176.35547 -50.9868,190.28532 -13.92985,13.92985 -171.25679,56.08548 -190.28532,50.9868 C 452.84179,366.27774 337.67047,251.10643 332.57179,232.07789 327.47311,213.04936 369.62874,55.722422 383.55859,41.79257 397.48844,27.862717 554.81538,-14.292909 573.84392,-9.1942295 592.87245,-4.0955496 708.04376,111.07576 713.14244,130.1043 Z"
         inkscape:transform-center-x="16.053823"
         inkscape:transform-center-y="-7.9802847"
         transform="matrix(0.26321326,-0.64370926,0.64370926,0.26321326,6156.8572,793.62408)"
         style="opacity:1;fill:#c4c4c4;fill-opacity:1;stroke:none" />
      <path
         inkscape:connector-curvature="0"
         id="path5092"
         d="m 6428.3147,368.81289 c -0.8687,-0.11036 -2.1135,-0.032 -3.6759,0.20939 a 15.862938,70.316859 7.2396945 0 0 -18.0453,49.01486 70.316859,15.862938 77.239694 0 0 -15.4979,-38.56802 c -5.5414,2.07067 -11.3692,4.33672 -17.3088,6.73399 a 70.316859,15.862938 77.239694 0 0 2.866,38.6108 70.316859,15.862938 57.239694 0 0 -25.5149,-29.07958 c -5.9014,2.58496 -11.615,5.17322 -16.9572,7.68616 a 70.316859,15.862938 57.239694 0 0 16.6555,38.00542 70.316859,15.862938 37.239694 0 0 -46.8627,-21.51711 c -0.8908,0.71227 -1.5711,1.35309 -1.9916,1.90626 -0.8211,1.0802 -1.7016,3.16939 -2.6152,6.04459 a 70.316859,15.862938 37.239694 0 0 32.8929,38.00476 70.316859,15.862938 17.239694 0 0 -39.7571,-5.91053 c -1.0188,6.11814 -2.0037,12.61905 -2.9277,19.26424 a 70.316859,15.862938 17.239694 0 0 33.5839,15.965 15.862938,70.316859 87.239694 0 0 -36.4643,7.05848 c -0.7462,6.72035 -1.3883,13.26997 -1.8931,19.40072 a 15.862938,70.316859 87.239694 0 0 39.8357,4.20342 15.862938,70.316859 67.239694 0 0 -40.7584,27.74209 c 0.1881,1.82739 0.4624,3.24036 0.8383,4.13629 0.5999,1.42998 2.2959,3.58269 4.8366,6.26744 a 15.862938,70.316859 67.239694 0 0 46.9574,-9.83708 15.862938,70.316859 47.239694 0 0 -24.2434,30.23677 c 4.9603,4.09574 10.3041,8.3749 15.8269,12.6786 a 15.862938,70.316859 47.239694 0 0 29.2576,-20.37628 15.862938,70.316859 27.239694 0 0 -11.8148,33.61348 c 5.6654,4.18315 11.237,8.17813 16.5072,11.83732 a 15.862938,70.316859 27.239694 0 0 22.6011,-31.39733 15.862938,70.316859 7.2396945 0 0 2.935,47.48472 c 2.7199,1.3804 4.8485,2.22603 6.2043,2.39826 1.3494,0.17142 3.6068,-0.11226 6.5646,-0.76206 a 15.862938,70.316859 7.2396945 0 0 14.7498,-45.25128 70.316859,15.862938 77.239694 0 0 14.0313,36.05491 c 6.0127,-2.22325 12.4008,-4.69658 18.9267,-7.32796 a 70.316859,15.862938 77.239694 0 0 -3.018,-35.50683 70.316859,15.862938 57.239694 0 0 23.2175,27.05146 c 6.4284,-2.78802 12.6769,-5.59753 18.5082,-8.32497 a 70.316859,15.862938 57.239694 0 0 -15.9083,-35.33637 70.316859,15.862938 37.239694 0 0 43.0187,21.25491 c 3.1272,-1.96215 5.3047,-3.62041 6.2424,-4.85398 0.5865,-0.77159 1.2038,-2.06683 1.8413,-3.78276 a 70.316859,15.862938 37.239694 0 0 -32.5258,-37.05667 70.316859,15.862938 17.239694 0 0 39.6202,5.90729 c 1.0459,-6.07098 2.0644,-12.58383 3.0236,-19.28841 a 70.316859,15.862938 17.239694 0 0 -33.543,-15.9376 15.862938,70.316859 87.239694 0 0 36.5107,-7.07378 c 0.7656,-6.65436 1.4364,-13.18485 1.9792,-19.35447 a 15.862938,70.316859 87.239694 0 0 -39.967,-4.23523 15.862938,70.316859 67.239694 0 0 41.3498,-28.52704 c -0.1648,-3.03929 -0.496,-5.30184 -1.0241,-6.56039 -0.2685,-0.64009 -0.7646,-1.42999 -1.4479,-2.34118 a 15.862938,70.316859 67.239694 0 0 -50.7527,9.11973 15.862938,70.316859 47.239694 0 0 25.6183,-32.64432 c -4.54,-3.76525 -9.4198,-7.6955 -14.4823,-11.66993 a 15.862938,70.316859 47.239694 0 0 -31.9781,21.77505 15.862938,70.316859 27.239694 0 0 12.4328,-36.66634 c -5.1567,-3.81012 -10.2378,-7.46524 -15.0901,-10.85881 a 15.862938,70.316859 27.239694 0 0 -24.6354,33.47379 15.862938,70.316859 7.2396945 0 0 -5.1741,-51.94937 c -1.4753,-0.63701 -2.6798,-1.03291 -3.5584,-1.14452 z"
         style="opacity:1;fill:#ffffff;fill-opacity:1;stroke:none;stroke-width:2.98259306;stroke-miterlimit:4;stroke-dasharray:none;stroke-opacity:1" />
      <g
         id="g5112"
         transform="matrix(0.50863948,0.06461415,-0.06461415,0.50863948,7549.9168,1026.1673)">
        <g
           transform="matrix(0.68656781,0,0,0.68656781,-3166.2042,-667.6904)"
           id="g5100">
          <path
             transform="matrix(-0.21577837,0.80529586,-0.80529586,-0.21577837,1285.8215,-573.51134)"
             d="m 692.1965,120.47252 -218.67879,-1e-5 -109.33938,-189.381388 109.3394,-189.381382 218.67879,10e-6 109.33938,189.381394 z"
             inkscape:randomized="0"
             inkscape:rounded="0"
             inkscape:flatsided="true"
             sodipodi:arg2="1.5707963"
             sodipodi:arg1="1.0471976"
             sodipodi:r2="109.33939"
             sodipodi:r1="218.67879"
             sodipodi:cy="-68.908867"
             sodipodi:cx="582.85712"
             sodipodi:sides="6"
             id="path5094"
             style="fill:#efd31a;fill-opacity:1;stroke:none"
             sodipodi:type="star" />
          <path
             sodipodi:type="star"
             style="fill:#bead0f;fill-opacity:1;stroke:none"
             id="path5096"
             sodipodi:sides="6"
             sodipodi:cx="582.85712"
             sodipodi:cy="-68.908867"
             sodipodi:r1="218.67879"
             sodipodi:r2="109.33939"
             sodipodi:arg1="1.0471976"
             sodipodi:arg2="1.5707963"
             inkscape:flatsided="true"
             inkscape:rounded="0"
             inkscape:randomized="0"
             d="m 692.1965,120.47252 -218.67879,-1e-5 -109.33938,-189.381388 109.3394,-189.381382 218.67879,10e-6 109.33938,189.381394 z"
             transform="matrix(-0.41685181,0.72200852,-0.72200852,-0.41685181,1408.7578,-538.82246)" />
          <path
             transform="matrix(-0.58951748,0.58951749,-0.58951749,-0.58951748,1518.5271,-473.49731)"
             d="m 692.1965,120.47252 -218.67879,-1e-5 -109.33938,-189.381388 109.3394,-189.381382 218.67879,10e-6 109.33938,189.381394 z"
             inkscape:randomized="0"
             inkscape:rounded="0"
             inkscape:flatsided="true"
             sodipodi:arg2="1.5707963"
             sodipodi:arg1="1.0471976"
             sodipodi:r2="109.33939"
             sodipodi:r1="218.67879"
             sodipodi:cy="-68.908867"
             sodipodi:cx="582.85712"
             sodipodi:sides="6"
             id="path5098"
             style="fill:#dfcd14;fill-opacity:1;stroke:none"
             sodipodi:type="star" />
        </g>
        <g
           transform="matrix(0.68656781,0,0,0.68656781,-2579.6534,-657.6577)"
           id="g5110">
          <path
             inkscape:connector-curvature="0"
             style="fill:#c6b70c;fill-opacity:1;stroke:none;stroke-width:1.06666672"
             d="M 344.19063,49.200167 C 326.10599,47.295077 309.68906,42.667587 292.6227,34.664507 274.47937,26.156407 260.07921,15.666967 245.47651,0.32201665 225.78161,-20.373943 212.77432,-45.379363 206.55205,-74.506983 c -2.76489,-12.94295 -2.72806,-46.886877 0.0648,-59.704687 13.27525,-60.927 59.33483,-107.01172 120.66505,-120.73089 12.22888,-2.73552 41.89163,-3.83135 55.32403,-2.04383 67.76574,9.01793 122.50536,61.36458 133.60264,127.7621 2.3513,14.06846 2.30885,37.231107 -0.0934,50.983977 -14.03434,80.3445597 -89.31001,136.14329 -171.92448,127.44048 z"
             id="path5102" />
          <g
             id="g5108">
            <path
               inkscape:connector-curvature="0"
               id="path5104"
               d="m 367.28189,9.6786667 v -13.94768 l -4.76894,-6.1975997 c -11.19505,-14.54881 -23.21544,-24.01235 -43.9151,-34.57396 -21.98911,-11.21953 -30.73748,-18.24724 -39.43603,-31.67961 -10.21076,-15.76754 -17.73025,-39.493157 -22.79405,-71.920127 -1.19098,-7.62667 -2.43759,-15.49766 -2.77025,-17.4911 -0.60271,-3.6117 -0.57367,-3.59552 8.2731,4.60976 11.41839,10.59044 27.86085,21.51774 49.9446,33.19211 9.68,5.11725 21.5226,11.88634 26.3169,15.04242 10.8073,7.11446 20.53489,17.579967 25.4239,27.352537 l 3.72587,7.44756 0.003,-14.27664 c 0.002,-7.852157 -0.5314,-19.392437 -1.18445,-25.645067 -2.31006,-22.1173 2.00354,-37.37825 13.43153,-47.51904 3.16882,-2.8119 12.36713,-8.71254 20.44068,-13.11254 12.163,-6.62871 16.22563,-9.50917 23.70102,-16.80435 4.962,-4.84239 9.27908,-8.5471 9.59349,-8.23268 0.31442,0.31442 0.76375,7.63638 0.99853,16.27102 0.49257,18.11652 -0.9719,26.55948 -6.36054,36.6696 -5.81461,10.90932 -13.04374,17.23358 -33.95652,29.70616 -6.16,3.67387 -13.24,8.32677 -15.73333,10.33976 l -4.53334,3.65998 v 65.528587 65.52859 h -3.2 -3.2 V 9.6786667 Z"
               style="fill:#ffffff;fill-opacity:1;stroke-width:1.06666672" />
            <path
               inkscape:connector-curvature="0"
               id="path5106"
               d="m 356.11891,-161.18411 c -1.10581,-1.90092 -5.3197,-7.02035 -9.36418,-11.37653 -10.64455,-11.46489 -12.02449,-14.49871 -11.92304,-26.21301 0.0675,-7.79841 0.72751,-11.55172 3.51675,-20 1.88849,-5.72 3.64132,-10.4 3.89518,-10.4 0.25387,0 1.49131,2.04 2.74987,4.53334 1.25857,2.49333 5.57325,9.59026 9.58819,15.77096 8.58403,13.21447 10.56687,18.25125 10.56687,26.84174 0,5.79926 -4.13064,21.34234 -6.24793,23.51017 -0.42413,0.43424 -1.6759,-0.76576 -2.78171,-2.66667 z"
               style="fill:#ffef1d;fill-opacity:1;stroke-width:1.06666672" />
          </g>
        </g>
      </g>
      <text
         inkscape:transform-center-y="-18.771721"
         inkscape:transform-center-x="14.275757"
         transform="rotate(35.983617)"
         xml:space="preserve"
         style="font-style:normal;font-variant:normal;font-weight:600;font-stretch:normal;line-height:0%;font-family:'URW Gothic L';-inkscape-font-specification:'URW Gothic L, Semi-Bold';font-variant-ligatures:normal;font-variant-caps:normal;font-variant-numeric:normal;font-feature-settings:normal;text-align:start;letter-spacing:0px;word-spacing:0px;writing-mode:lr-tb;text-anchor:start;fill:#eeeeee;fill-opacity:1;stroke:none;stroke-width:2.17961431px;stroke-linecap:butt;stroke-linejoin:miter;stroke-opacity:1"
         x="5292.0913"
         y="-3044.2175"
         id="text5080"><tspan
           sodipodi:role="line"
           id="tspan5078"
           x="5292.0913"
           y="-3044.2175"
           style="font-size:84.2411499px;line-height:1.25;fill:#eeeeee;fill-opacity:1;stroke-width:2.17961431px">Chamomile</tspan></text>
    </g>
  </g>
</svg>
